<svg width="269" height="216" fill="none" xmlns="http://www.w3.org/2000/svg"><path d="M262.843 61.694a6.764 6.764 0 0 0 9.553 0 6.764 6.764 0 0 0 0-9.553c-2.634-2.633-6.92-2.633-9.553 0a6.764 6.764 0 0 0 0 9.553Zm8.199-8.199a4.85 4.85 0 0 1 0 6.845 4.85 4.85 0 0 1-6.845 0 4.843 4.843 0 0 1 0-6.845 4.844 4.844 0 0 1 6.845 0Zm-22.801-2.321a6.764 6.764 0 0 0-9.553 0 6.764 6.764 0 0 0 0 9.553c2.634 2.633 6.92 2.633 9.553 0 2.634-2.633 2.633-6.92 0-9.553Zm-8.199 8.199a4.85 4.85 0 0 1 0-6.845 4.85 4.85 0 0 1 6.845 0 4.85 4.85 0 0 1 0 6.845 4.85 4.85 0 0 1-6.845 0ZM214.84 58.8a6.764 6.764 0 0 0 9.553 0c2.633-2.633 2.632-6.92-.001-9.552a6.764 6.764 0 0 0-9.553 0 6.763 6.763 0 0 0 .001 9.552Zm8.198-8.198a4.843 4.843 0 0 1 0 6.845 4.849 4.849 0 0 1-6.844 0 4.85 4.85 0 0 1-.001-6.846 4.85 4.85 0 0 1 6.845 0Zm-30.434 11.736a6.764 6.764 0 0 0 9.553 0 6.764 6.764 0 0 0 0-9.553c-2.634-2.633-6.92-2.633-9.553 0a6.764 6.764 0 0 0 0 9.553Zm8.199-8.199a4.85 4.85 0 0 1 0 6.845 4.85 4.85 0 0 1-6.845 0 4.85 4.85 0 0 1 0-6.845 4.85 4.85 0 0 1 6.845 0Zm-17.646 104.646c-2.634-2.633-6.92-2.633-9.553 0a6.764 6.764 0 0 0 0 9.553 6.764 6.764 0 0 0 9.553 0c2.633-2.633 2.633-6.919 0-9.553Zm-8.199 8.199a4.843 4.843 0 0 1 0-6.845 4.85 4.85 0 0 1 6.845 0 4.85 4.85 0 0 1 0 6.845 4.85 4.85 0 0 1-6.845 0Zm2.51-29.468c-2.633 2.633-2.633 6.919 0 9.553 2.634 2.633 6.92 2.633 9.553 0a6.764 6.764 0 0 0 0-9.553c-2.633-2.633-6.92-2.634-9.553 0Zm8.206 8.206a4.844 4.844 0 0 1-6.845-.001 4.85 4.85 0 0 1 0-6.845 4.85 4.85 0 0 1 6.845.001 4.845 4.845 0 0 1 0 6.845Zm-11.106-46.65c2.633 2.633 6.92 2.634 9.553 0 2.633-2.633 2.632-6.92-.001-9.553a6.764 6.764 0 0 0-9.553 0 6.763 6.763 0 0 0 .001 9.553Zm8.198-8.199a4.844 4.844 0 0 1 .001 6.845 4.85 4.85 0 0 1-6.845 0 4.85 4.85 0 0 1-.001-6.845 4.85 4.85 0 0 1 6.845 0Zm-4.661-14.037a6.764 6.764 0 0 0 9.553 0 6.764 6.764 0 0 0 0-9.552 6.762 6.762 0 0 0-9.553 0c-2.634 2.632-2.633 6.919 0 9.552Zm8.199-8.198a4.85 4.85 0 0 1 0 6.845 4.85 4.85 0 0 1-6.845 0 4.85 4.85 0 0 1 0-6.846 4.85 4.85 0 0 1 6.845 0Zm-9.613 44.914a6.489 6.489 0 0 0 0 9.172 6.489 6.489 0 0 0 9.172 0 6.489 6.489 0 0 0 0-9.172 6.489 6.489 0 0 0-9.172 0Zm8.199.973c1.994 1.994 2.001 5.239.007 7.233a5.122 5.122 0 0 1-7.239-.001 5.116 5.116 0 0 1-.001-7.239 5.108 5.108 0 0 1 7.233.007Zm57.362-99.902c2.035 2.034 5.206 2.225 7.471.599.028.027.034.06.055.081L274.675 40.2a.954.954 0 0 0 1.347 0 .97.97 0 0 0 .007-1.354L251.132 13.95s-.055-.027-.082-.054a5.786 5.786 0 0 0-8.791-7.471 5.8 5.8 0 0 0-.007 8.198Zm15.093 31.312-10.438-10.437c1.912-2.28 1.83-5.668-.313-7.812a5.803 5.803 0 0 0-8.206 8.206c1.919 1.919 4.838 2.198 7.07.864l10.533 10.533a.965.965 0 0 0 1.361 0 .957.957 0 0 0-.007-1.354Zm-96.134 67.133a5.802 5.802 0 1 0-8.205 8.205c2.266 2.266 5.566 2.232 7.845.293l10.431 10.431a.966.966 0 0 0 1.361 0 .966.966 0 0 0 0-1.361l-10.547-10.546c1.3-2.225 1.021-5.117-.885-7.022Zm48.011 2.9c-2.034-2.034-5.205-2.225-7.471-.599-.027-.027-.027-.054-.054-.082l-11.044-11.043a.956.956 0 0 0-1.354 1.354l11.044 11.043s.054.041.081.055c-1.626 2.266-1.442 5.429.599 7.471a5.803 5.803 0 0 0 8.206-8.206l-.007.007Zm22.229-3.544a5.803 5.803 0 1 0-8.206 8.206 5.803 5.803 0 0 0 8.206-8.206Zm-91.502 4.501a5.794 5.794 0 0 0-8.199.007 5.8 5.8 0 0 0-.006 8.199c2.034 2.034 5.205 2.225 7.471.599.027.027.034.061.054.081l24.897 24.898a.957.957 0 0 0 1.354-1.354l-24.897-24.898s-.054-.027-.082-.054c1.626-2.266 1.436-5.437-.599-7.471l.007-.007Zm89.622-52.307a.955.955 0 0 0 0 1.348l10.86 10.86c-1.327 2.224-1.055 5.15.864 7.069a5.803 5.803 0 0 0 8.206-8.206c-2.144-2.143-5.532-2.225-7.811-.313l-10.758-10.758a.957.957 0 0 0-1.354.007l-.007-.007Zm8.173 41.512a5.803 5.803 0 0 0 8.206.001 5.804 5.804 0 0 0 0-8.206c-2.144-2.144-5.532-2.239-7.805-.32l-28.156-28.157a.963.963 0 0 0-1.354-.007.97.97 0 0 0 0 1.361l28.252 28.252c-1.334 2.232-1.055 5.151.864 7.069l-.007.007Z" fill="#CABAFF"/><path d="M223.197 111.015 195.81 83.628a.963.963 0 0 0-1.354-.007.97.97 0 0 0 0 1.36l27.387 27.388a.958.958 0 0 0 1.361 0 .95.95 0 0 0-.007-1.354Zm-64.418 72.148c2.633 2.634 6.919 2.634 9.553.001 2.633-2.633 2.632-6.92-.001-9.553a6.763 6.763 0 0 0-9.553-.001 6.763 6.763 0 0 0 .001 9.553Zm8.198-8.198a4.843 4.843 0 0 1 0 6.845 4.85 4.85 0 0 1-6.844-.001 4.85 4.85 0 0 1-.001-6.845 4.85 4.85 0 0 1 6.845.001Zm-19.908 2.503a6.764 6.764 0 0 0-9.553 0c-2.633 2.633-2.633 6.919 0 9.553 2.634 2.633 6.92 2.633 9.553 0 2.634-2.633 2.633-6.919 0-9.553Zm-8.199 8.199a4.839 4.839 0 0 1 0-6.845 4.843 4.843 0 0 1 6.845 0 4.85 4.85 0 0 1 0 6.845 4.85 4.85 0 0 1-6.845 0Zm-25.515.394a6.764 6.764 0 0 0 9.553 0 6.763 6.763 0 0 0-.001-9.553c-2.633-2.633-6.919-2.633-9.553 0-2.633 2.633-2.632 6.919.001 9.553Zm8.198-8.199a4.844 4.844 0 0 1 .001 6.845 4.85 4.85 0 0 1-6.845 0 4.85 4.85 0 0 1 0-6.845 4.848 4.848 0 0 1 6.844 0Zm-22.487 6.265a6.764 6.764 0 0 0 0-9.553 6.764 6.764 0 0 0-9.553 0c-2.633 2.633-2.633 6.919 0 9.553a6.764 6.764 0 0 0 9.553 0Zm-8.199-1.354a4.844 4.844 0 0 1 0-6.845 4.85 4.85 0 0 1 6.845 0 4.85 4.85 0 0 1 0 6.845 4.85 4.85 0 0 1-6.845 0Zm-23.59 4.891a6.764 6.764 0 0 0 9.553 0 6.764 6.764 0 0 0 0-9.553 6.764 6.764 0 0 0-9.553 0c-2.633 2.633-2.633 6.919 0 9.553Zm8.199-8.199a4.85 4.85 0 0 1 0 6.845 4.85 4.85 0 0 1-6.845 0 4.85 4.85 0 0 1 0-6.845 4.85 4.85 0 0 1 6.845 0Zm-16.682 44.934a6.764 6.764 0 0 0 0-9.553c-2.634-2.633-6.92-2.634-9.553-.001a6.764 6.764 0 0 0 0 9.553 6.763 6.763 0 0 0 9.553.001Zm-8.2-8.199a4.85 4.85 0 0 1 6.846 0 4.85 4.85 0 0 1 0 6.845 4.851 4.851 0 0 1-6.845 0 4.85 4.85 0 0 1 0-6.845Zm11.737-14.037c2.633-2.633 2.633-6.919 0-9.553a6.764 6.764 0 0 0-9.553 0 6.764 6.764 0 0 0 0 9.553 6.764 6.764 0 0 0 9.553 0Zm-8.206-8.206a4.85 4.85 0 0 1 6.845.001 4.85 4.85 0 0 1 0 6.845 4.85 4.85 0 0 1-6.845-.001 4.85 4.85 0 0 1 0-6.845Zm62.8-54.008c2.035 2.035 5.206 2.225 7.471.599.027.027.034.061.055.082l24.897 24.897a.954.954 0 0 0 1.347 0 .97.97 0 0 0 .007-1.354l-24.897-24.897s-.055-.027-.082-.055c1.626-2.265 1.435-5.436-.599-7.47a5.794 5.794 0 0 0-8.199.006 5.8 5.8 0 0 0-.006 8.199l.006-.007Zm15.086 32.667a.966.966 0 0 0 0-1.361l-10.438-10.438c1.912-2.279 1.823-5.661-.32-7.804a5.803 5.803 0 0 0-8.206 8.205c1.919 1.919 4.838 2.198 7.07.865l10.533 10.533a.966.966 0 0 0 1.361 0Zm-27.774 18.683 10.86 10.86c-1.333 2.232-1.054 5.151.865 7.069a5.802 5.802 0 1 0 8.205-8.205c-2.143-2.143-5.532-2.225-7.811-.313l-10.758-10.758a.957.957 0 0 0-1.354 1.354l-.007-.007Zm16.386 31.953c-2.144-2.144-5.532-2.239-7.805-.32l-28.156-28.157a.965.965 0 0 0-1.361 0 .965.965 0 0 0 0 1.361l28.252 28.252c-1.327 2.224-1.054 5.15.864 7.069a5.803 5.803 0 0 0 8.206-8.205Zm-22.759 14.444a.965.965 0 0 0 0-1.361l-27.381-27.381a.965.965 0 0 0-1.36 0 .965.965 0 0 0 0 1.361l27.387 27.388a.966.966 0 0 0 1.36 0l-.006-.007Z" fill="#CABAFF"/></svg>