<svg width="48" height="48" fill="none" xmlns="http://www.w3.org/2000/svg"><path d="M20.398 34.724a3.529 3.529 0 0 0 3.524-3.524 3.529 3.529 0 0 0-3.524-3.525 3.53 3.53 0 0 0-3.525 3.525 3.529 3.529 0 0 0 3.525 3.524Z" fill="#A68FF1"/><path d="M42.598 38.394H41.12a3.062 3.062 0 0 0-.768-1.613 3.059 3.059 0 0 0-1.824-.974l-3.941-10.719a4.443 4.443 0 0 0-4.056-2.633h-2.029a.456.456 0 0 0-.45.405 11.26 11.26 0 0 0-6.52-2.91v-.894a.461.461 0 1 0-.922 0v6.102c0 .623-.508 1.13-1.13 1.13-.623 0-1.13-.507-1.13-1.13v-7a3.747 3.747 0 0 1 3.742-3.742H24.3a3.747 3.747 0 0 1 3.742 3.743v2.185a.461.461 0 1 0 .923 0V18.16a4.672 4.672 0 0 0-3.334-4.47 4.465 4.465 0 0 0 2.031-3.74 4.472 4.472 0 0 0-4.466-4.467 4.473 4.473 0 0 0-4.468 4.467c0 1.565.81 2.941 2.032 3.74a4.679 4.679 0 0 0-2.412 1.695v-2.831a2.6 2.6 0 0 0-.766-1.847 2.589 2.589 0 0 0-1.842-.762 2.615 2.615 0 0 0-2.594 2.303h-2.828c-.007 0-.013.004-.02.005a1.267 1.267 0 0 0-1.696.081l-2.829 2.829A1.27 1.27 0 0 0 7.57 16.96l2.829-2.829a1.26 1.26 0 0 0 .366-.96h2.362v9.363A11.26 11.26 0 0 0 9.079 31.2c0 6.24 5.077 11.318 11.318 11.318 3.06 0 5.837-1.222 7.877-3.202h6.288l.01.002.007-.002h.443c.089.598.352 1.156.768 1.613a3.06 3.06 0 0 0 2.284 1.008 3.06 3.06 0 0 0 2.07-.802 3.06 3.06 0 0 0 .973-1.819h1.48a.461.461 0 1 0 0-.922l.001-.001ZM19.652 9.949a3.548 3.548 0 0 1 3.544-3.544 3.547 3.547 0 0 1 3.544 3.544 3.547 3.547 0 0 1-3.543 3.544 3.548 3.548 0 0 1-3.545-3.544ZM19.48 27.21c1.132 0 2.053-.92 2.053-2.053v-1.689c3.787.556 6.688 3.854 6.688 7.73 0 4.314-3.51 7.823-7.822 7.823-4.313 0-7.823-3.51-7.823-7.822a7.799 7.799 0 0 1 4.85-7.24v1.197c0 1.133.922 2.054 2.054 2.054Zm-5.43-14.658a1.69 1.69 0 0 1 2.88-1.195c.32.32.496.744.496 1.194v7.732a11.367 11.367 0 0 0-3.375 1.549v-9.28Zm6.35 29.043c-5.733 0-10.396-4.663-10.396-10.395 0-3.162 1.414-6.113 3.877-8.096a.427.427 0 0 0 .029-.027l.01-.008.003-.004a10.45 10.45 0 0 1 3.504-1.826v1.74a8.716 8.716 0 0 0-5.774 8.22c0 4.823 3.924 8.746 8.746 8.746 4.823 0 8.746-3.923 8.746-8.745 0-4.38-3.312-8.098-7.612-8.66v-1.663a10.347 10.347 0 0 1 8.915 7.66c.23.856.346 1.751.346 2.663 0 5.732-4.663 10.395-10.395 10.395Zm8.731-3.201a11.265 11.265 0 0 0 2.55-6.312c.826 2.345 1.807 5.104 2.238 6.312H29.13Zm5.894 0h-.127c-.547-1.538-3.01-8.452-3.565-10.122l-.001-.002a11.28 11.28 0 0 0-2.752-4.893h1.953c1.387 0 2.648.819 3.201 2.058l3.817 10.382a3.082 3.082 0 0 0-2.526 2.576Z" fill="#A68FF1"/></svg>