<svg width="48" height="48" fill="none" xmlns="http://www.w3.org/2000/svg"><path d="M40.328 9.289c-.13-.868-.503-1.554-1.049-1.93-.954-.658-2.557-.435-4.139.532-.236-.91-.876-1.645-1.72-1.907-.649-.202-1.391-.1-2.036.277a2.989 2.989 0 0 0-1.107 1.144c-.404-.413-1.031-.862-1.897-.961-1.182-.139-2.368.456-3.073 1.48-.485-.431-1.33-.962-2.484-.946-1.024.027-1.776.482-2.266.918-.373-1.05-1.312-1.824-2.42-1.873-.918-.038-1.81.451-2.347 1.244a4.58 4.58 0 0 0-2.699-1.112c-1.201-.084-2.343.292-3.219 1.056-1.572 1.372-1.935 3.75-.915 5.595-.43.349-1.057 1.026-1.152 2.055-.089.966.333 1.926 1.085 2.562a3.665 3.665 0 0 0-1.265 2.934 3.678 3.678 0 0 0 1.538 2.835c-1.121 1.396-1.475 3.238-.918 4.933.644 1.958 2.43 3.359 4.507 3.574.57 1.925 1.496 3.114 2.763 3.517.333.106.666.15.994.15 1.764 0 3.337-1.297 3.415-1.363a.461.461 0 0 0-.592-.708c-.019.016-1.903 1.562-3.54 1.04-1.015-.323-1.77-1.396-2.243-3.188-.002-.008-.008-.013-.01-.02-.01-.032-.026-.058-.043-.087-.014-.024-.025-.05-.043-.07-.02-.023-.043-.04-.066-.058-.023-.018-.045-.038-.07-.052-.025-.013-.052-.019-.078-.027-.031-.01-.062-.02-.095-.023-.007-.001-.014-.005-.022-.006-1.833-.077-3.44-1.27-4-2.968-.508-1.545-.093-3.241 1.084-4.427a.461.461 0 0 0-.123-.738 2.752 2.752 0 0 1-.153-4.86.462.462 0 0 0-.02-.81c-.785-.403-1.26-1.229-1.184-2.056.096-1.047 1.04-1.587 1.08-1.61a.46.46 0 0 0 .153-.665c-1.044-1.505-.816-3.598.521-4.763.69-.603 1.594-.895 2.548-.831a3.664 3.664 0 0 1 2.532 1.263.463.463 0 0 0 .78-.139c.293-.772 1.015-1.287 1.759-1.255.94.04 1.723.948 1.708 1.98a.463.463 0 0 0 .856.248c.03-.05.768-1.235 2.185-1.272 1.337-.05 2.101.955 2.186 1.068a.46.46 0 0 0 .792-.089c.448-1.008 1.456-1.63 2.451-1.52 1.093.125 1.68 1.094 1.742 1.204a.461.461 0 0 0 .851-.132 2.1 2.1 0 0 1 .982-1.376c.421-.246.894-.317 1.297-.192.684.213 1.175.98 1.168 1.825a.46.46 0 0 0 .738.374c1.39-1.037 2.981-1.443 3.701-.946.329.227.57.703.66 1.307.207 1.371-.346 3.045-1.477 4.476a.46.46 0 0 0 .078.65 3.563 3.563 0 0 1-1.057 6.186.461.461 0 0 0-.141.796c.276.222.64.6.801 1.145.289.968-.146 2.114-1.107 2.918a.462.462 0 0 0 .083.763c1.277.664 2.117 1.774 2.14 2.825.017.734-.35 1.521-1.006 2.16-.925.902-2.278 1.381-3.705 1.31a.453.453 0 0 0-.478.385c-.072.433-.26 1.037-.744 1.46-.964.843-2.707.706-4.144-.326a.462.462 0 0 0-.669.606c.36.625.782 1.637.739 2.913-.063 1.884-1.117 3.174-1.567 3.642a.462.462 0 1 0 .665.64c.524-.544 1.75-2.048 1.824-4.252a6.273 6.273 0 0 0-.294-2.12c1.486.59 3.054.465 4.054-.408.546-.476.823-1.088.962-1.61 1.539-.019 2.98-.584 4.002-1.58.838-.816 1.307-1.852 1.285-2.84-.027-1.238-.814-2.462-2.092-3.303.912-1.004 1.279-2.302.938-3.447a3.108 3.108 0 0 0-.587-1.089 4.48 4.48 0 0 0 2.332-3.243 4.492 4.492 0 0 0-1.321-3.962c1.106-1.55 1.626-3.33 1.4-4.833l-.002.003Z" fill="#A68FF1"/><path d="M31.93 29.49a.461.461 0 0 0 .745-.533c-.592-1.084-.732-1.961-.419-2.607.446-.917 1.704-1.139 1.715-1.14a.462.462 0 0 0 .229-.805c-.848-.732-1.279-1.496-1.281-2.271-.005-1.166.962-2.027.97-2.035a.461.461 0 0 0-.025-.718c-2.115-1.586.085-4.957.107-4.99a.462.462 0 0 0-.669-.619c-.423.332-.81.452-1.185.37-.786-.173-1.301-1.175-1.306-1.183a.463.463 0 0 0-.716-.141c-.892.779-1.77 1.13-2.612 1.032-1.243-.138-2.037-1.206-2.044-1.216a.46.46 0 0 0-.67-.084c-1.285 1.075-2.388 1.536-3.187 1.334-.725-.182-1.003-.857-1.013-.883a.463.463 0 0 0-.399-.296.475.475 0 0 0-.436.238c-.289.526-.69.85-1.225.99-1.557.412-3.653-.87-3.673-.883a.462.462 0 0 0-.641.628c.67 1.137.887 2.185.643 3.117-.333 1.274-1.435 1.926-1.444 1.932a.46.46 0 0 0-.024.787c.97.634 1.553 1.409 1.734 2.301.302 1.49-.607 2.864-.615 2.876a.462.462 0 0 0 .213.69c.58.227.958.58 1.154 1.081.5 1.278-.352 3.052-.36 3.07a.462.462 0 0 0 .828.405c.042-.087 1.038-2.15.393-3.808a2.684 2.684 0 0 0-1.202-1.38c.311-.625.755-1.806.495-3.107-.194-.968-.734-1.813-1.61-2.52.454-.395 1.062-1.083 1.327-2.079.219-.82.165-1.693-.156-2.606.876.351 2.087.674 3.17.39a2.746 2.746 0 0 0 1.376-.834 2.38 2.38 0 0 0 1.222.783c1.034.267 2.267-.147 3.67-1.233.419.429 1.235 1.095 2.36 1.224.972.111 1.951-.196 2.916-.916.313.431.866 1.022 1.627 1.192.216.048.432.061.648.038-.615 1.443-.933 3.384.361 4.701-.382.456-.926 1.29-.926 2.346 0 .846.345 1.655 1.025 2.414-.542.227-1.222.647-1.59 1.398-.267.544-.328 1.167-.184 1.863-.7-.413-1.637-.792-2.735-.814-1.462-.04-2.877.579-4.204 1.809-.638-.495-2.086-1.437-3.61-1.171-1.094.188-1.988.942-2.66 2.241a.462.462 0 1 0 .82.424c.531-1.027 1.202-1.618 1.993-1.756 1.546-.27 3.148 1.204 3.164 1.219.183.17.468.164.643-.012 1.227-1.239 2.498-1.855 3.826-1.831 2.002.036 3.433 1.564 3.446 1.578Z" fill="#A68FF1"/><path d="M19.237 15.476c-.242.126-2.37 1.29-2.521 3.341-.099 1.336.653 2.593 2.233 3.74a1.152 1.152 0 0 0 1.611-.257 1.154 1.154 0 0 0-.257-1.612c-.862-.625-1.319-1.227-1.287-1.697.042-.612.887-1.254 1.29-1.47a1.154 1.154 0 0 0-1.07-2.045h.001Z" fill="#A68FF1"/><path d="M25.86 17.57c-2.084-.993-4.506.259-4.775.404a1.153 1.153 0 0 0 1.097 2.03c.421-.223 1.818-.769 2.688-.348.504.243.846.84 1.019 1.778a1.154 1.154 0 0 0 2.27-.416c-.314-1.708-1.087-2.867-2.299-3.447Zm3.268-2.2a1.154 1.154 0 0 0-1.367.89c-.27 1.273.07 3.348 2.12 3.84a1.155 1.155 0 0 0 .54-2.244c-.561-.134-.433-.958-.401-1.126a1.154 1.154 0 0 0-.892-1.36Z" fill="#A68FF1"/><path d="M18.4 26.43c.16.062 1.08.397 2.177.397.746 0 1.575-.155 2.301-.658 1.093-.756 1.641-2.05 1.628-3.85a1.154 1.154 0 0 0-1.154-1.144h-.009a1.154 1.154 0 0 0-1.145 1.162c.005.678-.1 1.563-.628 1.932-.673.47-1.948.155-2.343.007a1.153 1.153 0 0 0-.827 2.154Zm7.817-3.38a1.148 1.148 0 0 0-.8 1.405 1.16 1.16 0 0 0 1.405.822c.19-.048 1.166-.244 1.61.629a1.154 1.154 0 1 0 2.056-1.048c-1.058-2.074-3.255-2.09-4.27-1.808Zm-3.499 12.3a.462.462 0 0 0-.02.653c.688.729 1.006 1.482.946 2.24-.106 1.344-1.36 2.326-1.372 2.335a.461.461 0 1 0 .56.734c.064-.05 1.588-1.231 1.732-2.99.084-1.03-.317-2.023-1.194-2.952a.463.463 0 0 0-.653-.019Z" fill="#A68FF1"/></svg>