<svg width="48" height="48" fill="none" xmlns="http://www.w3.org/2000/svg"><path d="M25.188 29.234c-1.664-.545-2.959-1.316-3.962-2.145a1.103 1.103 0 0 0-.111-.098l-.009-.004c-2.483-2.112-3.11-4.552-3.119-4.587a.462.462 0 0 0-.897.216c.024.1.316 1.257 1.258 2.68.397 1.963-.558 2.448-.613 2.474a.461.461 0 0 0 .36.85c.056-.023 1.094-.48 1.252-2.032.374.418.808.838 1.307 1.245.263.322.943 1.41.965 4.075a.462.462 0 0 0 .462.457h.004a.461.461 0 0 0 .457-.465c-.01-1.316-.173-2.293-.383-3.02.79.467 1.698.89 2.742 1.231a.463.463 0 0 0 .582-.295.462.462 0 0 0-.296-.582ZM17.378 9.83a.461.461 0 0 0 .523.302l1.667-.316a.461.461 0 0 0 .375-.46l-.055-4.169a.461.461 0 1 0-.923.012l.05 3.781-.895.17-1.228-3.565a.462.462 0 0 0-.873.3l1.358 3.943.001.001Zm14.151 21.245a.462.462 0 0 0-.914-.138l-.17 1.132a7.592 7.592 0 0 0-1.749-1.463.462.462 0 0 0-.46.8c.03.018 3.025 1.779 2.51 4.388a.462.462 0 0 0 .905.18c.213-1.078-.025-2.017-.439-2.798l.317-2.101Z" fill="#A68FF1"/><path d="M35.71 15.711a7.009 7.009 0 0 0-3.351.845 13.895 13.895 0 0 0-2.977-2.573 9.768 9.768 0 0 1 1.466-.169c.007 0 .013-.004.02-.004.114-.013.228-.032.341-.066 1.133-.349 1.716-1.728 1.302-3.075-.39-1.266-1.523-2.06-2.596-1.863a16.44 16.44 0 0 0-4.546 1.195.452.452 0 0 0-.13-.145c-1.005-.711-2.586-.756-3.416-.723l.201-4.247a.461.461 0 0 0-.44-.483.478.478 0 0 0-.482.44l-.225 4.765a.462.462 0 0 0 .515.48c.02-.002 1.868-.207 3.016.35a19.456 19.456 0 0 0-2.72 1.627c-.188.024-.475.064-.838.13h-.004a8.536 8.536 0 0 0-1.696.362l-.058.013c-.013.003-.023.013-.036.018-1.13.391-1.681.929-1.994 1.236-.686.672-.818 1.453-.946 2.208-.12.715-.234 1.391-.832 1.996-.722.73-1.87 1.121-2.361.805-.638-.409-.366-2.093-.277-2.647.383-2.381 1.948-4.161 3.192-5.235a.461.461 0 0 0 .127-.52L14.528 6.82a.46.46 0 1 0-.857.341l1.317 3.311c-.293.266-.597.568-.898.902-1.5-.962-3.484-1.699-5.92-2.186-.044-.013-.077-.018-.113-.024a2.041 2.041 0 0 0-1.364.237c-.537.294-.974.794-1.228 1.407-.255.615-.3 1.277-.127 1.865.183.624.585 1.092 1.133 1.32.14.058.285.091.432.114l.148.02c2.05.297 3.644.807 4.76 1.512a7.73 7.73 0 0 0-.076.401c-.102.638-.309 1.92.082 2.829-.568 1.568-.786 3.288-.6 4.856.433 3.693 2.69 7.382 6.201 10.287-.135 3.857-3.84 3.953-4.001 3.955a.461.461 0 0 0 .003.923h.004c.046 0 4.325-.079 4.872-4.187a23.568 23.568 0 0 0 2.367 1.553c-1.564 1.97-.262 4.85.73 6.188a.46.46 0 0 0 .646.096.462.462 0 0 0 .096-.646c-.025-.033-2.375-3.268-.649-5.187 1.936 1.02 5.28 2.502 8.41 2.502 1.948 0 3.808-.572 5.193-2.183.96-1.117 1.555-2.658 1.712-4.458.079-.905.111-1.856.088-2.839a7.065 7.065 0 0 0 5.88-6.96c0-3.89-3.166-7.057-7.057-7.057h-.002ZM8.7 13.493a2.93 2.93 0 0 0 .732-1.041c.255-.614.3-1.276.127-1.864-.014-.05-.04-.093-.056-.141 1.589.424 2.925.973 3.991 1.64a9.354 9.354 0 0 0-1.428 2.624c-.888-.514-2.012-.92-3.366-1.218Zm27.175 18.995c-.097 1.122-.434 2.71-1.49 3.937-1.432 1.666-3.675 2.216-6.666 1.639-3.087-.6-6-2.234-7.107-2.908-4.805-2.93-7.976-7.246-8.479-11.539-.15-1.272-.01-2.655.389-3.954.252.136.54.201.845.201.884 0 1.903-.512 2.57-1.187.804-.813.955-1.704 1.088-2.492.112-.665.209-1.24.681-1.702.277-.273.72-.706 1.66-1.03.26-.064.522-.126.788-.183-1.292 1.119-2.022 2.028-2.095 2.121a.461.461 0 1 0 .725.571c.04-.05 3.748-4.675 9.714-5.987a2.795 2.795 0 0 0-.095 1.957c.142.464.388.859.69 1.17-.359.074-.7.164-1.023.271l-.012.004c-5.256 1.754-5.853 7.605-5.86 7.672a.46.46 0 1 0 .92.083c.021-.245.529-5.192 5.029-6.814a12.854 12.854 0 0 1 3.421 2.736 7.057 7.057 0 0 0-2.921 5.714 7.067 7.067 0 0 0 7.061 7.062c.088 0 .171 0 .254-.005.019.919-.013 1.814-.087 2.663Zm.965-3.688c-.296.056-.6.093-.914.102-.07.005-.143.005-.217.005a6.148 6.148 0 0 1-6.139-6.139 6.124 6.124 0 0 1 2.59-4.998 6.063 6.063 0 0 1 3.55-1.135 6.14 6.14 0 0 1 6.133 6.133A6.148 6.148 0 0 1 36.84 28.8Z" fill="#A68FF1"/><path d="m39.573 22.274 1.13-1.13c-.018-.06-.032-.116-.055-.171a5.012 5.012 0 0 0-.988-1.662l-1.527 1.528 1.44 1.435Zm-5.114-2.612.757-.757-1.14-1.135a5.07 5.07 0 0 0-.6.24c-.282.129-.55.286-.799.466-.147.106-.29.221-.429.341l1.528 1.528.683-.683Zm-3.942 2.271a4.143 4.143 0 0 0-.064.724c-.005.037-.005.074-.005.111 0 .199.01.392.037.586.005.083.019.166.032.25l.836-.836-.836-.835Zm2.765-1.094-1.528-1.528a4.27 4.27 0 0 0-.355.453 4.952 4.952 0 0 0-.642 1.227c-.018.051-.027.102-.046.153l1.136 1.13 1.435-1.435Zm4.851 3.863 1.527 1.528c.13-.148.25-.3.36-.457a5.04 5.04 0 0 0 .684-1.376l-1.131-1.135-1.44 1.44Zm-1.565 1.565-.364.364.489.49.646.646a5.213 5.213 0 0 0 1.828-1.043l-1.528-1.528-1.07 1.07Zm-2.792-1.071-1.528 1.527c.526.462 1.15.822 1.828 1.044l1.14-1.136-1.44-1.435Zm3.863-4.851 1.528-1.528a5.151 5.151 0 0 0-1.828-1.047l-1.135 1.135 1.435 1.44Zm3.323 2.312c0-.244-.028-.484-.065-.72l-.835.831.835.835a4.93 4.93 0 0 0 .07-.835c0-.037 0-.074-.005-.11Zm-5.252 3.48 1.435-1.435-1.168-1.172-.267-.268-1.44 1.44 1.329 1.325.11.11Zm.83-8.557a5.505 5.505 0 0 0-.835-.069c-.282 0-.558.028-.83.07l.835.83.83-.83Zm-.83 9.545-.831.83c.268.047.544.075.826.075.05 0 .106 0 .157-.005.23-.005.457-.032.678-.07l-.766-.765-.064-.065Zm-3.37-4.357 1.436 1.44 1.44-1.44-1.44-1.435-1.435 1.435Zm4.805-1.929-1.435-1.44-1.44 1.44 1.44 1.435 1.435-1.435Zm-5.298 2.423-1.136 1.135a5.106 5.106 0 0 0 1.043 1.833l1.528-1.528-1.435-1.44Zm7.232-.494-1.44-1.435-1.435 1.435 1.435 1.44 1.44-1.44ZM18.811 38.883a.461.461 0 0 0-.782-.369c-1.078 1.058-2.777 1.8-2.794 1.808a.462.462 0 0 0 .366.847c.06-.026 1.178-.514 2.239-1.293-.021.777-.02 1.928.08 3.293.017.242.22.428.459.428l.034-.001a.462.462 0 0 0 .427-.494c-.176-2.426-.03-4.202-.029-4.22Z" fill="#A68FF1"/></svg>