<svg width="48" height="48" fill="none" xmlns="http://www.w3.org/2000/svg"><path d="M36.855 30.383a6.012 6.012 0 0 0-4.565 2.1l-2.52-.935-.005-.004c-.005-.002-.01-.001-.013-.003a.782.782 0 0 0-.083-.032l-1.306-.489c-.79-.3-1.297-.932-1.297-1.615v-2.996a.457.457 0 0 0-.023-.138l-.003-.003a7.702 7.702 0 0 0 3.287-4.694 2.886 2.886 0 0 0 2.635-2.872c0-.942-.466-1.818-1.226-2.351v-3.484c0-4.02-3.272-7.287-7.287-7.287h-9.647a.46.46 0 0 0-.461.461c0 .91.35 1.763.997 2.41.07.064.134.129.208.189-1.814.558-1.814 3.078-1.814 4.652v3.16a2.88 2.88 0 0 0-1.088 2.25 2.887 2.887 0 0 0 2.635 2.872 7.699 7.699 0 0 0 2.969 4.477l.007.008.08.059c.064.044.13.085.196.128l.08.053.035.02c.087.057.173.116.264.169v2.916c0 .684-.51 1.319-1.298 1.615l-7.295 2.72c-2.39.893-4.151 2.704-4.711 4.846l-.465 1.778a.461.461 0 1 0 .894.233l.464-1.778c.484-1.851 2.032-3.427 4.141-4.214l5.546-2.068a7.788 7.788 0 0 0 6.803 4.051 7.78 7.78 0 0 0 6.8-4.053l1.939.725a5.953 5.953 0 0 0-.891 3.143c0 3.319 2.7 6.018 6.018 6.018 3.319 0 6.019-2.7 6.019-6.018 0-3.318-2.7-6.018-6.019-6.018ZM30.54 19.8v-2.118h.001c.078.004.157.009.235.009h.499c.148 0 .277-.07.36-.176v-.001a1.957 1.957 0 0 1-1.143 3.103 7.52 7.52 0 0 0 .048-.817Zm-16.973-1.098c0-.402.125-.786.346-1.108.079.06.175.097.28.097.3 0 .591-.037.873-.11V19.8c0 .271.02.544.048.817a1.963 1.963 0 0 1-1.547-1.915Zm16.05.097v1a6.775 6.775 0 0 1-2.085 4.906l.092-.548a.164.164 0 0 0 .01-.05l.313-1.884.286-1.703v-.004l1.384-1.717Zm-13.508-1.648a3.94 3.94 0 0 0 .484-.356c.02-.01.035-.03.052-.044.01-.01.022-.017.03-.027.008-.008.017-.013.024-.02 1.011-.873 1.616-2.253 1.634-3.716h9.037v1.297c0 1.034.462 1.999 1.265 2.65.014.009.023.018.037.022l.004.005c.259.203.545.37.85.48l-1.96 2.432c-4.023-1.028-8.487-.24-9.703.014l-1.81-2.704c.02-.01.037-.023.056-.032v-.001Zm-.007 3.887a6.944 6.944 0 0 1-.112-1.238v-1.054l1.231 1.84v.003l.272 1.634.319 1.92.059.354a6.764 6.764 0 0 1-1.769-3.46Zm2.707 3.476h1.106a.461.461 0 1 0 0-.923h-1.258v-.002l-.166-.996h1.424a.461.461 0 1 0 0-.923h-1.581l-.148-.9c1.306-.26 5.432-.924 9.074-.024l-.152.923H25.65a.462.462 0 1 0 0 .924h1.3l-.166.996v.002H25.65a.461.461 0 1 0 0 .923h.98l-.17 1.028a8.148 8.148 0 0 1-.964.512l-.236.097a6.754 6.754 0 0 1-.608.206l-.083.024a6.832 6.832 0 0 1-1.766.232 6.803 6.803 0 0 1-1.923-.28 13.241 13.241 0 0 1-.549-.187 8.265 8.265 0 0 1-.788-.367c-.035-.019-.07-.035-.105-.055-.019-.01-.039-.023-.057-.03l-.002-.002a6.847 6.847 0 0 1-.418-.266v-.005l-.152-.908Zm4.18 11.15a6.863 6.863 0 0 1-5.93-3.453l.878-.328c1.152-.434 1.896-1.407 1.896-2.48v-2.465c.79.328 1.642.529 2.532.579.013 0 .026.003.039.004.091.007.186.008.28.01.04 0 .079.005.119.005l.027-.002h.04a7.13 7.13 0 0 0 1.273-.116c.043-.007.085-.017.127-.026.164-.032.327-.065.488-.107.014-.005.023-.005.037-.01l.016-.005c.032-.008.063-.018.095-.027.083-.024.166-.048.248-.074.01-.004.019-.004.028-.009.036-.011.072-.027.108-.04.129-.043.256-.09.383-.141l.058-.022.063-.029c.117-.049.234-.096.348-.15v2.625c0 1.071.743 2.045 1.897 2.479l.876.327a6.857 6.857 0 0 1-5.926 3.454Zm16.469.954v.208c0 .406-.102.798-.29 1.144-.149.291-.36.55-.62.762l-1.693 1.084-1.69-1.084a2.443 2.443 0 0 1-.909-1.906v-2.543l.093-.047 1.13-.563 1.376-.687 2.603 1.297v2.335Z" fill="#A68FF1"/><path d="M36.066 36.102a.465.465 0 0 0-.655 0 .46.46 0 0 0 0 .65l.784.785a.462.462 0 0 0 .651 0l1.195-1.195.42-.42a.465.465 0 0 0 0-.651.445.445 0 0 0-.36-.13.424.424 0 0 0-.295.13l-.457.457-.83.83-.453-.456Z" fill="#A68FF1"/></svg>