<svg width="46" height="46" fill="none" xmlns="http://www.w3.org/2000/svg"><path d="M15.31 11.786c-1.469 3.474-6.438 3.555-6.488 3.555a.443.443 0 0 0 .003.885h.003c.228-.001 5.6-.082 7.297-4.096a.442.442 0 1 0-.814-.344Z" fill="#9E85F0"/><path d="M43.683 17.81 32.65 8.498c-1.652-1.394-4.1-1.249-5.459.325-.076.088-.149.18-.218.275-1.043 1.448-1.012 3.464.025 4.97-.45.246-1.163.508-2.016.375a2.956 2.956 0 0 1-.688-.201l.103-3.52a2.56 2.56 0 0 0 1.367-2.261 2.566 2.566 0 0 0-5.132 0c0 .846.415 1.594 1.05 2.06l.108 3.687c-.226.101-.479.19-.77.235-.854.133-1.565-.13-2.016-.375 1.037-1.506 1.068-3.522.024-4.97a4.08 4.08 0 0 0-.217-.275c-1.358-1.574-3.806-1.72-5.458-.326L2.317 17.81a.443.443 0 0 0 .16.762 16.39 16.39 0 0 0 5.69.64 16.41 16.41 0 0 0 3.986-.752 6.297 6.297 0 0 1-1.774 1.644c-1.065.649-2.11.815-2.8.924-.62.098-1.153.183-1.196.701-.018.22.083.432.299.63.71.647 2.976 1.365 5.215.974a7.581 7.581 0 0 0 3.12-1.343 4.885 4.885 0 0 1-1.022 1.74c-.377.405-.763.672-1.074.887-.422.291-.821.567-.695 1.038.038.143.146.342.447.488.271.133.694.208 1.183.208a5.2 5.2 0 0 0 2-.403c.87-.373 1.619-1.033 2.169-1.908a.443.443 0 0 0-.75-.47c-.453.722-1.064 1.263-1.768 1.565-.821.353-1.732.374-2.198.29l.115-.08c.328-.226.777-.536 1.22-1.013.826-.89 1.348-2.063 1.552-3.486a.442.442 0 0 0-.75-.376c-.752.745-2.004 1.695-3.701 1.993-1.774.31-3.419-.174-4.139-.543l.111-.017c.76-.121 1.909-.303 3.123-1.043 1.13-.689 2.058-1.714 2.761-3.05a.442.442 0 0 0-.559-.615 15.53 15.53 0 0 1-4.93 1.134 15.524 15.524 0 0 1-4.577-.39l10.388-8.766c1.282-1.083 3.175-.98 4.218.228.06.07.117.14.17.215.902 1.251.78 3.049-.287 4.273a.44.44 0 0 0 .07.647c.423.312 1.568 1.013 3.061.782a3.92 3.92 0 0 0 .662-.165l.23 7.866c-.715-.283-1.397-.567-2.043-.947a2.61 2.61 0 0 1-.801-.711c.07-.015.141-.03.212-.055.562-.194 1.048-.672 1.331-1.311.507-1.143.214-2.403-.666-2.87a1.523 1.523 0 0 0-1.223-.079c-.562.194-1.047.672-1.33 1.312-.497 1.116-.223 2.343.613 2.832.263.814.904 1.342 1.415 1.644.758.447 1.565.772 2.353 1.081-.11.053-.219.105-.326.162-1.705.904-2.845 2.33-3.128 3.911-.252 1.408.196 2.803 1.296 4.035.736.824 1.62 1.44 2.495 2.02-.533.366-1.128.812-1.509 1.477-.473.826-.509 1.889-.097 2.844.38.883 1.096 1.527 1.914 1.724a.438.438 0 0 0 .262-.02.44.44 0 0 0 .162.032h.128a.446.446 0 0 0 .162-.032.435.435 0 0 0 .262.02c.817-.196 1.532-.84 1.913-1.724.413-.954.377-2.018-.096-2.844-.38-.664-.977-1.11-1.51-1.477.876-.58 1.76-1.196 2.496-2.02 1.1-1.232 1.547-2.627 1.295-4.035-.283-1.581-1.423-3.007-3.127-3.911-.108-.057-.217-.109-.326-.162.788-.31 1.595-.634 2.354-1.081.51-.302 1.151-.83 1.414-1.643.836-.49 1.11-1.717.613-2.833-.283-.64-.768-1.117-1.33-1.312a1.524 1.524 0 0 0-1.223.08c-.88.466-1.173 1.726-.666 2.869.283.64.768 1.117 1.33 1.311.071.025.142.04.213.055a2.609 2.609 0 0 1-.802.71c-.645.382-1.327.665-2.043.948l.23-7.839c.18.058.373.106.58.138 1.49.231 2.637-.47 3.06-.782a.441.441 0 0 0 .07-.647c-1.067-1.225-1.188-3.022-.287-4.272.054-.075.111-.147.171-.216 1.043-1.208 2.935-1.311 4.219-.228l10.386 8.765a15.508 15.508 0 0 1-4.577.39 15.532 15.532 0 0 1-4.93-1.134.443.443 0 0 0-.56.616c.704 1.335 1.633 2.36 2.762 3.049 1.214.74 2.363.922 3.123 1.043l.112.017c-.721.368-2.366.852-4.14.543-1.696-.298-2.949-1.248-3.7-1.993a.443.443 0 0 0-.75.377c.203 1.422.726 2.595 1.552 3.485.443.477.891.787 1.22 1.013l.114.08c-.464.083-1.375.064-2.198-.29-.703-.302-1.314-.843-1.768-1.566a.443.443 0 0 0-.75.471c.55.876 1.3 1.535 2.169 1.908a5.202 5.202 0 0 0 2 .403c.488 0 .912-.075 1.184-.207.3-.146.408-.346.446-.488.127-.471-.272-.747-.695-1.039-.31-.214-.697-.482-1.074-.887a4.884 4.884 0 0 1-1.022-1.74 7.58 7.58 0 0 0 3.12 1.344c2.24.39 4.505-.328 5.216-.976.216-.197.316-.408.299-.63-.043-.517-.577-.602-1.196-.7-.69-.11-1.736-.275-2.8-.924a6.304 6.304 0 0 1-1.774-1.644c1.29.414 2.626.666 3.985.752a16.392 16.392 0 0 0 5.69-.64.442.442 0 0 0 .16-.762h.002ZM20.41 31.432c-.912-1.021-1.287-2.159-1.085-3.289.232-1.293 1.23-2.522 2.672-3.285.033-.018.069-.034.103-.052l.241 8.236c-.707-.48-1.368-.979-1.931-1.61Zm1.041 6.58c-.302-.7-.282-1.468.053-2.054.217-.38.545-.677.895-.94l.12 4.126c-.448-.19-.837-.597-1.068-1.131Zm3.128-2.054c.335.586.355 1.354.052 2.055-.23.534-.62.94-1.068 1.131l.12-4.125c.351.262.678.56.896.94Zm-.493-11.1c1.442.763 2.44 1.992 2.672 3.285.202 1.13-.173 2.268-1.085 3.29-.563.63-1.224 1.129-1.931 1.61l.241-8.236c.034.017.07.032.103.05Z" fill="#9E85F0"/><path d="M37.429 16.227h.003a.442.442 0 0 0 .003-.885c-.05 0-5.016-.073-6.489-3.556a.442.442 0 0 0-.815.345c1.698 4.014 7.07 4.094 7.298 4.096Z" fill="#9E85F0"/></svg>