<svg width="46" height="46" fill="none" xmlns="http://www.w3.org/2000/svg"><path d="M39.373 14.405v-.001l-.003-.006c-.01-.024-.024-.048-.036-.072-.018-.022-.036-.044-.058-.067l-.018-.017-6.625-6.626-.005-.003a.444.444 0 0 0-.156-.096l-.034-.012h-.009a.158.158 0 0 0-.044-.009c-.013-.005-.026-.004-.039-.005-.01 0-.017-.006-.027-.006H8.789A2.2 2.2 0 0 0 6.59 9.683v19.67a2.2 2.2 0 0 0 2.198 2.196h15.627l-2.689 4.658a.442.442 0 0 0 .42.662l2.766-.23 1.184 2.505c.07.148.218.246.382.252h.018a.442.442 0 0 0 .383-.22l2.756-4.775 2.755 4.774a.43.43 0 0 0 .401.22.443.443 0 0 0 .382-.252l1.181-2.504 2.765.23a.44.44 0 0 0 .42-.663l-2.688-4.657h2.357a2.2 2.2 0 0 0 2.197-2.197v-14.77l.002-.008a.44.44 0 0 0-.035-.168Zm-6.612-5.409 5.135 5.135h-5.135V8.996Zm-6.225 29.008-.955-2.019a.432.432 0 0 0-.436-.251l-2.229.184 2.237-3.874v.001a5.91 5.91 0 0 0 3.676 1.986l-2.292 3.973Zm3.2-4.8h-.015c-.01 0-.02-.004-.03-.003l-.03.003h-.02l-.058-.003c-.011-.001-.02.002-.031.003h-.029a5.078 5.078 0 0 1-4.03-2.146c0-.004-.004-.004-.004-.009-.008-.015-.022-.032-.032-.052l-.01-.016-.002-.002-.009-.01a5.052 5.052 0 0 1-.862-2.825 5.065 5.065 0 0 1 5.06-5.06c2.79 0 5.06 2.269 5.06 5.06 0 1.048-.32 2.027-.87 2.835-.007.009-.011.018-.018.028l-.002.003c-.004.004-.004.009-.009.013-.008.009-.013.013-.013.018 0 0 0 .004-.004.004a5.067 5.067 0 0 1-4.034 2.159h-.009Zm6.616 2.714-2.229-.184a.43.43 0 0 0-.436.251l-.951 2.017-2.293-3.971a5.93 5.93 0 0 0 3.671-1.986l.002-.002 2.236 3.875Zm2.17-6.565c0 .723-.589 1.312-1.313 1.312h-2.193c.358-.765.562-1.62.562-2.521a5.952 5.952 0 0 0-5.945-5.945 5.952 5.952 0 0 0-5.944 5.945c0 .902.203 1.756.561 2.52H8.79a1.313 1.313 0 0 1-1.313-1.311V9.683c0-.724.589-1.312 1.313-1.312h23.087v6.203c0 .243.2.442.443.442h6.203v14.337Z" fill="#9E85F0"/><path d="M29.634 31.302a3.158 3.158 0 1 0 0-6.316 3.158 3.158 0 0 0 0 6.316ZM14.772 18.97a3.916 3.916 0 1 0-.003-7.835 3.916 3.916 0 0 0 .003 7.835Zm-1.57-4.361h1.128v-1.123c0-.248.195-.443.442-.443a.44.44 0 0 1 .443.443v1.123h1.123a.44.44 0 0 1 .442.442.44.44 0 0 1-.442.443h-1.123v1.128c0 .243-.2.442-.443.442a.44.44 0 0 1-.442-.442v-1.128h-1.128a.444.444 0 0 1-.442-.443c0-.243.199-.442.442-.442Zm15.43-1.885h-7.234a.442.442 0 1 0 0 .884h7.234a.442.442 0 1 0 0-.884Zm0 3.772h-7.234a.442.442 0 1 0 0 .885h7.234a.442.442 0 1 0 0-.885Zm-7.824 5.043H11.38a.442.442 0 1 0 0 .885h9.427a.442.442 0 1 0 0-.885Zm-2.056 4.984c-.271.197-.517.264-.753.204-.486-.124-.876-.752-.985-.982a.443.443 0 0 0-.697-.142l-.79.715c-.714-1.08-1.318-1.296-1.635-1.322-1.265-.1-2.11.544-2.992 2.31a.442.442 0 1 0 .792.395c.886-1.774 1.49-1.877 2.128-1.823.137.011.622.274 1.22 1.343a.444.444 0 0 0 .683.112l.788-.713c.26.364.684.812 1.264.963.344.088.884.101 1.497-.344a.442.442 0 1 0-.52-.716Z" fill="#9E85F0"/></svg>