<svg width="45" height="44" fill="none" xmlns="http://www.w3.org/2000/svg"><path d="M31.534 30.866a.423.423 0 0 0-.68-.503c-.2.272-.51.427-.85.427-.34 0-.648-.155-.849-.427a.423.423 0 0 0-.68.503c.356.482.928.77 1.53.77a1.91 1.91 0 0 0 1.53-.77Z" fill="#A68FF1"/><path d="m34.771 35.255-2.238-.663a.599.599 0 0 1-.48-.585v-1.19a4.12 4.12 0 0 0 2.083-3.588v-.887h.188c.233 0 .424-.19.424-.423v-2.226c0-2.149-1.752-3.9-3.905-3.9h-4.917a.419.419 0 0 0-.423.423c0 .465.165.91.47 1.26-.783.466-.783 1.706-.783 2.437v2.006c0 .232.19.423.423.423.09 0 .174-.004.258-.017h.001v.904a4.12 4.12 0 0 0 2.083 3.588v1.19c0 .283-.201.53-.516.594l-2.165.645a3.268 3.268 0 0 0-2.613 3.194v.677a.423.423 0 1 0 .846 0v-.677c0-1.144.814-2.139 1.972-2.374l1.04-.31c.081.104 1.348 1.691 3.326 1.791.065.004.13.005.195.005 1.229 0 2.436-.594 3.595-1.753l.933.276a2.42 2.42 0 0 1 1.935 2.364v.678a.423.423 0 1 0 .846 0v-.677c0-1.545-1.1-2.889-2.576-3.185h-.002Zm-7.998-5.429a3.323 3.323 0 0 1-.054-.597v-1.21c.092-.058.181-.121.257-.189.537-.444.876-1.138.93-1.887h4.24v.474c0 .584.258 1.13.715 1.498.009.004.017.012.026.017.126.097.258.177.401.24l.003.002v1.055a3.281 3.281 0 0 1-3.286 3.285 3.281 3.281 0 0 1-3.232-2.688Zm3.122 6.876c-1.178-.056-2.076-.808-2.478-1.213l.227-.068a1.447 1.447 0 0 0 1.158-1.414v-.828a4.13 4.13 0 0 0 1.203.181c.418 0 .82-.065 1.203-.181v.827c0 .685.487 1.28 1.121 1.405l.37.11c-.93.826-1.87 1.228-2.804 1.18Z" fill="#A68FF1"/><path d="M24.503 32.564a.423.423 0 0 0-.423-.422h-.002l-14.312.062-1.248-9.159a2.196 2.196 0 0 1 2.175-2.49h10.23c.54 0 1.023-.343 1.203-.852l.822-2.331a.43.43 0 0 1 .404-.287h9.913c.658 0 1.276.292 1.694.8.419.509.586 1.17.46 1.816l-.476 2.433a.424.424 0 0 0 .83.163l.476-2.433a3.03 3.03 0 0 0-.637-2.516 3.03 3.03 0 0 0-2.347-1.108h-9.913c-.54 0-1.023.342-1.202.85l-.822 2.332a.43.43 0 0 1-.404.287H10.693a3.04 3.04 0 0 0-3.013 3.45l1.297 9.528c.029.21.208.366.42.366h.001l14.683-.063a.423.423 0 0 0 .422-.425v-.001Z" fill="#A68FF1"/><path d="M11.627 26.65a3.78 3.78 0 0 0 3.777 3.774 3.777 3.777 0 0 0 3.774-3.774 3.777 3.777 0 0 0-3.774-3.774 3.78 3.78 0 0 0-3.777 3.774Zm4.2-1.515v1.092h1.088a.424.424 0 0 1 0 .846h-1.087v1.087c0 .237-.19.423-.423.423a.419.419 0 0 1-.423-.423v-1.087H13.89a.424.424 0 0 1-.423-.423c0-.233.19-.423.423-.423h1.091v-1.092a.424.424 0 0 1 .846 0Zm-5.695-6.694a.423.423 0 0 0 .423-.423V9.924c0-.502.464-.91 1.035-.91h18.835c.57 0 1.035.408 1.035.91v4.562a.423.423 0 1 0 .846 0V9.924c0-.969-.844-1.756-1.88-1.756H13.043V6.339c0-.57.465-1.032 1.037-1.032h18.835c.57 0 1.033.463 1.033 1.032v7.818a.423.423 0 1 0 .846 0V6.339a1.88 1.88 0 0 0-1.879-1.879H14.081a1.883 1.883 0 0 0-1.883 1.879v1.828h-.608c-1.038 0-1.881.788-1.881 1.757v8.094c0 .233.19.423.423.423Z" fill="#A68FF1"/><path d="M24.681 11.514a.423.423 0 0 0-.423-.423H13.712a.423.423 0 1 0 0 .846h10.547c.233 0 .423-.19.423-.423ZM13.712 13.92a.423.423 0 1 0 0 .846h6.998a.423.423 0 1 0 0-.846h-6.998Z" fill="#A68FF1"/></svg>