<svg width="44" height="44" fill="none" xmlns="http://www.w3.org/2000/svg"><path d="M38.965 37.071H36.5V19.02h.93c.233 0 .423-.19.423-.423v-3.284a.423.423 0 0 0-.357-.418l-6.9-1.095V9.828h.83a.423.423 0 0 0 .424-.423v-2.9a.423.423 0 0 0-.423-.423H12.573a.423.423 0 0 0-.423.423v2.9c0 .234.19.424.423.424h.83V13.8l-6.9 1.094a.423.423 0 0 0-.357.418v3.284c0 .233.19.423.423.423h.93v18.052H5.035a.423.423 0 1 0 0 .846h33.93a.423.423 0 1 0 0-.846Zm-25.561 0H8.345V19.02h5.059v18.052Zm0-18.898H6.992v-2.5l6.412-1.015v3.515Zm8.173 17.054H18.18v-7.64h3.397v7.64Zm4.243 0h-3.397v-7.64h3.397v7.64Zm3.93-21.065v22.91H28.1V35.65a.423.423 0 0 0-.423-.423h-1.01v-8.063a.423.423 0 0 0-.424-.423h-8.486a.423.423 0 0 0-.423.423v8.063h-1.011a.423.423 0 0 0-.424.423v1.421H14.25V9.83h15.5v4.333Zm.846.495 6.412 1.017v2.499h-6.412v-3.515Zm5.059 22.414h-5.06V19.02h5.06v18.052Z" fill="#A68FF1"/><path d="M22 20.799a4.424 4.424 0 0 0 4.42-4.42 4.424 4.424 0 0 0-4.42-4.42 4.424 4.424 0 0 0-4.42 4.42 4.424 4.424 0 0 0 4.42 4.42Zm0-7.993a3.577 3.577 0 0 1 3.573 3.573A3.577 3.577 0 0 1 22 19.952a3.577 3.577 0 0 1-3.573-3.573A3.577 3.577 0 0 1 22 12.806Z" fill="#A68FF1"/><path d="M20.368 16.802h1.209v1.208a.423.423 0 0 0 .846 0v-1.208h1.208a.423.423 0 0 0 0-.846h-1.208v-1.208a.423.423 0 0 0-.846 0v1.208h-1.209a.423.423 0 0 0 0 .846Zm-8.529 4.124h-2.02v3.55h2.02v-3.55Zm0 5.344h-2.02v3.55h2.02v-3.55Zm0 5.612h-2.02v3.55h2.02v-3.55Zm22.249-10.956H32.07v3.55h2.02v-3.55Zm0 5.344H32.07v3.55h2.02v-3.55Zm0 5.612H32.07v3.55h2.02v-3.55Z" fill="#A68FF1"/></svg>