<svg width="24" height="24" fill="none" xmlns="http://www.w3.org/2000/svg"><path d="m13.39 5.157 1.41 2.839c.19.392.7.765 1.13.845l2.55.423c1.63.272 2.01 1.46.84 2.648l-1.99 2.003c-.33.333-.52.987-.41 1.46l.57 2.477c.45 1.953-.59 2.718-2.3 1.691l-2.39-1.43c-.43-.261-1.15-.261-1.58 0l-2.39 1.43c-1.71 1.017-2.75.262-2.3-1.691l.57-2.477c.09-.483-.1-1.137-.43-1.47l-1.99-2.003c-1.17-1.178-.79-2.366.84-2.648l2.55-.423c.43-.07.94-.453 1.13-.845l1.41-2.84c.77-1.53 2.01-1.53 2.78.01Z" fill="#A68FF1"/></svg>