<svg width="51" height="51" fill="none" xmlns="http://www.w3.org/2000/svg"><g clip-path="url(#a)" fill="#A68FF1"><path d="M21.6 27.595a.77.77 0 0 0-1.54 0v8.867a9.389 9.389 0 0 1-5.685 8.633L5.693 48.83a2.86 2.86 0 0 1-2.665-.195 2.862 2.862 0 0 1-1.373-2.292C1.1 37.12 2.563 29.465 6.003 23.59c3.015-5.148 7.017-7.94 9.845-9.38a2.88 2.88 0 0 1 2.827.112 2.88 2.88 0 0 1 1.383 2.47v3.46c-2.858 2.146-6.53 5.956-6.773 11.49a.769.769 0 0 0 .735.803h.035c.41 0 .75-.323.768-.735.28-6.407 5.837-10.31 8.212-11.69a3.342 3.342 0 0 0 1.655-2.88V.77a.77.77 0 0 0-1.54 0v16.475c0 .635-.34 1.23-.89 1.547-.203.118-.425.253-.665.403v-2.4c0-1.555-.793-2.97-2.117-3.783a4.406 4.406 0 0 0-4.33-.172c-3.013 1.533-7.273 4.505-10.478 9.973C1.075 28.954-.457 36.903.118 46.434a4.388 4.388 0 0 0 2.102 3.512 4.403 4.403 0 0 0 2.32.665c.593 0 1.19-.122 1.763-.367l8.682-3.735A10.924 10.924 0 0 0 21.6 36.463v-8.868Zm24.345-4.782c-3.203-5.468-7.465-8.443-10.477-9.973a4.406 4.406 0 0 0-4.33.172 4.409 4.409 0 0 0-2.118 3.783v2.172a8.24 8.24 0 0 0-.297-.174 1.797 1.797 0 0 1-.89-1.548V.77a.77.77 0 0 0-1.54 0v16.475c0 1.182.634 2.285 1.655 2.88 2.375 1.38 7.932 5.282 8.212 11.69a.77.77 0 0 0 .768.735h.035a.767.767 0 0 0 .734-.802c-.252-5.776-4.242-9.675-7.142-11.76v-3.19a2.88 2.88 0 0 1 1.383-2.47 2.88 2.88 0 0 1 2.827-.113c2.828 1.438 6.832 4.233 9.847 9.38 3.44 5.875 4.905 13.53 4.348 22.752a2.862 2.862 0 0 1-1.373 2.293 2.863 2.863 0 0 1-2.665.195L36.24 45.1a9.391 9.391 0 0 1-5.685-8.633V27.6a.77.77 0 0 0-1.54 0v8.867c0 4.376 2.598 8.32 6.615 10.048l8.682 3.735a4.466 4.466 0 0 0 1.763.367c.805 0 1.602-.224 2.32-.664a4.384 4.384 0 0 0 2.102-3.513c.575-9.532-.957-17.48-4.554-23.622l.002-.006Z"/><path d="M33.538 33.365a.77.77 0 0 0 .762.778h.008a.77.77 0 0 0 .77-.763c.064-6.547-4.068-10.01-6.538-11.49a5.923 5.923 0 0 0-3.047-.84c-1.078 0-2.13.29-3.048.84-2.47 1.48-6.603 4.943-6.537 11.49a.77.77 0 0 0 .77.763h.007a.77.77 0 0 0 .763-.778c-.058-5.78 3.602-8.843 5.79-10.153a4.372 4.372 0 0 1 2.255-.62c.797 0 1.577.216 2.255.62 2.187 1.31 5.847 4.373 5.79 10.153ZM7.185 41.977a1.101 1.101 0 1 0 0-2.205c-.61 0-1.102.493-1.102 1.103s.492 1.102 1.102 1.102Zm4.665-1.102a1.1 1.1 0 0 0 1.103 1.102 1.1 1.1 0 0 0 1.102-1.102 1.1 1.1 0 0 0-1.102-1.102c-.61 0-1.103.492-1.103 1.102Zm-2.153-8.097a1.1 1.1 0 0 0-1.102 1.102 1.101 1.101 0 1 0 2.205 0 1.1 1.1 0 0 0-1.103-1.102ZM4.98 34.485a1.1 1.1 0 0 0-1.102 1.102 1.101 1.101 0 1 0 2.205 0c0-.61-.493-1.102-1.103-1.102Zm4.717-9.135c-.61 0-1.102.493-1.102 1.103s.492 1.102 1.102 1.102a1.101 1.101 0 1 0 0-2.205Zm5.461-4.632a1.103 1.103 0 1 0-2.205 0 1.103 1.103 0 0 0 2.205 0Zm20.67 19.054a1.101 1.101 0 1 0 2.205 0c0-.61-.493-1.102-1.103-1.102s-1.102.492-1.102 1.102Zm6.575 3.925a1.101 1.101 0 1 0 2.205 0c0-.61-.493-1.102-1.103-1.102s-1.102.492-1.102 1.102Zm.637-9.212a1.1 1.1 0 0 0-1.102 1.102 1.101 1.101 0 1 0 2.205 0c0-.61-.493-1.102-1.103-1.102Zm-.638-9.135c-.61 0-1.102.493-1.102 1.103s.492 1.102 1.102 1.102a1.101 1.101 0 1 0 0-2.205Zm-3.264-4.632a1.103 1.103 0 1 0-2.205 0 1.103 1.103 0 0 0 2.205 0Zm5.47-9.023a1.1 1.1 0 0 0 1.102-1.103 1.1 1.1 0 0 0-1.102-1.102 1.101 1.101 0 1 0 0 2.205Zm-7.123-3.532c.61 0 1.102-.493 1.102-1.103s-.492-1.102-1.102-1.102a1.101 1.101 0 1 0 0 2.205ZM45.71 4.27c.61 0 1.102-.493 1.102-1.103s-.492-1.102-1.102-1.102a1.1 1.1 0 0 0-1.102 1.102c0 .61.492 1.103 1.102 1.103Zm2.205 14.21a1.1 1.1 0 0 0 1.102-1.102 1.101 1.101 0 1 0-2.205 0c0 .61.493 1.102 1.103 1.102ZM15.158 7.622a1.103 1.103 0 1 0 0-2.205 1.103 1.103 0 0 0 0 2.205ZM7.493 4.27c.61 0 1.102-.493 1.102-1.103s-.492-1.102-1.102-1.102a1.101 1.101 0 1 0 0 2.205Zm0 8.527a1.103 1.103 0 1 0 0-2.205 1.103 1.103 0 0 0 0 2.205Zm23.399 34.016a1.1 1.1 0 0 0-1.102 1.102 1.1 1.1 0 0 0 1.102 1.102 1.101 1.101 0 1 0 0-2.205Zm-9.454 0a1.101 1.101 0 1 0 0 2.205c.61 0 1.102-.493 1.102-1.103s-.492-1.102-1.102-1.102Zm4.902-4.836c-.61 0-1.102.493-1.102 1.103s.492 1.102 1.102 1.102a1.103 1.103 0 0 0 0-2.205ZM2.435 6.52a1.102 1.102 0 1 0 .002-2.204 1.102 1.102 0 0 0-.002 2.204ZM1.332 19.582a1.101 1.101 0 1 0 0-2.205c-.61 0-1.102.493-1.102 1.103s.492 1.102 1.102 1.102Z"/></g><defs><clipPath id="a"><path fill="#fff" d="M0 0h50.617v50.612H0z"/></clipPath></defs></svg>