<svg width="52" height="41" fill="none" xmlns="http://www.w3.org/2000/svg"><g clip-path="url(#a)" fill="#A68FF1"><path d="M50.996 38.935h-.212v-4.77a.8.8 0 0 0-.935-.785l-3.358.593-2.625-1.703a.798.798 0 0 0-.405-.127l-27.21-.995a.783.783 0 0 0-.547.192l-2.785 2.39-1.693-.065-.597-2.015a.796.796 0 0 0-.763-.57h-3.71c-1.147 0-2.182.528-2.915 1.485-.6.785-.96 1.825-.96 2.788 0 1.282.815 2.75 1.985 3.582H1.001a.795.795 0 0 0 0 1.59h49.995a.795.795 0 0 0 0-1.59ZM45.89 35.48c.17.11.372.15.572.115l2.733-.482v3.822H16.016l.895-6.17 2.985.11v3.673c0 .44.358.795.795.795h9.34c.44 0 .795-.358.795-.795v-3.273l12.358.453 2.702 1.752h.003Zm-24.4-2.547 7.747.282v2.535H21.49v-2.817Zm-15.33-.26h3.115l.59 1.992a.797.797 0 0 0 .732.57l2.575.098c.2.007.398-.06.55-.193l1.41-1.212-.725 5v.005h-2.17l-2.66-1.808a.8.8 0 0 0-.94.033c-.01.007-1.105.85-2.432.85-1.155 0-2.328-1.545-2.328-2.658 0-1.112.793-2.68 2.283-2.68v.003Zm2.965 6.072.28.19h-.628a6.86 6.86 0 0 0 .348-.19Zm8.589-9.213h.012c.435 0 .79-.35.795-.785l.098-6.955v-.012c0-.585.375-1.095.935-1.273l4.442-1.427a.796.796 0 0 0 .55-.69l.158-1.833v-.067c.05-.23 0-.478-.163-.673-.262-.317-.495-.745-.515-.887l-.05-.388a2.872 2.872 0 0 0-.28-.925l-.047-.095a1.281 1.281 0 0 1-.135-.577v-1.608c0-1.15.935-2.085 2.085-2.085s2.085.935 2.085 2.085v1.535c0 .228-.06.453-.175.65-.195.335-.32.703-.37 1.088l-.04.317c-.02.16-.273.615-.54.918-.023.025-.038.052-.058.08a.785.785 0 0 0-.235.632l.158 1.833c.027.32.245.592.55.69l4.445 1.427c.557.178.932.688.932 1.273v.012l.1 6.955a.797.797 0 0 0 .795.785h.013a.796.796 0 0 0 .785-.807l-.098-6.95a2.912 2.912 0 0 0-2.04-2.783l-3.937-1.265-.085-.982c.232-.295.715-.975.797-1.613l.04-.32c.023-.172.078-.337.165-.487.258-.44.393-.943.393-1.453v-1.535A3.682 3.682 0 0 0 25.6 7.66a3.682 3.682 0 0 0-3.677 3.677v1.608c0 .445.105.89.305 1.29l.047.095c.065.13.108.27.125.415l.05.387c.068.523.423 1.095.658 1.428l-.1 1.167-3.935 1.265a2.917 2.917 0 0 0-2.043 2.785l-.097 6.95c-.005.44.345.8.785.808l-.005-.003Zm18-22.834c1.087 1.245 2.697 2.655 4.527 3.97 1.833 1.315 3.683 2.387 5.21 3.02.975.402 1.768.605 2.385.605.56 0 .973-.168 1.25-.5 3.01-3.225.933-8.735.843-8.97a.795.795 0 0 0-1.485.573c.015.04 1.255 3.347.33 5.894-.22-.332-.495-.692-.83-1.075-1.088-1.245-2.698-2.655-4.528-3.97-1.832-1.315-3.682-2.387-5.21-3.02a11.11 11.11 0 0 0-1.135-.402c1.145-.845 3.125-1.683 6.115-.958a.796.796 0 1 0 .378-1.547c-3.263-.795-5.548.025-6.89.85-1.478.907-2.17 2.03-2.198 2.077l-.007.013c-.495.78-.088 1.902 1.25 3.432l-.005.008Zm6.772.842c3.338 2.395 4.97 4.403 5.268 5.17-.82-.035-3.245-.94-6.583-3.335-3.337-2.395-4.972-4.402-5.267-5.17.82.035 3.245.94 6.585 3.335h-.003Zm-40.58 6.253c.278.332.693.5 1.25.5.618 0 1.408-.203 2.385-.605 1.528-.633 3.378-1.706 5.21-3.02 1.833-1.315 3.44-2.725 4.528-3.97 1.337-1.53 1.745-2.655 1.25-3.433-.003-.005-.005-.01-.008-.012-.027-.048-.722-1.17-2.197-2.078C12.98.348 10.696-.47 7.434.325a.796.796 0 1 0 .377 1.548c3.008-.733 4.985.107 6.125.955a9.82 9.82 0 0 0-1.145.405c-1.527.632-3.377 1.705-5.21 3.02-1.832 1.315-3.44 2.725-4.527 3.97a9.82 9.82 0 0 0-.83 1.074c-.925-2.547.315-5.854.33-5.894a.798.798 0 0 0-1.487-.572c-.09.232-2.168 5.741.842 8.969l-.003-.008ZM8.51 7.54c3.337-2.395 5.762-3.3 6.585-3.335-.298.765-1.93 2.773-5.268 5.17-3.337 2.395-5.762 3.3-6.582 3.335.297-.765 1.93-2.772 5.267-5.17H8.51Z"/></g><defs><clipPath id="a"><path fill="#fff" transform="translate(.206)" d="M0 0h51.587v40.528H0z"/></clipPath></defs></svg>