<svg width="49" height="48" fill="none" xmlns="http://www.w3.org/2000/svg"><g clip-path="url(#a)" fill="#A68FF1"><path d="M9.563 30.297a6.429 6.429 0 0 1 1.927-4.542 6.487 6.487 0 0 1 4.583-1.872H19.5a8.77 8.77 0 0 0 6.102-2.47 8.887 8.887 0 0 0 2.73-5.96.764.764 0 0 0-.76-.8h-1.037c-3.785 0-6.863-3.063-6.863-6.828V.863a.76.76 0 1 0-1.52 0v6.965c0 4.602 3.76 8.347 8.386 8.347h.192a7.38 7.38 0 0 1-2.18 4.142 7.255 7.255 0 0 1-5.047 2.046h-3.428c-2.13 0-4.137.82-5.65 2.31a7.938 7.938 0 0 0-2.345 4.925C3.498 30.22 0 34.153 0 38.832v7.665a.76.76 0 1 0 1.52 0v-7.665c0-4.108 3.22-7.525 7.328-7.783a.76.76 0 0 0 .712-.75l.002-.003Z"/><path d="M44.44 25.997c.388-1.52.588-3.092.588-4.677v-5.553a8.62 8.62 0 0 0-2.583-6.182 8.794 8.794 0 0 0-6.215-2.538h-.492c-2.766 0-5.18 1.215-6.693 3.348h-1.1a3.505 3.505 0 0 1-3.503-3.502V.76a.76.76 0 1 0-1.52 0v6.133a5.03 5.03 0 0 0 5.026 5.022h1.507c.26 0 .503-.132.643-.352C31.302 9.66 33.36 8.57 35.742 8.57h.492c1.947 0 3.775.745 5.148 2.098a7.107 7.107 0 0 1 2.13 5.1v5.552a17.44 17.44 0 0 1-.39 3.663 12.092 12.092 0 0 0-6.69-2.015c-6.706 0-12.158 5.454-12.158 12.157 0 1.242.188 2.44.535 3.568-.02 0-.037-.005-.057-.005H16.38a6.708 6.708 0 0 1-5.952-3.62.758.758 0 0 0-.8-.398 6.152 6.152 0 0 0-5.16 6.085v5.742a.76.76 0 1 0 1.52 0v-5.742a4.63 4.63 0 0 1 3.38-4.47 8.215 8.215 0 0 0 7.01 3.925h8.372c.21 0 .402-.085.54-.225 1.88 4.293 6.165 7.3 11.142 7.3 6.706 0 12.158-5.455 12.158-12.157 0-3.636-1.605-6.9-4.143-9.13h-.007Zm-8.015 19.768c-5.865 0-10.637-4.773-10.637-10.638S30.56 24.49 36.425 24.49s10.638 4.773 10.638 10.637c0 5.865-4.773 10.638-10.638 10.638Z"/><path d="M31.425 32.552a2.09 2.09 0 0 0 2.088-2.087c0-1.15-.938-2.088-2.088-2.088-1.15 0-2.088.938-2.088 2.088 0 1.15.938 2.087 2.088 2.087Zm0-2.655a.569.569 0 0 1 0 1.135.569.569 0 0 1 0-1.135Zm4.908 2.655a2.09 2.09 0 0 0 2.087-2.087c0-1.15-.938-2.088-2.087-2.088-1.15 0-2.088.938-2.088 2.088 0 1.15.938 2.087 2.088 2.087Zm0-2.655a.569.569 0 0 1 0 1.135.569.569 0 0 1 0-1.135Zm4.907 2.655a2.09 2.09 0 0 0 2.088-2.087c0-1.15-.938-2.088-2.088-2.088-1.15 0-2.087.938-2.087 2.088a2.09 2.09 0 0 0 2.087 2.087Zm0-2.655a.569.569 0 0 1 0 1.135.569.569 0 0 1 0-1.135Zm-9.815 7.583a2.09 2.09 0 0 0-2.088 2.088c0 1.15.938 2.087 2.088 2.087 1.15 0 2.088-.938 2.088-2.087 0-1.15-.938-2.088-2.088-2.088Zm0 2.655a.569.569 0 0 1 0-1.135.569.569 0 0 1 0 1.135Zm4.908-2.655a2.09 2.09 0 0 0-2.088 2.088c0 1.15.938 2.087 2.088 2.087 1.15 0 2.087-.938 2.087-2.087 0-1.15-.938-2.088-2.087-2.088Zm0 2.655a.569.569 0 0 1 0-1.135.569.569 0 0 1 0 1.135Zm4.907-2.655a2.09 2.09 0 0 0-2.087 2.088 2.09 2.09 0 0 0 2.087 2.087c1.15 0 2.088-.938 2.088-2.087 0-1.15-.938-2.088-2.088-2.088Zm0 2.655a.569.569 0 0 1 0-1.135.569.569 0 0 1 0 1.135Zm-10.225-5.22a2.09 2.09 0 0 0-2.087-2.087c-1.15 0-2.088.937-2.088 2.087 0 1.15.938 2.088 2.088 2.088 1.15 0 2.087-.938 2.087-2.088Zm-2.087.568a.569.569 0 0 1 0-1.135.569.569 0 0 1 0 1.135Zm6.997-.568a2.09 2.09 0 0 0-2.087-2.087c-1.15 0-2.088.937-2.088 2.087 0 1.15.938 2.088 2.087 2.088 1.15 0 2.088-.938 2.088-2.088Zm-2.087.568a.569.569 0 0 1 0-1.135.569.569 0 0 1 0 1.135Zm9.889-2.655a2.09 2.09 0 0 0-2.087 2.087c0 1.15.937 2.088 2.087 2.088 1.15 0 2.088-.938 2.088-2.088 0-1.15-.938-2.087-2.088-2.087Zm0 2.655a.569.569 0 0 1 0-1.135.569.569 0 0 1 0 1.135Zm-2.894-.568a2.09 2.09 0 0 0-2.088-2.087 2.09 2.09 0 0 0-2.087 2.087c0 1.15.937 2.088 2.087 2.088 1.15 0 2.088-.938 2.088-2.088Zm-2.088.568a.569.569 0 0 1 0-1.135.569.569 0 0 1 0 1.135Z"/></g><defs><clipPath id="a"><path fill="#fff" d="M0 0h48.583v47.285H0z"/></clipPath></defs></svg>