<svg width="44" height="43" fill="none" xmlns="http://www.w3.org/2000/svg"><g clip-path="url(#a)" fill="#A68FF1"><path d="M21.383 8.735A3.922 3.922 0 0 0 25.3 4.818 3.922 3.922 0 0 0 21.382.9a3.922 3.922 0 0 0-3.917 3.918 3.922 3.922 0 0 0 3.918 3.917Zm0-6.432a2.517 2.517 0 0 1 2.515 2.515 2.517 2.517 0 0 1-2.515 2.515 2.517 2.517 0 0 1-2.515-2.515 2.517 2.517 0 0 1 2.515-2.515ZM17.295 14.29l-.363 3.935a.701.701 0 0 0 .636.762c.022 0 .042.003.064.003a.7.7 0 0 0 .698-.637l.36-3.936a.701.701 0 1 0-1.398-.127h.003Zm8.033-.635a.7.7 0 0 0-.66.74l.222 3.935c.02.373.33.663.7.663h.04a.7.7 0 0 0 .66-.74l-.222-3.935a.703.703 0 0 0-.74-.66v-.003Zm-3.643 12.283a.7.7 0 0 0-.7.7V41.78a.7.7 0 0 0 1.4 0V26.637a.7.7 0 0 0-.7-.7Z"/><path d="M14.715 18.692a.704.704 0 0 0 .813-.567l.907-5.115s0-.01.002-.015a3.128 3.128 0 0 1 2.308-2.55l1.122-.293a.701.701 0 1 0-.352-1.357l-1.123.292a4.525 4.525 0 0 0-3.337 3.686l-.908 5.11a.7.7 0 0 0 .568.812v-.003Zm8.843-9.897a.701.701 0 1 0-.353 1.357l1.123.293a3.131 3.131 0 0 1 2.307 2.55v.015l.908 5.115a.7.7 0 0 0 .812.567.702.702 0 0 0 .568-.812l-.908-5.11a4.532 4.532 0 0 0-3.337-3.685l-1.123-.293.003.003Z"/><path d="M30.225 14.2a.701.701 0 0 0-.198 1.388c4.853.69 5.98 1.7 6.018 1.927 0 .008-.293.83-4.008 1.587-2.77.566-6.432.878-10.307.878s-7.537-.313-10.308-.878c-3.712-.757-4.005-1.58-4.007-1.582.035-.227 1.142-1.223 5.892-1.915a.702.702 0 0 0-.202-1.388c-2.013.293-3.698.693-4.873 1.153-.55.215-2.22.873-2.22 2.147 0 1.276 1.62 2.22 4.955 2.923.813.17 1.7.32 2.646.445l-.658 3.702-.008.05a2.108 2.108 0 0 0 2.103 2.333c.65 0 1.252-.302 1.648-.793l1.43 15.613a.7.7 0 0 0 .697.638c.023 0 .043 0 .065-.003a.703.703 0 0 0 .635-.762l-1.667-18.195.152-1.67a.822.822 0 0 0 .012-.135l.036-.375a72.112 72.112 0 0 0 7 .017l.12 2.117-1.428 18.256a.7.7 0 0 0 .645.752h.055a.7.7 0 0 0 .697-.648l1.22-15.612a2.12 2.12 0 0 0 1.968.772 2.11 2.11 0 0 0 1.785-2.307c0-.018-.005-.033-.008-.05l-.647-3.652a37.337 37.337 0 0 0 3.025-.495c3.332-.703 4.955-1.66 4.955-2.923 0-1.52-2.43-2.635-7.223-3.318l.003.003ZM15.75 25.005a.71.71 0 0 1-1.405-.203l.665-3.752c.537.055 1.088.105 1.65.148l-.035.387-.867 3.387-.008.028v.005Zm12.983-.2a.712.712 0 0 1-1.406.203c0-.005 0-.01-.002-.018l-.808-3.395a.62.62 0 0 0-.042-.12l-.015-.25a62.67 62.67 0 0 0 1.613-.133l.66 3.713ZM1.075 1.402h5.982a.7.7 0 0 0 0-1.4H1.075a.697.697 0 0 0-.7.698c0 .385.315.7.7.7v.002Zm0 2.898h2.99a.7.7 0 0 0 0-1.4h-2.99a.7.7 0 0 0 0 1.4ZM42.763 0H36.78a.7.7 0 0 0 0 1.4h5.983a.7.7 0 0 0 0-1.4Zm-2.99 2.897h-2.99a.7.7 0 0 0 0 1.4h2.99a.7.7 0 0 0 0-1.4ZM6.683 33.555H.7a.7.7 0 0 0 0 1.4h5.982a.7.7 0 0 0 0-1.4Zm-2.991 2.897H.7a.7.7 0 0 0 0 1.4h2.992a.7.7 0 0 0 0-1.4ZM2.523 5.843a.7.7 0 0 0-.7.7v2.242c0 .185.075.365.205.495l4.625 4.625a.699.699 0 0 0 .99 0 .7.7 0 0 0 0-.992L3.225 8.494V6.543a.7.7 0 0 0-.7-.7h-.002Zm34.585 0a.7.7 0 0 0-.7.7v1.952l-3.258 3.258a.7.7 0 1 0 .99.992l3.462-3.462a.698.698 0 0 0 .206-.495V6.545a.7.7 0 0 0-.7-.7v-.002Z"/><path d="m7.415 21.785-5.76 5.76a.698.698 0 0 0-.205.495v3.272a.7.7 0 0 0 1.4 0v-2.98l5.555-5.555a.7.7 0 0 0 0-.992.705.705 0 0 0-.992 0h.002Z"/></g><defs><clipPath id="a"><path fill="#fff" d="M0 0h43.465v42.483H0z"/></clipPath></defs></svg>