<svg width="40" height="40" fill="none" xmlns="http://www.w3.org/2000/svg"><path d="M16.682 17.5a6.667 6.667 0 1 0 0-13.333 6.667 6.667 0 0 0 0 13.333Z" fill="#A68FF1"/><path d="M24.317 22c0 .133-.05.267-.15.35-.062.05-.104.068-.184.117a5.6 5.6 0 0 0-1.65 1.35c-1.316 1.616-1.8 3.9-1.333 6.266.383 1.95 1.417 3.6 2.617 4.9a.52.52 0 0 1 .15.35c0 .284-.234.5-.5.5H10c-3.817 0-5.833-2-5.833-5.8 0-4.25 2.4-9.2 9.166-9.2H20c1.533 0 2.833.25 3.933.684 0 0 .384.123.384.483Z" fill="#B8E1EE"/><path d="M36.548 29.603c-.868 4.407-6.541 6.944-6.541 6.944s-5.672-2.539-6.542-6.944c-.534-2.703.631-5.423 3.595-5.436 2.207-.01 2.947 2.176 2.947 2.176s.74-2.186 2.946-2.176c2.968.015 4.128 2.733 3.595 5.436Z" fill="#A68FF1"/></svg>