<svg width="40" height="40" fill="none" xmlns="http://www.w3.org/2000/svg"><path d="M27.5 12.5h-3.333c-3.69 0-5 2.702-5 5.015 0 2.108 1.215 3.318 3.335 3.318h6.663c2.118 0 3.335-1.21 3.335-3.318 0-2.313-1.31-5.015-5-5.015Z" fill="#B8E1EE"/><path d="M25.842 10a3.75 3.75 0 1 0 0-7.5 3.75 3.75 0 0 0 0 7.5Z" fill="#A68FF1"/><path d="M14.167 29.167h-3.334c-3.69 0-5 2.701-5 5.015 0 2.108 1.215 3.318 3.335 3.318h6.664c2.118 0 3.335-1.21 3.335-3.318 0-2.314-1.31-5.015-5-5.015Z" fill="#B8E1EE"/><path d="M12.508 26.667a3.75 3.75 0 1 0 0-7.5 3.75 3.75 0 0 0 0 7.5Zm-7.506-6.909a1.249 1.249 0 0 1-1.243-1.385c.603-5.53 3.94-10.29 8.924-12.736a1.25 1.25 0 0 1 1.802 1.123v5.083a1.25 1.25 0 0 1-2.5 0V8.942c-3.207 2.23-5.308 5.733-5.742 9.705a1.25 1.25 0 0 1-1.241 1.111Zm21.765 14.919a1.252 1.252 0 0 1-1.25-1.25v-5.084a1.25 1.25 0 0 1 2.5 0v2.902a13.56 13.56 0 0 0 5.741-9.705 1.25 1.25 0 1 1 2.483.272 16.056 16.056 0 0 1-8.924 12.736 1.255 1.255 0 0 1-.55.129Z" fill="#A68FF1"/></svg>