<svg width="40" height="40" fill="none" xmlns="http://www.w3.org/2000/svg"><path d="M35 14.583c-.69 0-1.25-.56-1.25-1.25V7.5c0-.982-.268-1.25-1.25-1.25h-5.833a1.25 1.25 0 0 1 0-2.5H32.5c2.348 0 3.75 1.402 3.75 3.75v5.833c0 .69-.56 1.25-1.25 1.25Zm-28.75-1.25V7.5c0-.982.268-1.25 1.25-1.25h5.833a1.25 1.25 0 0 0 0-2.5H7.5c-2.348 0-3.75 1.402-3.75 3.75v5.833a1.25 1.25 0 0 0 2.5 0ZM14.583 35c0-.69-.56-1.25-1.25-1.25H7.5c-.982 0-1.25-.268-1.25-1.25v-5.833a1.25 1.25 0 0 0-2.5 0V32.5c0 2.348 1.402 3.75 3.75 3.75h5.833c.69 0 1.25-.56 1.25-1.25Zm21.667-2.5v-5.833a1.25 1.25 0 0 0-2.5 0V32.5c0 .982-.268 1.25-1.25 1.25h-5.833a1.25 1.25 0 0 0 0 2.5H32.5c2.348 0 3.75-1.402 3.75-3.75Z" fill="#B8E1EE"/><path d="M20.01 18.612a4.729 4.729 0 0 0 4.723-4.722 4.728 4.728 0 0 0-4.723-4.722 4.726 4.726 0 0 0-4.722 4.722 4.726 4.726 0 0 0 4.722 4.722Z" fill="#A68FF1"/><path d="M22.222 21.112h-4.445c-4.445 0-5.555 3.333-5.555 5.575 0 2.201 1.111 3.313 3.336 3.313h8.884c2.225 0 3.336-1.112 3.336-3.313 0-2.21-1.111-5.575-5.556-5.575Z" fill="#B8E1EE"/></svg>