<svg width="48" height="48" fill="none" xmlns="http://www.w3.org/2000/svg"><path d="M42.612 37.364c-.005-.031-.008-.061-.018-.09-.01-.028-.026-.052-.041-.078a.441.441 0 0 0-.05-.072c-.019-.022-.042-.038-.066-.056-.024-.018-.046-.036-.072-.049-.028-.014-.058-.02-.089-.027-.021-.006-.04-.018-.063-.02-.01-.002-.017.002-.025.002-.009-.001-.016-.006-.025-.006h-7.82l.319-4.313 2.147-1.797h4.352a.462.462 0 0 0 0-.922H37.21l.87-4.15a.462.462 0 0 0-.904-.19l-.953 4.549-2.045 1.711-2.867-1.8-.538-.788 1.882-2.873a.46.46 0 1 0-.772-.505l-1.673 2.553-1.252-1.838a.462.462 0 0 0-.763.52l1.916 2.81h-2.452a.462.462 0 0 0 0 .924h3.192l2.886 1.81-.318 4.299H15.436c-.005 0-.01-.003-.014-.003-.005 0-.01.002-.014.003h-2.395c-.312-1.093-1.237-3.83-1.279-3.955a.462.462 0 0 0-.288-.289l-3.061-1.048c1.75-1.852 3.576-4.253 3.66-4.364a.462.462 0 0 0-.735-.558c-.02.027-1.93 2.538-3.673 4.37-.339-.57-.927-1.567-1.627-2.782a.461.461 0 1 0-.8.46c1.1 1.908 1.934 3.299 1.942 3.313.011.02.03.033.044.05.01.013.014.027.026.038.005.006.013.008.018.013a.461.461 0 0 0 .095.063c.018.01.033.022.052.029.004.002.007.005.012.006l3.533 1.21c.21.625.822 2.455 1.12 3.444H5.61c-.01 0-.018.004-.028.005-.011 0-.022-.004-.034-.002-.024.003-.043.016-.065.022-.026.008-.052.014-.075.026a.445.445 0 0 0-.084.056c-.02.016-.039.03-.055.05a.457.457 0 0 0-.056.082c-.012.022-.025.043-.034.068a.441.441 0 0 0-.02.1c-.002.018-.01.035-.01.054 0 .01.004.018.005.028 0 .01-.004.02-.002.032.148 1.112.646 3.193 1.353 4.044.392.473.914.744 1.471.764h.067c.546 0 1.072-.236 1.488-.672.121-.127.229-.269.33-.417.092.12.186.232.28.328.543.54 1.205.767 1.86.767a3.192 3.192 0 0 0 2.315-1.029c.396.29.864.59 1.358.786.412.156.857.234 1.313.234a4.2 4.2 0 0 0 1.225-.185c.521-.173 1.002-.523 1.411-1 .374.266.782.446 1.22.534.198.04.4.059.6.059.834 0 1.669-.337 2.338-.937.422.431.893.75 1.408.941a3.76 3.76 0 0 0 1.303.236c.267 0 .557-.03.855-.113a3.11 3.11 0 0 0 1.306-.747c.18.162.37.307.574.423a2.758 2.758 0 0 0 1.371.36c1.191 0 2.078-.764 2.18-.856.105-.093.2-.19.289-.289.243.177.498.325.77.436.258.104.737.257 1.316.257.506 0 1.088-.117 1.666-.484.021-.013.037-.03.057-.043.575.62 1.263.967 1.983.984.102 0 .203 0 .31-.007 1.182-.084 2.049-.76 2.467-1.366.522-.767.854-1.782.987-3.018 0-.009-.003-.016-.002-.025 0-.009.005-.016.005-.025 0-.023-.01-.043-.014-.066Zm-33.75 3.624c-.247.26-.554.4-.853.386-.295-.01-.57-.159-.794-.43-.429-.516-.85-1.88-1.065-3.053h3.828c-.182 1.152-.46 2.41-1.115 3.097Zm5.021-.623c-.166.218-.34.395-.533.543-.709.547-1.815.713-2.555-.022a3.583 3.583 0 0 1-.458-.61c.28-.721.443-1.533.562-2.296l.014-.089h3.942c-.187.85-.452 1.795-.972 2.474Zm5.286-.175a.447.447 0 0 0-.03.052l-.005.005c-.348.498-.767.838-1.201.982-.66.202-1.345.19-1.925-.03-.394-.155-.788-.41-1.131-.66.471-.78.72-1.708.902-2.545l.02-.103h4.22c-.131.869-.42 1.674-.85 2.299Zm4.798-1.24a2.963 2.963 0 0 1-.519.842c-.643.753-1.572 1.114-2.424.946-.31-.062-.6-.192-.87-.384.41-.71.688-1.561.807-2.463h3.227a3.077 3.077 0 0 1-.221 1.06Zm4.318 1.178a.448.448 0 0 0-.028.04c-.058.069-.12.133-.178.194a2.167 2.167 0 0 1-.977.578c-.74.203-1.447-.044-1.586-.097-.41-.153-.786-.417-1.126-.778.17-.242.323-.495.432-.768a4 4 0 0 0 .292-1.406h3.972c-.065.872-.347 1.67-.8 2.237Zm4.33-.317c-.12.18-.268.346-.452.51-.008.007-.807.713-1.764.61-.25-.025-.485-.1-.72-.231a2.394 2.394 0 0 1-.436-.33c.44-.685.71-1.554.77-2.479h3.319c-.103.731-.344 1.4-.716 1.92Zm4.022.103a2.054 2.054 0 0 1-.31.233c-.881.56-1.795.293-2.143.154a2.783 2.783 0 0 1-.583-.342 5.395 5.395 0 0 0 .658-2.069h3.523c-.213.843-.613 1.562-1.145 2.023Zm4.238.061c-.281.408-.914.906-1.767.967-.083.005-.165.004-.237.005-.449-.011-.898-.246-1.295-.665.554-.612.953-1.438 1.154-2.39h2.898c-.143.845-.391 1.551-.753 2.083Z" fill="#A68FF1"/><path d="M42.164 21.99h-.845c-.99.005-1.982.018-2.972.036-3.774.067-7.548.117-11.322.167l-.67.008c-.848.011-1.81.024-2.701.343-1.669.596-1.146 2.72-.892 3.748.09.365.195.731.302 1.098.33 1.138.641 2.212.503 3.314a3.999 3.999 0 0 1-1.771 2.82c-.835.555-1.901.837-2.993.802-.575-.02-1.64-.162-2.316-.883-.397-.423-.656-1.033-.792-1.865-.242-1.473-.035-2.985.197-4.407l.107-.638c.092-.542.183-1.086.257-1.631.068-.5.194-1.428-.487-2.092-.544-.531-1.361-.582-1.8-.61-3.027-.186-5.88.085-8.483.807a.462.462 0 0 0 .247.89c2.503-.695 5.255-.954 8.179-.774.442.027.937.079 1.212.348.291.284.3.694.218 1.307-.073.536-.163 1.069-.253 1.602l-.107.643c-.245 1.497-.462 3.094-.198 4.704.167 1.02.504 1.787 1.03 2.347.669.714 1.72 1.131 2.957 1.175.075.002.15.003.226.003 1.206 0 2.375-.337 3.31-.96a4.92 4.92 0 0 0 2.176-3.473c.162-1.291-.191-2.509-.532-3.686-.103-.355-.206-.709-.294-1.068-.279-1.13-.508-2.36.308-2.652.746-.266 1.588-.278 2.402-.289l.671-.009c3.775-.05 7.55-.1 11.326-.166.986-.018 1.972-.032 2.959-.036h.841a.462.462 0 0 0 0-.924Z" fill="#A68FF1"/><path d="M18.038 32.571c.379.2.847.302 1.327.302.85 0 1.736-.324 2.218-1.011 1-1.426.309-3.64-.148-5.104a11.483 11.483 0 0 1-.239-.827c-.824-3.783-1.027-8.722 7.056-19.496a.462.462 0 0 0-.694-.605c-5.561 5.505-9.007 11.445-10.24 17.655-.673 3.386-1.33 8.011.72 9.086ZM14.97 17.93c.106.023.21.034.312.034.644 0 1.216-.438 1.451-1.145.113-.34.131-.669.15-.987.004-.082.009-.165.016-.248.016-.21.015-.421.014-.633 0-.191-.002-.383.014-.574.034-.402.117-.799.246-1.18.166-.487.41-.975.748-1.49.398-.607.906-1.223 1.553-1.883.349-.356.724-.71 1.145-1.081a.462.462 0 0 0-.556-.733c-2.541 1.648-4.317 3.634-5.28 5.902-.303.717-.534 1.33-.676 1.99-.06.285-.122.66-.06 1.046.081.515.418.872.924.982Z" fill="#A68FF1"/><path d="M25.273 13.815c-.606 1.428-1.194 3.155-.363 3.838.235.193.58.31.924.31.31 0 .62-.095.852-.313.594-.557.498-1.536.434-2.184-.012-.124-.023-.23-.024-.308-.01-1.114-.029-2.977 4.125-6.638a.462.462 0 0 0-.556-.733c-2.596 1.685-4.41 3.713-5.392 6.028ZM5.89 20.572c.04.004.397.044.928.044.272 0 .59-.01.934-.041h8.895a.462.462 0 0 0 .038-.921c-.716-.06-1.417-.35-2.095-.631-1.27-.526-2.707-1.122-4.318-.129-.787.486-1.765.684-2.587.758H5.94a.462.462 0 0 0-.053.92h.001Zm36.962-.459c0-.024-.01-.044-.013-.067-.005-.03-.007-.06-.018-.09-.01-.028-.026-.051-.041-.076a.465.465 0 0 0-.049-.073c-.02-.022-.043-.038-.067-.056-.024-.018-.046-.036-.073-.05-.027-.013-.057-.019-.088-.026-.022-.006-.041-.018-.065-.02-.628-.065-.963-.369-1.352-.72-.39-.353-.832-.753-1.554-.784-.651-.022-1.303.278-1.992.602-.817.383-1.662.774-2.644.742-1.07-.041-1.793-.5-2.492-.943-.658-.418-1.337-.85-2.225-.85h-.018c-.719.005-1.154.263-1.613.537-.392.232-.835.495-1.61.725-1.476.437-2.898.706-3.707.688h-.008a.45.45 0 0 0-.26.09.444.444 0 0 0-.201.365v.007c0 .03.011.055.016.083.006.031.007.064.02.093.01.027.03.048.046.072.016.026.03.054.051.076.02.02.046.031.069.047.025.018.048.04.077.053.026.011.057.012.085.018.03.007.058.02.09.02h19.176c.022 0 .04-.01.061-.013.034-.005.068-.008.1-.02.024-.009.044-.022.066-.035.029-.017.057-.033.082-.056.02-.018.035-.04.052-.063a.404.404 0 0 0 .051-.076c.013-.027.02-.057.027-.087.006-.023.018-.042.02-.065.002-.009-.002-.016-.002-.024s.005-.015.005-.024h-.002Z" fill="#A68FF1"/></svg>