<svg width="48" height="48" fill="none" xmlns="http://www.w3.org/2000/svg"><path d="m20.47 28.426 2.17 1.614a.461.461 0 0 0 .552-.741l-2.15-1.598A3 3 0 0 0 21.434 26l-.01-.11v-.005l2.678-.942a.461.461 0 1 0-.306-.87l-2.561.901a3.038 3.038 0 0 0-1.152-1.447l1.596-1.812a.462.462 0 0 0-.693-.61l-1.771 2.01h-.001c-.032-.014-.07-.023-.102-.032a5.019 5.019 0 0 1-3.304-2.81l2.604-.765a.462.462 0 0 0-.26-.886l-2.649.778a4.773 4.773 0 0 1-.138-.853 5.072 5.072 0 0 1 .713-2.97l2.666 1.088a.458.458 0 0 0 .601-.253.462.462 0 0 0-.252-.602l-2.452-1 .002-.002a5.035 5.035 0 0 1 1.79-1.283 3.12 3.12 0 0 0 1.21-.9l.002-.003 1.086.865a.462.462 0 1 0 .575-.722l-1.182-.941c.165-.41.239-.857.206-1.313l-.013-.199a2.944 2.944 0 0 0-.175-.825l1.867-.987a.462.462 0 1 0-.431-.817l-1.884.996a3.104 3.104 0 0 0-.79-.72 2.939 2.939 0 0 0-1.14-.43h-.002l-.165-2.332a.461.461 0 1 0-.92.065l.16 2.276a3.156 3.156 0 0 0-.6.17c-.498.2-.978.43-1.43.693l-1.303-2.3a.462.462 0 0 0-.803.456l1.322 2.332-.001.001a10.937 10.937 0 0 0-1.87 1.606l-.001.002-1.805-1.941a.462.462 0 0 0-.676.628l1.877 2.019c-.517.65-.955 1.356-1.31 2.108l-2.54-.997a.46.46 0 1 0-.338.86l2.513.986c-.355.936-.59 1.927-.683 2.951l-2.684-.087a.478.478 0 0 0-.475.447.461.461 0 0 0 .446.476l2.667.086c-.01.314 0 .632.023.95.042.557.12 1.105.24 1.635l-2.507.428a.46.46 0 1 0 .155.91l2.583-.44c.263.85.619 1.662 1.067 2.414v.004l-2.183 1.22a.462.462 0 0 0 .45.806l2.233-1.248.002.003a10.95 10.95 0 0 0 1.473 1.69l-1.684 2.143a.46.46 0 1 0 .726.57l1.659-2.11a10.84 10.84 0 0 0 2.065 1.306l-.427 2.896a.461.461 0 1 0 .912.135l.391-2.646c.461.18.945.332 1.438.451a2.945 2.945 0 0 0 2.603-.623c.037-.032.074-.06.106-.101h.001Zm-.422-.89a2.064 2.064 0 0 1-.28.286 2.012 2.012 0 0 1-1.79.433 10.628 10.628 0 0 1-1.783-.607c-.006-.004-.015-.005-.022-.008-.03-.014-.062-.027-.088-.04a10.328 10.328 0 0 1-6-8.681A10.32 10.32 0 0 1 16.58 8.566c.235-.092.47-.143.715-.148h.024c.005 0 .008.003.013.003l.033-.001.003-.001c.363.01.722.116 1.044.318a2.1 2.1 0 0 1 .724.755v.003l.002.003a2.1 2.1 0 0 1 .262.877l.014.199c.027.406-.07.803-.259 1.15a2.219 2.219 0 0 1-1.08.95A5.95 5.95 0 0 0 15.55 14.7a.388.388 0 0 0-.051.074 5.976 5.976 0 0 0-.766 5.294c0 .003.001.006.004.009l.005.016.001.01c.002.006.006.01.009.017.005.018.01.038.018.053a5.988 5.988 0 0 0 4.107 3.799c.11.028.217.064.318.11l.003.002a2.135 2.135 0 0 1 1.272 1.564c.014.073.023.142.027.216l.014.199a2.096 2.096 0 0 1-.461 1.472l-.002.001Z" fill="#A68FF1"/><path d="M17.864 25.305a.858.858 0 1 0 .12 1.713.858.858 0 0 0-.12-1.713Zm-2.894-1.683a.858.858 0 1 0 .122 1.713.858.858 0 0 0-.122-1.713Zm-1.84-2.704a.858.858 0 1 0 .122 1.713.858.858 0 0 0-.121-1.713Zm.267-2.755a.858.858 0 1 0-1.712.121.858.858 0 0 0 1.712-.12Zm-.853-4.39a.859.859 0 1 0 1.297 1.125.859.859 0 0 0-1.297-1.125Zm3.211-1.533a.859.859 0 1 0 0-1.717.859.859 0 0 0 0 1.717Zm25.777 18.49-2.702-.378c.115-.816.147-1.65.087-2.493l2.764-1.106a.461.461 0 1 0-.343-.857l-2.531 1.014v-.002c-.07-.457-.172-.914-.3-1.367a3.08 3.08 0 0 0-1.925-2.067.783.783 0 0 0-.139-.042l.31-2.763a.462.462 0 0 0-.917-.103l-.305 2.719h-.001c-.61 0-1.21.184-1.731.54l-.065.041-.002.002-2.197-1.87a.462.462 0 0 0-.598.704l2.111 1.795v.001a3.128 3.128 0 0 0-.684 1.754v.002l-2.42-.477a.461.461 0 1 0-.178.906l2.672.526c.01.046.018.087.032.128a5.145 5.145 0 0 1-.784 4.337l-2.012-1.904a.462.462 0 0 0-.635.67l2.047 1.936a5.08 5.08 0 0 1-.688.56 5.033 5.033 0 0 1-2.981.89l-.409-2.899a.462.462 0 0 0-.914.129l.403 2.858a3.102 3.102 0 0 0-1.437.788l-2.742-1.995a.46.46 0 1 0-.543.747l2.717 1.976-.001.002c-.134.24-.24.503-.31.78-.078.31-.106.623-.087.933v.001l-3.411.305a.462.462 0 0 0 .082.92l3.515-.314c.101.294.253.57.447.828.133.18.286.341.456.484l.004.003a.456.456 0 0 0-.112.181l-.875 2.888a.462.462 0 0 0 .883.267l.865-2.851h.002c.35.158.734.25 1.13.264a13.636 13.636 0 0 0 1.348-.032l.426 2.753a.461.461 0 1 0 .912-.141l-.422-2.728h.003a11.032 11.032 0 0 0 2.948-.904l1.3 2.407a.461.461 0 1 0 .812-.439l-1.29-2.388h.001c.282-.158.559-.328.826-.513.471-.319.91-.67 1.316-1.048l1.663 1.987a.46.46 0 0 0 .65.057.462.462 0 0 0 .058-.65l-1.713-2.048a11.555 11.555 0 0 0 1.585-2.18l2.194 1.295a.462.462 0 1 0 .47-.795l-2.249-1.327a11.22 11.22 0 0 0 .738-2.168l2.75.384a.461.461 0 1 0 .128-.914h-.002Zm-8.107 6.645a10.422 10.422 0 0 1-6.314 1.823 2.157 2.157 0 0 1-1.652-.872 2.27 2.27 0 0 1-.388-.803v-.001l-.001-.004c-.005-.027-.009-.057-.018-.083a2.2 2.2 0 0 1 .023-1.002c.245-.987 1.131-1.684 2.123-1.684h.079a5.987 5.987 0 0 0 3.642-1.053c.424-.29.802-.632 1.13-1.006a.057.057 0 0 0 .013-.01l.01-.007.001-.003c.023-.022.037-.045.055-.067a6.062 6.062 0 0 0 1.232-5.507c-.235-.858.014-1.721.632-2.266.07-.055.139-.11.213-.161l.115-.079a2.163 2.163 0 0 1 3.3 1.205c.166.581.277 1.163.342 1.744a.61.61 0 0 0 .013.13 10.51 10.51 0 0 1-4.55 9.706Z" fill="#A68FF1"/><path d="M36.258 27.51a.872.872 0 1 0-.982-1.44.872.872 0 0 0 .982 1.44Zm-.98 1.958a.872.872 0 1 0 .982 1.441.872.872 0 0 0-.982-1.44Zm-1.432 2.997a.872.872 0 1 0 .982 1.44.872.872 0 0 0-.982-1.44Zm-2.783 2.385a.872.872 0 1 0 .982 1.442.872.872 0 0 0-.982-1.441Zm-3.093 1.28a.873.873 0 1 0-.323 1.715.873.873 0 0 0 .324-1.714Zm-4.44-18.884h.032l.992-.07a4 4 0 0 0 1.015 1.96l.002.002-.64.738a.462.462 0 0 0 .697.605l.654-.753a3.92 3.92 0 0 0 2.103.668h.002l.069.978c.017.243.22.429.46.429l.032-.001a.461.461 0 0 0 .428-.493l-.07-.986h.001a4.043 4.043 0 0 0 1.962-1.02V19.3l.738.64a.46.46 0 1 0 .605-.698l-.752-.652c.429-.641.65-1.37.664-2.104v-.002l.98-.07a.461.461 0 0 0-.064-.92l-.993.07v-.002a3.973 3.973 0 0 0-1.016-1.956l-.002-.002.643-.74a.462.462 0 0 0-.698-.605l-.65.75a3.984 3.984 0 0 0-2.108-.663l-.07-.98a.467.467 0 0 0-.492-.428.461.461 0 0 0-.428.493l.071.993a3.996 3.996 0 0 0-1.961 1.015h-.001l-.74-.64a.462.462 0 1 0-.604.697l.754.654a3.934 3.934 0 0 0-.669 2.104l-.977.07a.461.461 0 0 0 .032.921h-.001Zm5.002-.787a1.28 1.28 0 0 1 1.81-.125 1.28 1.28 0 0 1 .129 1.81 1.285 1.285 0 0 1-1.939-1.685ZM26.42 14.76a.84.84 0 1 1 1.269 1.103.842.842 0 1 1-1.27-1.103Zm-8.685 21.247-.919.023.634-.666a.462.462 0 1 0-.669-.636l-.633.665-.023-.919a.456.456 0 0 0-.472-.45.462.462 0 0 0-.45.473l.022.919-.666-.634a.462.462 0 1 0-.637.669l.666.633-.919.023a.462.462 0 0 0 .011.923h.011l.92-.023-.634.665a.462.462 0 0 0 .668.637l.634-.665.022.918c.007.251.212.45.462.45h.011a.462.462 0 0 0 .45-.472l-.022-.919.665.634a.458.458 0 0 0 .653-.017.462.462 0 0 0-.016-.652l-.666-.634.919-.023a.462.462 0 0 0 .45-.472.45.45 0 0 0-.472-.45Z" fill="#A68FF1"/></svg>