<svg width="138" height="90" fill="none" xmlns="http://www.w3.org/2000/svg"><path d="M127.374 1.086a10.603 10.603 0 0 0-10.642 10.627c0 1.46.265 2.876.818 4.152l-9.11 5.243c-1.49-1.552-3.531-2.524-5.887-2.524-2.356 0-4.317.919-5.801 2.421L79.025 10.784c.293-.817.515-1.703.515-2.638 0-4.514-3.683-8.152-8.205-8.152a8.139 8.139 0 0 0-8.157 8.152c0 .973.163 1.886.477 2.794L45.44 21.427c-1.49-1.74-3.672-2.849-6.142-2.849-4.522 0-8.221 3.643-8.221 8.135s3.433 7.87 7.728 8.146v19.287c-4.295.27-7.728 3.794-7.728 8.124 0 1.19.281 2.26.714 3.265l-12.76 7.357a10.486 10.486 0 0 0-8.357-4.157C4.783 68.735.011 73.502.011 79.362s4.777 10.627 10.664 10.627c5.888 0 10.665-4.773 10.665-10.627 0-1.6-.401-3.103-1.03-4.427l12.782-7.373c1.5 1.735 3.721 2.876 6.207 2.876a8.131 8.131 0 0 0 6.618-3.406L63.78 77.281a7.706 7.706 0 0 0-.595 3.032c0 4.498 3.612 8.173 8.156 8.173 4.544 0 8.205-3.675 8.205-8.173 0-1.021-.238-1.973-.568-2.88l17.336-10c1.479 1.805 3.754 3 6.245 3 4.517 0 8.2-3.644 8.2-8.168 0-3.973-2.844-7.26-6.597-8.011V34.708c3.753-.714 6.597-4.032 6.597-8.005a8.202 8.202 0 0 0-.883-3.644l8.904-5.14a10.585 10.585 0 0 0 8.595 4.389c5.855 0 10.632-4.768 10.632-10.622S133.234 1.06 127.374 1.06v.027Zm0 18.844a8.223 8.223 0 0 1-8.238-8.222c0-4.53 3.667-8.243 8.238-8.243a8.207 8.207 0 0 1 8.222 8.243 8.21 8.21 0 0 1-8.222 8.222Zm-19.037 6.794a5.779 5.779 0 0 1-5.784 5.795c-3.207 0-5.769-2.59-5.769-5.795s2.595-5.751 5.769-5.751c3.173 0 5.784 2.589 5.784 5.751Zm-5.784 41.346c-3.174 0-5.769-2.59-5.769-5.79s2.595-5.761 5.769-5.761c3.173 0 5.784 2.589 5.784 5.762 0 3.173-2.578 5.79-5.784 5.79ZM77.119 80.33c0 3.167-2.594 5.75-5.784 5.75s-5.768-2.588-5.768-5.75c0-3.163 2.572-5.79 5.768-5.79a5.784 5.784 0 0 1 5.784 5.79Zm-5.784-8.168c-2.595 0-4.848 1.222-6.353 3.097L46.984 64.908c.293-.816.493-1.703.493-2.616 0-3.854-2.697-7.054-6.272-7.92V34.67c3.575-.854 6.272-4.086 6.272-7.935a8.014 8.014 0 0 0-.71-3.287l18.063-10.4c1.506 1.973 3.856 3.287 6.505 3.287 2.648 0 5.102-1.34 6.618-3.39L95.365 22.99a7.593 7.593 0 0 0-.963 3.746c0 4.26 3.238 7.697 7.365 8.108v19.378c-4.127.406-7.365 3.844-7.365 8.07 0 1.12.216 2.195.628 3.163L77.8 75.362c-1.5-1.94-3.807-3.2-6.46-3.2h-.006Zm-32.041-4.087c-3.19 0-5.768-2.589-5.768-5.789 0-3.2 2.572-5.762 5.768-5.762 3.195 0 5.784 2.59 5.784 5.762 0 3.173-2.61 5.79-5.784 5.79Zm0-47.097c3.173 0 5.784 2.59 5.784 5.752s-2.61 5.794-5.784 5.794-5.768-2.59-5.768-5.794a5.735 5.735 0 0 1 5.768-5.752ZM65.567 8.151c0-3.2 2.572-5.773 5.768-5.773a5.774 5.774 0 1 1 0 11.546c-3.19 0-5.768-2.605-5.768-5.773ZM18.935 79.378c0 4.53-3.732 8.243-8.27 8.243-4.54 0-8.26-3.713-8.26-8.243s3.683-8.243 8.26-8.243c4.576 0 8.27 3.681 8.27 8.243Z" fill="#fff"/></svg>