<svg width="20" height="20" fill="none" xmlns="http://www.w3.org/2000/svg"><path fill-rule="evenodd" clip-rule="evenodd" d="M10 2.5a5 5 0 1 0 0 10 5 5 0 0 0 0-10Zm-6.667 5a6.667 6.667 0 1 1 13.334 0 6.667 6.667 0 0 1-13.334 0Z" fill="#28525C"/><path fill-rule="evenodd" clip-rule="evenodd" d="M10 12.5c.46 0 .833.373.833.833v5.834a.833.833 0 0 1-1.666 0v-5.834c0-.46.373-.833.833-.833Z" fill="#28525C"/><path fill-rule="evenodd" clip-rule="evenodd" d="M13.333 16.667c0 .46-.373.833-.833.833h-5a.833.833 0 1 1 0-1.667h5c.46 0 .833.373.833.834Z" fill="#28525C"/></svg>