<svg width="24" height="24" fill="none" xmlns="http://www.w3.org/2000/svg"><g clip-path="url(#a)"><path d="M12 24c6.627 0 12-5.373 12-12S18.627 0 12 0 0 5.373 0 12s5.373 12 12 12Z" fill="#F0F0F0"/><path d="M2.48 4.693A11.956 11.956 0 0 0 .414 8.87h6.243L2.481 4.693Zm21.107 4.176a11.957 11.957 0 0 0-2.067-4.176L17.344 8.87h6.243ZM.413 15.13a11.958 11.958 0 0 0 2.068 4.176l4.175-4.176H.413ZM19.305 2.48A11.957 11.957 0 0 0 15.13.413v6.242l4.175-4.175ZM4.694 21.518a11.96 11.96 0 0 0 4.175 2.067v-6.242l-4.175 4.175ZM8.87.413A11.957 11.957 0 0 0 4.693 2.48l4.175 4.175V.413Zm6.26 23.172a11.96 11.96 0 0 0 4.175-2.067l-4.175-4.175v6.242Zm2.214-8.455 4.176 4.176a11.957 11.957 0 0 0 2.067-4.176h-6.243Z" fill="#0052B4"/><path d="M23.898 10.435H13.565V.102a12.12 12.12 0 0 0-3.13 0v10.333H.102a12.12 12.12 0 0 0 0 3.13h10.333v10.333a12.12 12.12 0 0 0 3.13 0V13.565h10.333a12.12 12.12 0 0 0 0-3.13Z" fill="#D80027"/><path d="m15.13 15.131 5.355 5.355c.247-.246.481-.504.706-.77l-4.585-4.585H15.13Zm-6.26 0-5.355 5.355c.246.246.503.481.77.705l4.585-4.584V15.13Zm0-6.261v-.001L3.513 3.514c-.246.246-.48.504-.705.77L7.394 8.87h1.475Zm6.26 0 5.355-5.355a11.996 11.996 0 0 0-.77-.705L15.13 7.395V8.87Z" fill="#D80027"/></g><defs><clipPath id="a"><path fill="#fff" d="M0 0h24v24H0z"/></clipPath></defs></svg>