<svg width="32" height="32" fill="none" xmlns="http://www.w3.org/2000/svg"><path d="M14.696 1.862v9.128c0 2.253-1.786 4.083-3.98 4.083H5.378c-1 0-1.815-.836-1.815-1.862 0-1.026.815-1.864 1.815-1.864h5.338c.186 0 .35-.166.35-.357V1.862C11.066.836 11.881 0 12.881 0s1.815.836 1.815 1.862ZM31.36 13.22c0 1.027-.815 1.862-1.815 1.862h-8.899c-2.196 0-3.98-1.832-3.98-4.082V5.524c0-1.026.815-1.862 1.815-1.862s1.815.836 1.815 1.862V11c0 .19.164.357.35.357h8.899c1 0 1.815.835 1.815 1.864Zm-3.561 5.571c0 1.026-.815 1.862-1.815 1.862h-5.338a.363.363 0 0 0-.35.357v9.128c0 1.026-.815 1.862-1.815 1.862s-1.815-.836-1.815-1.862V21.01c0-2.25 1.786-4.083 3.98-4.083h5.338c1 0 1.815.836 1.815 1.864Z" fill="#A68FF1"/><path d="M14.696 21.01v5.475c0 1.026-.814 1.862-1.815 1.862-1 0-1.815-.836-1.815-1.862V21.01a.363.363 0 0 0-.35-.357H1.815c-1 0-1.815-.836-1.815-1.862 0-1.026.815-1.864 1.815-1.864h8.899c2.196 0 3.98 1.832 3.98 4.083h.002Z" fill="#C1E9F5"/><path d="M8.041 10.257c1.062 0 1.923-.883 1.923-1.972S9.103 6.313 8.04 6.313c-1.061 0-1.922.883-1.922 1.972 0 1.09.86 1.972 1.922 1.972Zm17.138-1.952c0 1.087-.862 1.971-1.922 1.971s-1.922-.884-1.922-1.971c0-1.088.862-1.972 1.922-1.972s1.922.884 1.922 1.972Z" fill="#A68FF1"/><path d="M9.968 23.759c0 1.087-.862 1.971-1.922 1.971s-1.922-.884-1.922-1.971c0-1.087.862-1.972 1.922-1.972s1.922.885 1.922 1.972Z" fill="#C1E9F5"/><path d="M25.179 23.759c0 1.087-.862 1.971-1.922 1.971s-1.922-.884-1.922-1.971c0-1.087.862-1.972 1.922-1.972s1.922.885 1.922 1.972Z" fill="#A68FF1"/></svg>