<svg width="144" height="34" fill="none" xmlns="http://www.w3.org/2000/svg"><path fill-rule="evenodd" clip-rule="evenodd" d="M0 11.5c6.3 0 11.407-5.107 11.407-11.407h11C22.407 12.468 12.375 22.5 0 22.5v-11Z" fill="#A68FF1"/><path fill-rule="evenodd" clip-rule="evenodd" d="M33.813 22.5c-6.3 0-11.406 5.107-11.406 11.407h-11c0-12.375 10.032-22.407 22.406-22.407v11Z" fill="#B8E1EE"/><path d="M65.498 5.497h3.798v22.69h-3.798v-9.953h-10.98v9.952H50.72V5.497h3.797v9.114h10.981V5.497Zm19.15 6.851h3.607v15.838h-3.607V26.05c-.422.718-1.108 1.308-2.057 1.773a6.786 6.786 0 0 1-2.99.68c-2.131 0-3.935-.796-5.412-2.39-1.466-1.592-2.2-3.549-2.2-5.87 0-2.299.734-4.245 2.2-5.838 1.477-1.593 3.28-2.39 5.412-2.39 1.044 0 2.04.233 2.99.697.95.464 1.635 1.055 2.057 1.772v-2.136ZM80.344 25.07c.886 0 1.725-.222 2.516-.665.802-.443 1.397-1.007 1.788-1.693v-4.858c-.39-.706-.981-1.281-1.772-1.724a5.009 5.009 0 0 0-2.532-.68c-1.36 0-2.5.458-3.417 1.376-.918.907-1.377 2.046-1.377 3.418 0 1.37.459 2.52 1.377 3.449.917.918 2.056 1.377 3.417 1.377Zm14.83-19.573v22.69h-3.592V5.496h3.592Zm12.52 19.351.206 3.18c-.517.254-1.166.38-1.946.38-1.783 0-3.223-.543-4.32-1.63-1.097-1.097-1.645-2.605-1.645-4.525v-6.471H96.95v-3.434h3.038V8.092h3.591v4.256h4.162v3.434h-4.162v6.313c0 .896.275 1.614.823 2.152.559.527 1.25.79 2.073.79.39 0 .796-.062 1.218-.189Zm11.017-12.832c1.994 0 3.571.643 4.731 1.93 1.171 1.287 1.756 3.022 1.756 5.206v9.034h-3.623v-8.465c0-1.276-.338-2.278-1.013-3.006-.675-.738-1.582-1.107-2.721-1.107-.802 0-1.567.2-2.294.6-.728.402-1.282.94-1.662 1.615v10.363h-3.591V5.497h3.591v8.987c.464-.76 1.129-1.36 1.994-1.803a6.184 6.184 0 0 1 2.832-.665Zm21.681.332H144v15.838h-3.608V26.05c-.422.718-1.107 1.308-2.057 1.773a6.781 6.781 0 0 1-2.99.68c-2.131 0-3.935-.796-5.411-2.39-1.466-1.592-2.2-3.549-2.2-5.87 0-2.299.734-4.245 2.2-5.838 1.476-1.593 3.28-2.39 5.411-2.39 1.044 0 2.041.233 2.99.697.95.464 1.635 1.055 2.057 1.772v-2.136Zm-4.303 12.722a5.07 5.07 0 0 0 2.515-.665c.802-.443 1.398-1.007 1.788-1.693v-4.858c-.39-.706-.981-1.281-1.772-1.724a5.008 5.008 0 0 0-2.531-.68c-1.361 0-2.5.458-3.418 1.376-.918.907-1.377 2.046-1.377 3.418 0 1.37.459 2.52 1.377 3.449.918.918 2.057 1.377 3.418 1.377Z" fill="currentColor"/></svg>