<svg width="45" height="44" fill="none" xmlns="http://www.w3.org/2000/svg"><path d="M10.46 21.56h9.143c.233 0 .423-.19.423-.423V16.52a.424.424 0 0 0-.423-.423H10.46a.424.424 0 0 0-.423.423v4.616c0 .233.19.423.423.423Zm4.853-2.225 1.608-1.608a.414.414 0 0 1 .596 0 .421.421 0 0 1 0 .596l-1.608 1.608a.409.409 0 0 1-.3.123.421.421 0 0 1-.296-.72Zm-2.767 0 1.608-1.608a.419.419 0 0 1 .6 0 .421.421 0 0 1 0 .596l-1.611 1.608a.406.406 0 0 1-.297.123.421.421 0 0 1-.3-.72Z" fill="#A68FF1"/><path d="M40.156 30.263h-.434v-3.57l.001-.004v-2.041a3.867 3.867 0 0 0-1.12-2.707l-2.16-2.156V16.47a2.965 2.965 0 0 0-2.96-2.962h-.943v-1.51a2.114 2.114 0 0 0-2.11-2.112 2.114 2.114 0 0 0-2.112 2.112v1.51h-2.37c-.027 0-.05.011-.075.015V11.03a.424.424 0 0 0-.423-.423H7.15a2.965 2.965 0 0 0-2.961 2.961v19.271c0 .233.19.423.423.423h2.936a4.085 4.085 0 0 0 4.053 3.652 4.089 4.089 0 0 0 4.058-3.651h12.908a4.086 4.086 0 0 0 4.057 3.65 4.081 4.081 0 0 0 4.053-3.65h3.478a1.501 1.501 0 0 0 0-3Zm-26.755 3a1.847 1.847 0 1 1-3.596-.847c.19-.82.922-1.426 1.798-1.426a1.843 1.843 0 0 1 1.848 1.849c0 .144-.016.288-.05.423Zm11.626-.847H15.66a4.089 4.089 0 0 0-4.057-3.655 4.085 4.085 0 0 0-4.053 3.655H5.037v-5.303h19.99v5.303Zm0-6.15H5.037V13.569c0-1.168.951-2.115 2.114-2.115h17.875v14.814Zm.846-11.926c.025.005.048.015.075.015h7.535c1.166 0 2.115.949 2.115 2.115v3.49a.42.42 0 0 0 .124.3l2.283 2.28c.554.557.872 1.326.872 2.108v1.618H25.873V14.34Zm8.55 18.922a1.847 1.847 0 1 1-3.596-.846c.19-.82.923-1.426 1.798-1.426.876 0 1.608.605 1.798 1.426a1.752 1.752 0 0 1 0 .846Zm1.358-3a4.059 4.059 0 0 0-3.156-1.501 4.086 4.086 0 0 0-4.057 3.655h-2.695v-5.303h13.004v3.15H35.78Zm4.375 2.154h-3.478a4.076 4.076 0 0 0-.363-1.307h3.841a.654.654 0 0 1 0 1.307Z" fill="#A68FF1"/><path d="M33.628 15.815h-5.674a.424.424 0 0 0-.423.423v5.673c0 .233.19.423.423.423h5.674c.233 0 .423-.19.423-.423v-5.673a.424.424 0 0 0-.423-.423Zm-.423 5.673h-4.828v-4.827h4.828v4.827Zm-1.853 2.217h-3.396a.423.423 0 1 0 0 .846h3.396a.423.423 0 1 0 0-.846ZM30.43 9.074c.233 0 .423-.19.423-.423V7.51a.423.423 0 1 0-.846 0v1.14c0 .235.19.424.423.424Zm-2.779.903a.422.422 0 0 0 .599 0 .422.422 0 0 0 0-.598l-.808-.807a.423.423 0 1 0-.598.598l.807.807Zm5.259.123a.422.422 0 0 0 .3-.123l.806-.807a.422.422 0 1 0-.598-.598l-.807.807a.423.423 0 0 0 .299.722Z" fill="#A68FF1"/></svg>