<svg width="45" height="44" fill="none" xmlns="http://www.w3.org/2000/svg"><path d="M20.387 25.623c-.052 0-.105.006-.157.008-.013-.001-.025-.008-.039-.008-.023 0-.043.01-.066.013a3.15 3.15 0 0 0-2.885 3.135v3.095c0 .234.189.423.423.423h10.064a.423.423 0 0 0 .423-.423v-3.095c0-1.68-1.313-3.06-2.99-3.144h-.008l-.011-.002-.009.001a2.787 2.787 0 0 0-.13-.003h-.685v-.485a3.024 3.024 0 0 0 1.256-1.67c.564-.135.987-.64.987-1.244 0-.372-.167-.715-.438-.954v-1.115a2.85 2.85 0 0 0-2.843-2.847h-3.422a.424.424 0 0 0-.424.423c0 .308.093.605.271.85-.486.406-.486 1.252-.486 1.726v1.008a1.276 1.276 0 0 0-.387.909c0 .604.421 1.109.985 1.243a3.023 3.023 0 0 0 1.256 1.67v.485h-.684v.001Zm-.197 2.93c.17 0 .309.14.309.31a.31.31 0 0 1-.31.308.307.307 0 0 1-.304-.309c0-.169.136-.309.305-.309Zm7.113.219v2.672h-4.2v-.833a.423.423 0 1 0-.846 0v.832h-4.172v-2.671c0-1.052.71-1.94 1.683-2.214v1.233c-.428.166-.729.58-.729 1.071 0 .635.517 1.155 1.151 1.155a1.155 1.155 0 0 0 .425-2.229V26.47h.46a1.615 1.615 0 0 0 1.62 1.598 1.615 1.615 0 0 0 1.62-1.598h.402v1.453a1.584 1.584 0 0 0-1.165 1.522.423.423 0 1 0 .846 0 .742.742 0 0 1 1.484 0 .423.423 0 1 0 .846 0c0-.727-.495-1.335-1.165-1.522v-1.384a2.3 2.3 0 0 1 1.74 2.234Zm-6.733-5.79a2.065 2.065 0 0 1-.034-.37v-.776a.607.607 0 0 0 .09-.064.508.508 0 0 0 .076-.063c.355-.305.58-.758.647-1.253h2.708v.199c0 .427.178.82.495 1.096l.01.01.021.018c.016.014.03.03.045.04.072.055.144.101.224.143v.651a2.165 2.165 0 0 1-1.172 1.922 2.17 2.17 0 0 1-1.972 0 2.17 2.17 0 0 1-1.126-1.49c0-.009.003-.016.002-.024-.002-.014-.01-.026-.014-.04Zm2.124 2.636c.267 0 .526-.037.776-.104v.93a.782.782 0 0 1-.776.778.782.782 0 0 1-.776-.779v-.93c.25.068.51.105.776.105Z" fill="#A68FF1"/><path d="M22.669 24.209c.46 0 .896-.22 1.168-.589a.423.423 0 0 0-.68-.502c-.23.31-.745.31-.975 0a.423.423 0 1 0-.68.502c.271.369.708.589 1.167.589Z" fill="#A68FF1"/><path d="m36.48 24.184-3.823-4.068V7.373A3.678 3.678 0 0 0 28.983 3.7H16.405a3.678 3.678 0 0 0-3.673 3.673v1.74l-.908-.908a2.381 2.381 0 0 0-1.695-.702c-.641 0-1.243.25-1.695.701l-.06.06a2.4 2.4 0 0 0 0 3.39l3.004 3.006h-.002a2.26 2.26 0 0 0-.719.49l-.055.06a2.403 2.403 0 0 0 0 3.393l.82.817a.384.384 0 0 0 .043.038 2.327 2.327 0 0 0-.808.529l-.055.055a2.403 2.403 0 0 0 0 3.393l.82.82c.014.013.026.026.039.034a2.415 2.415 0 0 0-.804.53l-.055.058a2.403 2.403 0 0 0 0 3.393l.82.821c.36.36.813.592 1.308.669h.001v3.25a3.678 3.678 0 0 0 3.674 3.674h8.705a.423.423 0 1 0 0-.846h-8.705a2.83 2.83 0 0 1-2.828-2.828v-3.263a2.369 2.369 0 0 0 1.235-.656l.059-.06a2.38 2.38 0 0 0 .702-1.696c0-.639-.25-1.244-.702-1.696l-.82-.82a.276.276 0 0 0-.039-.035 2.37 2.37 0 0 0 .8-.529l.059-.055a2.403 2.403 0 0 0 0-3.393l-.82-.82a.275.275 0 0 0-.039-.034c.296-.119.567-.296.8-.533l.059-.055a2.388 2.388 0 0 0 .702-1.697 2.38 2.38 0 0 0-.702-1.696l-.82-.821a2.29 2.29 0 0 0-.474-.364V7.373a2.83 2.83 0 0 1 2.828-2.827h12.577a2.83 2.83 0 0 1 2.828 2.827v11.843l-.872-.928a1.235 1.235 0 0 0-1.864.068l-.44.54a4.022 4.022 0 0 0 .236 5.334l2.795 2.882c-3.665 4.625.007 8.621.045 8.662a.423.423 0 0 0 .617-.58c-.139-.148-3.342-3.666.227-7.83a.423.423 0 0 0-.018-.57l-3.059-3.153a3.175 3.175 0 0 1-.185-4.21l.44-.542a.386.386 0 0 1 .29-.145.384.384 0 0 1 .3.124l1.612 1.715 3.928 4.18c.398.425.618.978.618 1.56v10.351a2.783 2.783 0 0 1-2.78 2.78H20.802a.423.423 0 1 0 0 .847H33.7c2 0 3.626-1.627 3.626-3.627V26.323a3.11 3.11 0 0 0-.847-2.138ZM8.972 8.863l.06-.06c.585-.585 1.61-.585 2.194 0l1.506 1.506v4.173a.767.767 0 0 0-.137-.02 1.462 1.462 0 0 1-.576-.36l-3.046-3.046a1.553 1.553 0 0 1 0-2.193h-.001Zm5.303 17.376a1.556 1.556 0 0 1 0 2.196l-.059.055a1.532 1.532 0 0 1-1.062.44 1.549 1.549 0 0 1-1.134-.44l-.82-.82a1.555 1.555 0 0 1 0-2.197l.059-.055a1.55 1.55 0 0 1 2.196 0l.82.821Zm0-4.836a1.555 1.555 0 0 1 0 2.196l-.059.06c-.588.583-1.608.583-2.196 0l-.82-.821a1.555 1.555 0 0 1 0-2.196l.059-.06a1.56 1.56 0 0 1 2.195.001l.821.82Zm0-4.835a1.556 1.556 0 0 1 0 2.195l-.059.06c-.588.588-1.608.588-2.196 0l-.82-.821a1.555 1.555 0 0 1 0-2.196l.059-.06a1.53 1.53 0 0 1 1.163-.448l.021.002c.132.042.273.07.424.087l.03.009h.003c.203.072.394.19.554.35l.821.822Z" fill="#A68FF1"/><path d="M22.695 13.75a3.115 3.115 0 0 0 3.11-3.11 3.115 3.115 0 0 0-3.11-3.11 3.115 3.115 0 0 0-3.11 3.11 3.115 3.115 0 0 0 3.11 3.11Zm-1.265-3.541h.841v-.842a.424.424 0 0 1 .846 0v.842h.843c.232 0 .423.19.423.423 0 .237-.19.423-.423.423h-.842v.842c0 .237-.19.423-.423.423a.422.422 0 0 1-.424-.423v-.842h-.841a.422.422 0 0 1-.424-.423c0-.233.19-.423.424-.423Z" fill="#A68FF1"/></svg>