<svg width="39" height="52" fill="none" xmlns="http://www.w3.org/2000/svg"><g clip-path="url(#a)" fill="#A68FF1"><path d="M2.138 10.005c-1.145 0-2.083.88-2.138 2-.027.58.178 1.13.578 1.55.395.412.947.65 1.52.65h.967v.193a2.08 2.08 0 0 0 2.078 2.077h12.052a.77.77 0 0 0 0-1.54H5.145a.538.538 0 0 1-.537-.537v-.193H19.1a3.286 3.286 0 0 0 3.282-3.283V8.74a.5.5 0 0 1 .48-.498l2.94.173h.046a.43.43 0 0 1 .43.43 2.13 2.13 0 0 0 2.127 2.127 2.13 2.13 0 0 0 2.127-2.127v-3.79A2.716 2.716 0 0 0 26.06 2.98l-.532.45V1.387a.77.77 0 0 0-1.54 0v2.76c-.472.125-.942.225-1.102.233a.497.497 0 0 1-.498-.498v-.6A3.286 3.286 0 0 0 19.105 0H2.138C.993 0 .055.877 0 2c-.027.58.178 1.13.578 1.55.395.413.947.65 1.52.65h.967v5.802h-.93l.003.003ZM2.1 2.66a.562.562 0 0 1-.56-.588c.015-.292.283-.532.598-.532h16.965c.96 0 1.742.782 1.742 1.743v.6c0 1.122.915 2.037 2.038 2.037.262 0 1.152-.173 1.952-.412a.754.754 0 0 0 .297-.093c.425-.143.793-.3.978-.455l.945-.8a1.18 1.18 0 0 1 1.938.9v3.79a.586.586 0 0 1-1.17 0c0-1.077-.87-1.955-1.945-1.97l-2.948-.173h-.045a2.041 2.041 0 0 0-2.038 2.038v2.183c0 .96-.782 1.742-1.742 1.742H2.1a.562.562 0 0 1-.56-.588c.015-.292.283-.532.598-.532H6.18a.77.77 0 0 0 0-1.54H4.61V4.202h1.57a.77.77 0 0 0 0-1.54H2.1V2.66Z"/><path d="M31.852 36.633a2.544 2.544 0 0 0-2.277-2.016 5.928 5.928 0 0 0 .593-2.607 6.221 6.221 0 0 0-1.37-3.882 2.092 2.092 0 0 0 1.675-2.048v-3.685a2.666 2.666 0 0 0-2.663-2.662c-.63 0-1.24.224-1.72.63l-.565.477V10.088a.77.77 0 0 0-1.54 0v11.39c-.475.107-.938.194-1.102.2a.497.497 0 0 1-.498-.498v-.6a3.286 3.286 0 0 0-3.283-3.282H2.139c-1.145 0-2.083.877-2.138 2-.027.58.178 1.13.578 1.55.395.412.947.65 1.52.65h.967V27.3h-.93c-1.142.002-2.08.88-2.135 2.002-.027.58.178 1.13.578 1.55.395.413.947.65 1.52.65h1.235a16.45 16.45 0 0 0-.005.37 3.333 3.333 0 0 0 3.73 3.295l5.405-.647a.769.769 0 0 0 .672-.858.768.768 0 0 0-.857-.672l-5.405.648a1.76 1.76 0 0 1-1.4-.438 1.773 1.773 0 0 1-.605-1.335c0-.135 0-.252.005-.362h14.964c1.113 0 2.26-.316 3.316-.91a1.625 1.625 0 0 1 2.415 1.524 1.63 1.63 0 0 1-1.976 1.478 6.575 6.575 0 0 0-2.834.013l-3.055.66L2.825 37.35c-1.122.233-1.862 1.282-1.685 2.392.09.576.403 1.073.88 1.4.47.325 1.06.445 1.62.33l.948-.197 1.177 5.683-.91.187c-1.122.232-1.862 1.282-1.685 2.392a2.07 2.07 0 0 0 .88 1.4 2.1 2.1 0 0 0 1.62.33l16.647-3.447a3.254 3.254 0 0 0 2.078-1.413 3.25 3.25 0 0 0 .47-2.47l-.442-2.137a.494.494 0 0 1 .38-.585l3.427-.642s.01 0 .015-.003a.33.33 0 0 1 .24.045c.043.027.115.09.137.203.108.525.416.974.863 1.267a2.004 2.004 0 0 0 3.06-2.08l-.7-3.372h.008Zm-13.855-6.67H2.1a.554.554 0 0 1-.405-.175.557.557 0 0 1-.155-.416c.015-.292.283-.532.598-.532H6.18a.77.77 0 0 0 0-1.54H4.61v-5.803h1.57a.77.77 0 0 0 0-1.54H2.1a.562.562 0 0 1-.56-.587c.015-.293.283-.533.598-.533h16.965c.96 0 1.742.783 1.742 1.743v.6c0 1.122.915 2.038 2.038 2.038.345 0 2.69-.395 3.285-.898l.92-.777a1.124 1.124 0 0 1 1.848.857v3.685a.547.547 0 1 1-1.096 0c0-1.06-.857-1.925-1.915-1.935l-3.003-.145h-.037a2.041 2.041 0 0 0-2.038 2.038v2.182c0 .96-.782 1.742-1.742 1.742h-1.102l-.006-.005Zm6.233 5.2a3.18 3.18 0 0 0 2.88-2.945 3.137 3.137 0 0 0-.85-2.373 3.176 3.176 0 0 0-2.308-1c-.542 0-1.08.14-1.552.405-.075.043-.152.08-.227.12.135-.36.212-.745.212-1.152v-2.183c0-.27.215-.49.482-.497l2.995.145h.038c.218 0 .395.177.395.395 0 .075.005.15.012.222a.768.768 0 0 0-.387 1.462 4.697 4.697 0 0 1 2.705 4.243c0 1.455-.675 2.758-1.902 3.662a2.524 2.524 0 0 0-.848 1.123c-.703.278-1.598.583-1.848.638a.498.498 0 0 1-.587-.386l-.123-.587a3.277 3.277 0 0 0-.704-1.453c.22.018.437.048.65.095.314.07.64.09.964.063l.003.003Zm6.453 5.702a.465.465 0 0 1-.547-.36 1.843 1.843 0 0 0-.801-1.177 1.833 1.833 0 0 0-1.39-.268l-3.43.642s-.01 0-.015.003c-.532.11-.99.422-1.29.878-.3.455-.402 1-.293 1.532l.443 2.137a1.73 1.73 0 0 1-.25 1.31 1.73 1.73 0 0 1-1.102.75L5.36 49.76a.563.563 0 0 1-.667-.462c-.045-.29.167-.578.477-.643l1.665-.345 2.495-.518a.77.77 0 1 0-.312-1.507l-1.74.36L6.1 40.962l1.983-.41a.77.77 0 1 0-.312-1.508l-2.738.568-1.703.353a.563.563 0 0 1-.667-.463c-.045-.29.167-.577.477-.642l14.892-3.085 1.72-.358c.456-.095.92-.005 1.31.25s.655.648.75 1.103l.123.587c.11.533.423.99.878 1.29.454.3 1 .403 1.532.293.027-.005 3.023-.857 3.543-1.52l.694-.885a1 1 0 0 1 1.768.413l.7 3.372a.464.464 0 0 1-.36.547l-.008-.002Z"/><path d="M27.975 42.24a.77.77 0 0 0-1.533.16c.01.105.29 2.625 2.263 6.642a.771.771 0 0 0 1.385-.68c-1.83-3.727-2.11-6.08-2.115-6.125v.003Zm4.008-14.748a.773.773 0 0 0 1.08-.147l2.397-3.153a.77.77 0 1 0-1.227-.932l-2.398 3.152a.77.77 0 0 0 .148 1.08Zm4.085 7.358-3.153-2.398a.77.77 0 1 0-.932 1.228l3.152 2.398a.763.763 0 0 0 1.078-.148.77.77 0 0 0-.148-1.08h.003Zm1.222-5.605h-3.233a.77.77 0 0 0 0 1.54h3.233a.77.77 0 0 0 0-1.54Z"/></g><defs><clipPath id="a"><path fill="#fff" d="M0 0h38.06v51.313H0z"/></clipPath></defs></svg>