<svg width="45" height="47" fill="none" xmlns="http://www.w3.org/2000/svg"><g clip-path="url(#a)" fill="#A68FF1"><path d="M11.39 25.793c-.365.51-.755.997-1.16 1.45a.762.762 0 0 0 .565 1.27.757.757 0 0 0 .565-.253 18.07 18.07 0 0 0 1.268-1.585.76.76 0 0 0-1.237-.883Zm4.783-20.4a.765.765 0 0 0 .687.102l7.725-2.625a.76.76 0 0 0-.49-1.44l-6.72 2.285V1.73a.76.76 0 1 0-1.52 0v3.042a.76.76 0 0 0 .318.618v.003Zm-3.345 19.734a.76.76 0 0 0 1.02-.34l.102-.202a.761.761 0 0 0-1.36-.68l-.102.203a.76.76 0 0 0 .34 1.02Z"/><path d="M44.682 20.075c0-7.06-5.745-12.805-12.805-12.805a12.736 12.736 0 0 0-7.935 2.768 17.055 17.055 0 0 0-2.487-1.258 12.653 12.653 0 0 0-1.705-.55l5.135-1.72a.762.762 0 0 0 .48-.963.762.762 0 0 0-.963-.48l-8.027 2.688a.776.776 0 0 0-.215.117c-1.575.068-3.14.423-4.598 1.073l-.067.03V1.73a.76.76 0 1 0-1.52 0v7.917l-.495.22a.76.76 0 1 0 .62 1.39l1.052-.467c1.238.87 3.543 2.985 3.543 6.645 0 1.372-.393 3.037-1.105 4.682a.76.76 0 1 0 1.395.603c.805-1.858 1.23-3.685 1.23-5.285 0-3.7-1.97-6.065-3.473-7.332a11.172 11.172 0 0 1 8.14.087c.643.26 1.268.568 1.87.912a12.756 12.756 0 0 0-3.68 8.973c0 7.06 5.745 12.805 12.805 12.805.973 0 1.92-.113 2.83-.32l.713 1.867a6.16 6.16 0 0 1-1.53 6.703 6.168 6.168 0 0 1-5.62 1.532l-11.403-2.6a.627.627 0 0 0-.167-.037l-4.485-1.023a11.533 11.533 0 0 1-6.92-4.67l-1.48-2.127c-.038-.053-.07-.108-.105-.163a9.447 9.447 0 0 0 2.357-.42.76.76 0 0 0-.455-1.45 7.738 7.738 0 0 1-2.47.365.775.775 0 0 0-.265.043 11.617 11.617 0 0 1-.9-7.285l.698-3.423c.562-2.77.847-4.162 4.007-6.104a.762.762 0 0 0-.797-1.298 13.02 13.02 0 0 0-.273.172V1.73a.76.76 0 1 0-1.52 0v12.018c-1.967 1.67-2.392 3.294-2.907 5.82L.487 22.99c-.71 3.485.05 7.16 2.08 10.08l1.32 1.895v11.182a.76.76 0 1 0 1.52 0v-9.305a13.05 13.05 0 0 0 4.563 3.045v6.26a.76.76 0 1 0 1.52 0v-5.765c.127.033.257.068.387.098l3.975.907v4.76a.76.76 0 1 0 1.52 0v-4.412l10.56 2.407a7.692 7.692 0 0 0 7-1.907 7.68 7.68 0 0 0 1.908-8.353l-.668-1.747c4.953-1.77 8.508-6.508 8.508-12.06h.002ZM31.877 31.36c-6.222 0-11.285-5.063-11.285-11.285 0-6.223 5.063-11.285 11.285-11.285 6.223 0 11.285 5.063 11.285 11.285S38.1 31.36 31.877 31.36Z"/><path d="M39.688 19.68h-2.995a.756.756 0 0 0-.725.535l-1.053 3.372-1.505-11.864a.762.762 0 0 0-1.507-.02l-1.505 9.702-1.873-4.888a.756.756 0 0 0-.735-.487.764.764 0 0 0-.702.532l-1.043 3.325h-2.787a.76.76 0 1 0 0 1.52h3.347a.757.757 0 0 0 .725-.532l.555-1.773 2.113 5.518a.76.76 0 0 0 .79.485.761.761 0 0 0 .67-.64l1.117-7.2 1.265 9.977a.76.76 0 0 0 .688.663l.067.002a.76.76 0 0 0 .725-.535l1.928-6.17h2.434a.76.76 0 1 0 0-1.52l.005-.002Z"/></g><defs><clipPath id="a"><path fill="#fff" transform="translate(.228 .97)" d="M0 0h44.455v45.94H0z"/></clipPath></defs></svg>