<svg width="20" height="20" fill="none" xmlns="http://www.w3.org/2000/svg"><path d="M7.368 17.5a10.16 10.16 0 0 1-5.493-1.603c1.347.087 3.724-.121 5.202-1.531-2.224-.103-3.227-1.808-3.358-2.537.19.073 1.09.16 1.6-.044-2.56-.642-2.952-2.887-2.864-3.572.48.335 1.293.452 1.613.423C1.684 6.93 2.542 4.364 2.963 3.81c1.711 2.37 4.275 3.702 7.447 3.776a3.64 3.64 0 0 1 3.543-4.46 3.62 3.62 0 0 1 2.657 1.157c.7-.164 1.755-.549 2.27-.881-.26.933-1.068 1.711-1.558 2 .005.01-.003-.01 0 0 .43-.065 1.594-.289 2.053-.6-.227.524-1.085 1.395-1.789 1.883.131 5.776-4.288 10.815-10.218 10.815Z" fill="#47ACDF"/></svg>