<svg width="269" height="216" viewBox="0 0 269 216" fill="none" xmlns="http://www.w3.org/2000/svg">
<path d="M262.843 61.694C265.476 64.3273 269.763 64.3275 272.396 61.6944C275.029 59.0613 275.029 54.7747 272.396 52.1414C269.762 49.5081 265.476 49.508 262.843 52.141C260.21 54.7741 260.21 59.0607 262.843 61.694ZM271.042 53.4954C272.926 55.3802 272.927 58.4557 271.042 60.3403C269.157 62.225 266.082 62.2249 264.197 60.34C262.312 58.4552 262.305 55.3866 264.197 53.4951C266.088 51.6036 269.157 51.6106 271.042 53.4954Z" fill="#CABAFF"/>
<path d="M248.241 51.1741C245.608 48.5408 241.321 48.5407 238.688 51.1737C236.055 53.8068 236.055 58.0934 238.688 60.7267C241.322 63.36 245.608 63.3602 248.241 60.7271C250.875 58.094 250.874 53.8074 248.241 51.1741ZM240.042 59.3728C238.158 57.4879 238.157 54.4125 240.042 52.5278C241.927 50.6432 245.002 50.6433 246.887 52.5281C248.772 54.4129 248.772 57.4884 246.887 59.373C245.003 61.2577 241.927 61.2576 240.042 59.3728Z" fill="#CABAFF"/>
<path d="M214.84 58.8002C217.473 61.4335 221.759 61.4337 224.393 58.8006C227.026 56.1675 227.025 51.8809 224.392 49.2476C221.759 46.6143 217.472 46.6142 214.839 49.2472C212.206 51.8803 212.206 56.1669 214.84 58.8002ZM223.038 50.6016C224.93 52.4932 224.923 55.5619 223.038 57.4465C221.154 59.3312 218.078 59.3311 216.194 57.4462C214.309 55.5614 214.309 52.486 216.193 50.6013C218.078 48.7166 221.153 48.7168 223.038 50.6016Z" fill="#CABAFF"/>
<path d="M192.604 62.3376C195.237 64.9709 199.524 64.971 202.157 62.338C204.79 59.7049 204.79 55.4183 202.157 52.785C199.523 50.1517 195.237 50.1515 192.604 52.7846C189.971 55.4177 189.971 59.7043 192.604 62.3376ZM200.803 54.139C202.687 56.0238 202.688 59.0992 200.803 60.9839C198.918 62.8685 195.843 62.8684 193.958 60.9836C192.073 59.0988 192.073 56.0233 193.958 54.1387C195.842 52.254 198.918 52.2541 200.803 54.139Z" fill="#CABAFF"/>
<path d="M183.157 158.785C180.523 156.152 176.237 156.152 173.604 158.785C170.971 161.418 170.971 165.705 173.604 168.338C176.237 170.971 180.524 170.971 183.157 168.338C185.79 165.705 185.79 161.419 183.157 158.785ZM174.958 166.984C173.066 165.092 173.073 162.024 174.958 160.139C176.842 158.254 179.918 158.254 181.803 160.139C183.687 162.024 183.688 165.099 181.803 166.984C179.918 168.869 176.843 168.869 174.958 166.984Z" fill="#CABAFF"/>
<path d="M177.468 137.516C174.835 140.149 174.835 144.435 177.468 147.069C180.102 149.702 184.388 149.702 187.021 147.069C189.654 144.436 189.654 140.149 187.021 137.516C184.388 134.883 180.101 134.882 177.468 137.516ZM185.674 145.722C183.782 147.613 180.714 147.606 178.829 145.721C176.944 143.837 176.944 140.761 178.829 138.876C180.713 136.992 183.789 136.992 185.674 138.877C187.558 140.762 187.565 143.83 185.674 145.722Z" fill="#CABAFF"/>
<path d="M174.568 99.0721C177.201 101.705 181.488 101.706 184.121 99.0725C186.754 96.4394 186.753 92.1528 184.12 89.5195C181.487 86.8862 177.2 86.886 174.567 89.5191C171.934 92.1522 171.934 96.4388 174.568 99.0721ZM182.766 90.8734C184.658 92.7651 184.651 95.8337 182.767 97.7184C180.882 99.603 177.806 99.6029 175.922 97.7181C174.037 95.8333 174.037 92.7578 175.921 90.8732C177.806 88.9885 180.881 88.9886 182.766 90.8734Z" fill="#CABAFF"/>
<path d="M178.105 76.8363C180.738 79.4696 185.025 79.4698 187.658 76.8367C190.291 74.2037 190.291 69.9171 187.658 67.2838C185.024 64.6505 180.738 64.6503 178.105 67.2834C175.471 69.9164 175.472 74.203 178.105 76.8363ZM186.304 68.6377C188.188 70.5225 188.189 73.598 186.304 75.4827C184.419 77.3673 181.344 77.3672 179.459 75.4824C177.574 73.5976 177.574 70.5221 179.459 68.6374C181.343 66.7528 184.419 66.7529 186.304 68.6377Z" fill="#CABAFF"/>
<path d="M176.691 113.552C174.16 116.083 174.16 120.192 176.691 122.724C179.223 125.255 183.332 125.255 185.863 122.724C188.394 120.193 188.394 116.083 185.863 113.552C183.332 111.021 179.222 111.021 176.691 113.552ZM184.89 114.525C186.884 116.519 186.891 119.764 184.897 121.758C182.904 123.751 179.658 123.758 177.658 121.757C175.657 119.757 175.657 116.518 177.657 114.518C179.658 112.517 182.89 112.524 184.89 114.525Z" fill="#CABAFF"/>
<path d="M242.252 14.6225C244.287 16.657 247.458 16.8477 249.723 15.2216C249.751 15.2488 249.757 15.2828 249.778 15.3032L274.675 40.2005C275.049 40.5747 275.655 40.568 276.022 40.2005C276.39 39.8331 276.396 39.214 276.029 38.8465L251.132 13.9493C251.132 13.9493 251.077 13.922 251.05 13.8948C252.676 11.6291 252.485 8.4584 250.451 6.42388C248.185 4.15802 244.525 4.15787 242.259 6.42354C239.993 8.68922 239.993 12.3634 242.252 14.6225Z" fill="#CABAFF"/>
<path d="M257.345 45.9355L246.907 35.4976C248.819 33.2183 248.737 29.8298 246.594 27.6864C244.328 25.4206 240.653 25.4204 238.388 27.6861C236.122 29.9518 236.122 33.626 238.388 35.8918C240.307 37.8107 243.226 38.0898 245.458 36.7563L255.991 47.2895C256.365 47.6637 256.977 47.6637 257.352 47.2895C257.726 46.9153 257.719 46.3097 257.345 45.9355Z" fill="#CABAFF"/>
<path d="M161.211 113.068C158.946 110.802 155.271 110.802 153.006 113.067C150.74 115.333 150.74 119.007 153.006 121.273C155.272 123.539 158.572 123.505 160.851 121.566L171.282 131.997C171.657 132.371 172.269 132.371 172.643 131.997C173.017 131.623 173.017 131.011 172.643 130.636L162.096 120.09C163.396 117.865 163.117 114.973 161.211 113.068Z" fill="#CABAFF"/>
<path d="M209.222 115.968C207.188 113.934 204.017 113.743 201.751 115.369C201.724 115.342 201.724 115.315 201.697 115.287L190.653 104.244C190.279 103.87 189.673 103.876 189.299 104.251C188.925 104.625 188.932 105.23 189.299 105.598L200.343 116.641C200.343 116.641 200.397 116.682 200.424 116.696C198.798 118.962 198.982 122.125 201.023 124.167C203.289 126.433 206.964 126.433 209.229 124.167C211.495 121.901 211.495 118.227 209.229 115.961L209.222 115.968Z" fill="#CABAFF"/>
<path d="M231.451 112.424C229.185 110.158 225.511 110.158 223.245 112.424C220.979 114.69 220.979 118.364 223.245 120.63C225.511 122.895 229.185 122.896 231.451 120.63C233.717 118.364 233.717 114.69 231.451 112.424Z" fill="#CABAFF"/>
<path d="M139.949 116.925C137.683 114.659 134.016 114.666 131.75 116.932C129.484 119.197 129.485 122.871 131.744 125.131C133.778 127.165 136.949 127.356 139.215 125.73C139.242 125.757 139.249 125.791 139.269 125.811L164.166 150.709C164.541 151.083 165.146 151.076 165.52 150.702C165.894 150.328 165.888 149.722 165.52 149.355L140.623 124.457C140.623 124.457 140.569 124.43 140.541 124.403C142.167 122.137 141.977 118.966 139.942 116.932L139.949 116.925Z" fill="#CABAFF"/>
<path d="M229.571 64.6184C229.197 64.9926 229.204 65.5982 229.571 65.9656L240.431 76.8254C239.104 79.0503 239.376 81.9761 241.295 83.8949C243.561 86.1608 247.235 86.1609 249.501 83.8953C251.767 81.6296 251.767 77.9554 249.501 75.6895C247.357 73.5461 243.969 73.4643 241.69 75.3762L230.932 64.6184C230.558 64.2442 229.952 64.251 229.578 64.6252L229.571 64.6184Z" fill="#CABAFF"/>
<path d="M237.744 106.13C240.01 108.396 243.684 108.396 245.95 106.131C248.216 103.865 248.215 100.191 245.95 97.9249C243.806 95.7815 240.418 95.6861 238.145 97.6048L209.989 69.4482C209.614 69.0739 209.002 69.0739 208.635 69.4413C208.267 69.8087 208.26 70.4279 208.635 70.8021L236.887 99.054C235.553 101.286 235.832 104.205 237.751 106.123L237.744 106.13Z" fill="#CABAFF"/>
<path d="M223.197 111.015L195.81 83.6277C195.435 83.2535 194.823 83.2534 194.456 83.6208C194.088 83.9882 194.081 84.6074 194.456 84.9817L221.843 112.369C222.218 112.744 222.823 112.75 223.204 112.369C223.585 111.988 223.572 111.39 223.197 111.015Z" fill="#CABAFF"/>
<path d="M158.779 183.163C161.412 185.797 165.698 185.797 168.332 183.164C170.965 180.531 170.964 176.244 168.331 173.611C165.698 170.977 161.411 170.977 158.778 173.61C156.145 176.243 156.145 180.53 158.779 183.163ZM166.977 174.965C168.869 176.856 168.862 179.925 166.977 181.81C165.093 183.694 162.017 183.694 160.133 181.809C158.248 179.925 158.248 176.849 160.132 174.964C162.017 173.08 165.092 173.08 166.977 174.965Z" fill="#CABAFF"/>
<path d="M147.069 177.468C144.436 174.835 140.149 174.835 137.516 177.468C134.883 180.101 134.883 184.387 137.516 187.021C140.15 189.654 144.436 189.654 147.069 187.021C149.703 184.388 149.702 180.102 147.069 177.468ZM138.87 185.667C136.979 183.775 136.979 180.713 138.87 178.822C140.762 176.93 143.83 176.937 145.715 178.822C147.6 180.707 147.6 183.782 145.715 185.667C143.831 187.552 140.755 187.552 138.87 185.667Z" fill="#CABAFF"/>
<path d="M113.355 186.061C115.988 188.694 120.275 188.694 122.908 186.061C125.541 183.428 125.541 179.141 122.907 176.508C120.274 173.875 115.988 173.875 113.354 176.508C110.721 179.141 110.722 183.427 113.355 186.061ZM121.553 177.862C123.445 179.754 123.438 182.822 121.554 184.707C119.669 186.592 116.594 186.591 114.709 184.707C112.824 182.822 112.824 179.746 114.709 177.862C116.593 175.977 119.669 175.977 121.553 177.862Z" fill="#CABAFF"/>
<path d="M99.066 184.127C101.699 181.494 101.699 177.207 99.0656 174.574C96.4323 171.941 92.1457 171.941 89.5127 174.574C86.8796 177.207 86.8798 181.493 89.5131 184.127C92.1464 186.76 96.4329 186.76 99.066 184.127ZM90.867 182.773C88.9754 180.881 88.9821 177.812 90.8667 175.928C92.7514 174.043 95.8269 174.043 97.7117 175.928C99.5965 177.813 99.5966 180.888 97.712 182.773C95.8273 184.658 92.7518 184.657 90.867 182.773Z" fill="#CABAFF"/>
<path d="M67.2771 187.664C69.9104 190.297 74.197 190.297 76.8301 187.664C79.4631 185.031 79.463 180.744 76.8297 178.111C74.1964 175.478 69.9098 175.478 67.2767 178.111C64.6436 180.744 64.6438 185.03 67.2771 187.664ZM75.4757 179.465C77.3605 181.35 77.3606 184.425 75.476 186.31C73.5913 188.195 70.5159 188.195 68.6311 186.31C66.7462 184.425 66.7461 181.349 68.6308 179.465C70.5154 177.58 73.5909 177.58 75.4757 179.465Z" fill="#CABAFF"/>
<path d="M58.7939 224.399C61.427 221.766 61.4268 217.479 58.7935 214.846C56.1602 212.213 51.8736 212.212 49.2406 214.845C46.6075 217.479 46.6077 221.765 49.241 224.398C51.8743 227.032 56.1609 227.032 58.7939 224.399ZM50.5946 216.2C52.4793 214.315 55.5548 214.315 57.4396 216.2C59.3244 218.085 59.3245 221.16 57.4399 223.045C55.5552 224.929 52.4797 224.929 50.5949 223.045C48.7101 221.16 48.71 218.084 50.5946 216.2Z" fill="#CABAFF"/>
<path d="M62.331 202.163C64.9641 199.53 64.9639 195.244 62.3306 192.61C59.6973 189.977 55.4108 189.977 52.7777 192.61C50.1446 195.243 50.1448 199.53 52.7781 202.163C55.4114 204.796 59.698 204.796 62.331 202.163ZM54.1249 193.957C56.0096 192.073 59.0851 192.073 60.9699 193.958C62.8547 195.842 62.8548 198.918 60.9702 200.803C59.0855 202.687 56.01 202.687 54.1252 200.802C52.2404 198.917 52.2403 195.842 54.1249 193.957Z" fill="#CABAFF"/>
<path d="M116.925 139.949C118.96 141.984 122.131 142.174 124.396 140.548C124.423 140.575 124.43 140.609 124.451 140.63L149.348 165.527C149.722 165.901 150.328 165.895 150.695 165.527C151.063 165.16 151.069 164.541 150.702 164.173L125.805 139.276C125.805 139.276 125.75 139.249 125.723 139.221C127.349 136.956 127.158 133.785 125.124 131.751C122.858 129.485 119.191 129.491 116.925 131.757C114.659 134.023 114.659 137.697 116.919 139.956L116.925 139.949Z" fill="#CABAFF"/>
<path d="M132.011 172.616C132.385 172.242 132.385 171.629 132.011 171.255L121.573 160.817C123.485 158.538 123.396 155.156 121.253 153.013C118.987 150.747 115.313 150.747 113.047 153.013C110.781 155.278 110.782 158.953 113.047 161.218C114.966 163.137 117.885 163.416 120.117 162.083L130.65 172.616C131.024 172.99 131.637 172.99 132.011 172.616Z" fill="#CABAFF"/>
<path d="M104.237 191.299L115.097 202.159C113.764 204.391 114.043 207.31 115.962 209.228C118.228 211.494 121.902 211.494 124.167 209.229C126.433 206.963 126.433 203.289 124.167 201.023C122.024 198.88 118.635 198.798 116.356 200.71L105.598 189.952C105.224 189.578 104.618 189.585 104.244 189.959C103.87 190.333 103.877 190.938 104.244 191.306L104.237 191.299Z" fill="#CABAFF"/>
<path d="M120.623 223.252C118.479 221.108 115.091 221.013 112.818 222.932L84.6618 194.775C84.2876 194.401 83.6752 194.401 83.301 194.775C82.9268 195.149 82.9268 195.761 83.3011 196.136L111.553 224.388C110.226 226.612 110.499 229.538 112.417 231.457C114.683 233.723 118.357 233.723 120.623 231.457C122.889 229.192 122.889 225.518 120.623 223.252Z" fill="#CABAFF"/>
<path d="M97.8639 237.696C98.2381 237.322 98.238 236.709 97.8638 236.335L70.4829 208.954C70.1087 208.58 69.4963 208.58 69.1221 208.954C68.7479 209.328 68.7479 209.941 69.1222 210.315L96.5098 237.703C96.8841 238.077 97.4965 238.077 97.8707 237.703L97.8639 237.696Z" fill="#CABAFF"/>
</svg>
