<svg width="48" height="48" viewBox="0 0 48 48" fill="none" xmlns="http://www.w3.org/2000/svg">
<path d="M42.6119 37.3635C42.6073 37.3325 42.6041 37.3025 42.5939 37.2739C42.5838 37.2458 42.5681 37.2218 42.5529 37.1964C42.5376 37.171 42.5238 37.1461 42.5039 37.1244C42.4841 37.1022 42.4606 37.0856 42.4366 37.0676C42.413 37.0501 42.3913 37.0321 42.3646 37.0192C42.3369 37.0053 42.3069 36.9993 42.2764 36.9915C42.2547 36.9859 42.2358 36.9739 42.2127 36.9712C42.2039 36.9702 42.1961 36.9739 42.1878 36.9735C42.1795 36.973 42.1721 36.9684 42.1633 36.9684H34.343L34.6619 32.6553L36.8086 30.8585H41.1613C41.4161 30.8585 41.6229 30.6518 41.6229 30.397C41.6229 30.1422 41.4161 29.9355 41.1613 29.9355H37.2092L38.0787 25.7862C38.1309 25.5365 37.9712 25.2924 37.7219 25.2398C37.4718 25.1862 37.2281 25.3473 37.1755 25.5965L36.2219 30.145L34.1773 31.8564L31.3098 30.0564L30.7721 29.2676L32.6542 26.3955C32.7941 26.1822 32.7346 25.8961 32.5209 25.7567C32.3072 25.6173 32.0215 25.6768 31.8821 25.8901L30.2095 28.4428L28.9569 26.6055C28.8133 26.395 28.5262 26.3405 28.3153 26.4841C28.1049 26.6276 28.0504 26.9147 28.1939 27.1256L30.1098 29.9355H27.6576C27.4029 29.9355 27.1961 30.1422 27.1961 30.397C27.1961 30.6518 27.4029 30.8585 27.6576 30.8585H30.8501L33.7356 32.6696L33.4181 36.9679H15.4356C15.431 36.9679 15.4269 36.9652 15.4223 36.9652C15.4172 36.9652 15.4126 36.9675 15.4075 36.9679H13.013C12.701 35.875 11.7761 33.1372 11.7341 33.013C11.6884 32.8773 11.5818 32.7707 11.4461 32.7241L8.38471 31.6764C10.1349 29.8238 11.9612 27.4228 12.0452 27.3116C12.1989 27.1085 12.1596 26.8192 11.9566 26.665C11.7535 26.5113 11.4636 26.5505 11.3099 26.7536C11.2892 26.7808 9.38025 29.2916 7.63656 31.1244C7.29825 30.5548 6.71025 29.557 6.00963 28.3418C5.88225 28.1207 5.59979 28.0445 5.37917 28.1724C5.1581 28.2993 5.0824 28.5818 5.20979 28.8028C6.30917 30.7104 7.14363 32.101 7.15194 32.1148C7.16348 32.1342 7.18194 32.1481 7.19625 32.1656C7.20594 32.1776 7.2101 32.1924 7.22163 32.2035C7.22717 32.209 7.23456 32.2108 7.2401 32.2159C7.26871 32.2418 7.30102 32.2607 7.33517 32.2792C7.35271 32.2884 7.3684 32.3008 7.38687 32.3078C7.39102 32.3096 7.39425 32.3128 7.39887 32.3142L10.9324 33.5235C11.1424 34.1488 11.7539 35.9788 12.0512 36.9675H5.60994C5.60025 36.9675 5.59194 36.9725 5.58225 36.973C5.57071 36.9735 5.55963 36.9693 5.5481 36.9707C5.5241 36.9739 5.50517 36.9868 5.48256 36.9933C5.45671 37.0007 5.43133 37.0072 5.40779 37.0192C5.37687 37.0344 5.35056 37.0542 5.32425 37.0755C5.30487 37.0912 5.28548 37.1059 5.26887 37.1244C5.24625 37.1498 5.22963 37.1775 5.21302 37.207C5.20056 37.2292 5.1881 37.2504 5.17933 37.2748C5.16779 37.3067 5.16363 37.3395 5.15948 37.3741C5.15717 37.393 5.1484 37.4096 5.1484 37.429C5.1484 37.4387 5.15348 37.447 5.15394 37.4567C5.1544 37.4678 5.15025 37.4779 5.15163 37.4895C5.29979 38.6008 5.79779 40.6815 6.50487 41.5335C6.89671 42.0061 7.41917 42.277 7.97625 42.2968C7.9984 42.2973 8.02056 42.2978 8.04271 42.2978C8.58871 42.2978 9.11487 42.0605 9.53071 41.6248C9.6521 41.4979 9.75963 41.3562 9.86071 41.2076C9.95348 41.3281 10.0467 41.4398 10.1404 41.5358C10.6836 42.0762 11.3459 42.3028 12.0009 42.3028C12.6964 42.3028 13.3841 42.0472 13.9126 41.6396C14.0547 41.5307 14.1876 41.407 14.3159 41.2736C14.7124 41.5635 15.1799 41.8648 15.6742 42.0601C16.0859 42.2161 16.5309 42.2945 16.9873 42.2945C17.3921 42.2945 17.8056 42.2327 18.2118 42.1085C18.7333 41.9359 19.2138 41.5865 19.6232 41.1084C19.997 41.3752 20.405 41.5551 20.843 41.6433C21.0415 41.6825 21.2423 41.7019 21.443 41.7019C22.2775 41.7019 23.1119 41.3655 23.7807 40.765C24.2026 41.1961 24.6742 41.515 25.1889 41.7061C25.3675 41.7748 25.8669 41.9419 26.4918 41.9419C26.759 41.9419 27.0493 41.9115 27.3475 41.8293C27.8376 41.6922 28.2733 41.4398 28.6532 41.0821C28.8332 41.2436 29.0224 41.3895 29.2273 41.5048C29.5702 41.6968 29.9335 41.8127 30.3036 41.8496C30.4038 41.8602 30.5021 41.8653 30.5981 41.8653C31.7893 41.8653 32.6755 41.101 32.7789 41.0087C32.8827 40.9159 32.9773 40.8185 33.0669 40.7202C33.3096 40.8965 33.5653 41.0447 33.8367 41.1564C34.0947 41.2598 34.5738 41.4125 35.153 41.4125C35.6589 41.4125 36.2409 41.2962 36.8192 40.9293C36.8404 40.9159 36.8556 40.8998 36.8764 40.8864C37.4506 41.5053 38.1387 41.8528 38.8592 41.8699C38.9612 41.8699 39.0622 41.8699 39.1689 41.863C40.3509 41.779 41.2176 41.1038 41.6362 40.4973C42.1578 39.7302 42.4896 38.7148 42.623 37.4788C42.6239 37.4701 42.6203 37.4627 42.6207 37.4539C42.6212 37.4452 42.6258 37.4382 42.6258 37.4295C42.6258 37.4059 42.6156 37.3861 42.6124 37.3635H42.6119ZM8.86287 40.9879C8.61456 41.2482 8.3081 41.3885 8.00856 41.3742C7.7141 41.3641 7.43994 41.2155 7.21517 40.9445C6.7864 40.4276 6.3641 39.0633 6.14994 37.891H9.97794C9.79563 39.043 9.51871 40.3007 8.86287 40.9879ZM13.8835 40.3653C13.7169 40.5832 13.5429 40.7604 13.3499 40.9081C12.641 41.455 11.5347 41.6212 10.7953 40.8859C10.6472 40.7345 10.4935 40.5282 10.337 40.2758C10.6167 39.5548 10.7801 38.7435 10.8992 37.9801L10.9126 37.891H14.8555C14.6676 38.7416 14.4032 39.6864 13.8835 40.3653ZM19.1686 40.1899C19.1575 40.2065 19.1469 40.2236 19.1381 40.2416L19.1339 40.2472C18.7859 40.7447 18.3669 41.0853 17.9326 41.2288C17.2735 41.4305 16.5876 41.4195 16.0079 41.1993C15.6142 41.0438 15.2201 40.7899 14.8767 40.5398C15.3484 39.7593 15.5972 38.8307 15.7786 37.9944L15.7998 37.8905H20.0192C19.8876 38.7596 19.5992 39.565 19.169 40.1895L19.1686 40.1899ZM23.9667 38.9502C23.8439 39.2548 23.6709 39.5368 23.4484 39.7921C22.8046 40.5448 21.8759 40.9062 21.0239 40.7378C20.7147 40.6759 20.4244 40.5462 20.1549 40.3538C20.5633 39.6439 20.8416 38.7928 20.9612 37.891H24.1883C24.1749 38.2639 24.1019 38.6193 23.9667 38.9502ZM28.2853 40.1276C28.2752 40.1405 28.2655 40.1544 28.2567 40.1687C28.199 40.237 28.1367 40.3012 28.0786 40.3616C27.7956 40.6464 27.4758 40.8352 27.1019 40.9395C26.3616 41.143 25.655 40.8956 25.5156 40.8425C25.1063 40.6902 24.7301 40.4258 24.3904 40.0648C24.5607 39.8225 24.7126 39.5696 24.8224 39.2968C25.0024 38.8552 25.0998 38.3839 25.1136 37.891H29.0861C29.0206 38.7628 28.739 39.5604 28.2853 40.1276ZM32.6159 39.811C32.4946 39.9905 32.3469 40.1572 32.1632 40.321C32.1549 40.3279 31.3559 41.0341 30.3992 40.9312C30.149 40.9062 29.9136 40.8305 29.6796 40.6999C29.5241 40.6122 29.3806 40.4973 29.243 40.3708C29.6829 39.685 29.9533 38.8164 30.0133 37.891H33.3318C33.2289 38.6221 32.9879 39.2908 32.6159 39.811ZM36.6373 39.9139C36.5436 39.9998 36.4435 40.0755 36.3276 40.1475C35.4456 40.7078 34.5323 40.4396 34.1843 40.3007C33.9798 40.2167 33.7873 40.0958 33.6009 39.9587C33.9466 39.3573 34.1695 38.6558 34.259 37.8905H37.7815C37.5687 38.7328 37.169 39.4524 36.6373 39.9135V39.9139ZM40.8752 39.9753C40.5936 40.3833 39.9609 40.8808 39.1084 40.9418C39.0253 40.9468 38.9427 40.9464 38.8707 40.9468C38.4221 40.9358 37.9726 40.7008 37.5756 40.2822C38.1299 39.6702 38.5287 38.8441 38.7304 37.8915H41.6275C41.4853 38.7375 41.237 39.4432 40.8752 39.9753Z" fill="#A68FF1"/>
<path d="M42.164 21.9895L41.3193 21.9909C40.3284 21.9946 39.3375 22.0084 38.347 22.0259C34.573 22.0929 30.799 22.1427 27.0255 22.1926L26.3549 22.2013C25.5066 22.2124 24.5452 22.2253 23.6535 22.5438C21.985 23.1401 22.5084 25.2646 22.7618 26.2924C22.8518 26.6575 22.9575 27.023 23.0641 27.3899C23.3937 28.5276 23.7052 29.6021 23.5667 30.7042C23.4237 31.8419 22.7784 32.8693 21.7958 33.5238C20.9609 34.079 19.8947 34.361 18.8027 34.3259C18.2281 34.3061 17.1629 34.1644 16.4867 33.443C16.0903 33.0198 15.8309 32.4101 15.6947 31.5779C15.4533 30.1047 15.6597 28.5932 15.8923 27.1712L15.9989 26.5333C16.0907 25.9906 16.1821 25.4473 16.2564 24.9018C16.3243 24.4029 16.4503 23.4742 15.769 22.8096C15.2249 22.2789 14.408 22.2281 13.969 22.2009C10.9423 22.0139 8.08904 22.2853 5.48642 23.0067C5.24088 23.075 5.09688 23.3293 5.16473 23.5749C5.23304 23.8204 5.48688 23.9635 5.73288 23.8966C8.23627 23.2024 10.9875 22.9426 13.9118 23.1226C14.354 23.1502 14.8487 23.2019 15.1243 23.4706C15.4155 23.7549 15.4247 24.1652 15.3417 24.7781C15.2687 25.3139 15.1787 25.847 15.0887 26.3801L14.9817 27.0226C14.7366 28.5202 14.5197 30.1167 14.7841 31.7275C14.9507 32.7461 15.2877 33.5136 15.8138 34.0744C16.483 34.7884 17.5335 35.2052 18.7709 35.2486C18.8461 35.2509 18.9213 35.2522 18.9966 35.2522C20.2035 35.2522 21.3717 34.9149 22.3077 34.2918C23.5137 33.4887 24.307 32.2227 24.4829 30.8187C24.6449 29.5278 24.2918 28.3102 23.9507 27.1329C23.8478 26.7779 23.7453 26.4244 23.6567 26.0649C23.378 24.9346 23.149 23.7046 23.9646 23.4133C24.7113 23.1466 25.5532 23.135 26.3673 23.1244L27.038 23.1152C30.8133 23.0653 34.5883 23.0155 38.3637 22.9486C39.35 22.931 40.3363 22.9172 41.323 22.9135L42.1644 22.9121C42.4192 22.9121 42.626 22.7053 42.626 22.4506C42.626 22.1958 42.4192 21.989 42.1644 21.989L42.164 21.9895Z" fill="#A68FF1"/>
<path d="M18.0375 32.5713C18.4168 32.7703 18.8853 32.8732 19.3648 32.8732C20.2155 32.8732 21.1011 32.5492 21.583 31.8615C22.5827 30.4358 21.8918 28.2227 21.4353 26.7583C21.3305 26.4227 21.2405 26.1333 21.1962 25.9307C20.3719 22.148 20.1693 17.2095 28.2522 6.43534C28.3971 6.24196 28.3685 5.96919 28.1862 5.81042C28.0039 5.65119 27.7302 5.65996 27.5581 5.83027C21.9965 11.335 18.5511 17.2746 17.3175 23.4855C16.645 26.8709 15.9878 31.496 18.0375 32.5713Z" fill="#A68FF1"/>
<path d="M14.9708 17.9304C15.0756 17.953 15.1799 17.9641 15.2819 17.9641C15.9262 17.9641 16.4985 17.5265 16.7334 16.8185C16.846 16.4789 16.8645 16.1502 16.8825 15.8322C16.8871 15.7496 16.8917 15.667 16.8987 15.5844C16.9153 15.3739 16.9144 15.1625 16.9134 14.9512C16.9125 14.7596 16.9107 14.5681 16.9268 14.377C16.961 13.9745 17.0436 13.5781 17.1728 13.1978C17.339 12.7095 17.5836 12.2221 17.9205 11.7079C18.3188 11.1001 18.827 10.4839 19.4736 9.82439C19.823 9.46808 20.1977 9.11408 20.6191 8.74254C20.8005 8.58285 20.8277 8.31008 20.6819 8.11762C20.5356 7.92516 20.2656 7.87716 20.063 8.00962C17.5217 9.65824 15.7457 11.6442 14.7839 13.9118C14.4802 14.629 14.2485 15.2419 14.1073 15.9019C14.0468 16.1867 13.985 16.5624 14.0464 16.9482C14.128 17.4629 14.465 17.8205 14.9708 17.9304Z" fill="#A68FF1"/>
<path d="M25.2728 13.8147C24.6673 15.2432 24.0793 16.9702 24.9101 17.6529C25.1455 17.8462 25.4893 17.963 25.8341 17.963C26.1442 17.963 26.4548 17.8684 26.6865 17.6505C27.2801 17.0925 27.1841 16.1136 27.1204 15.4661C27.1084 15.3419 27.0968 15.2353 27.0964 15.1578C27.0853 14.0441 27.0673 12.1809 31.2212 8.51993C31.4025 8.36024 31.4298 8.08747 31.2839 7.89501C31.1381 7.70255 30.8676 7.65501 30.665 7.78701C28.0689 9.47162 26.2545 11.4996 25.2733 13.8152L25.2728 13.8147Z" fill="#A68FF1"/>
<path d="M5.88917 20.5717C5.92978 20.5764 6.28655 20.6156 6.81778 20.6156C7.09009 20.6156 7.40763 20.6054 7.75194 20.575H16.6467C16.8941 20.575 17.0976 20.3797 17.1078 20.1328C17.1179 19.8854 16.9315 19.6741 16.6846 19.6537C15.9692 19.5942 15.2681 19.3039 14.5896 19.0228C13.3209 18.4967 11.8827 17.9008 10.2724 18.8941C9.48455 19.3801 8.50655 19.5785 7.68455 19.6524H5.94132C5.69671 19.6524 5.49455 19.8434 5.48025 20.0871C5.4664 20.3313 5.64501 20.5441 5.88825 20.5722L5.88917 20.5717Z" fill="#A68FF1"/>
<path d="M42.8525 20.113C42.8525 20.089 42.8423 20.0687 42.8391 20.0461C42.8345 20.0152 42.8317 19.9852 42.8211 19.9566C42.8109 19.9284 42.7953 19.9049 42.78 19.8795C42.7648 19.8541 42.7509 19.8287 42.7311 19.807C42.7113 19.7849 42.6877 19.7687 42.6637 19.7507C42.6402 19.7332 42.618 19.7152 42.5913 19.7018C42.5636 19.6884 42.5336 19.6824 42.5031 19.6746C42.4809 19.669 42.462 19.657 42.4385 19.6543C41.8099 19.5897 41.4748 19.2864 41.0862 18.9347C40.6957 18.5817 40.2536 18.1815 39.5322 18.151C38.8805 18.1289 38.2293 18.4293 37.5402 18.7533C36.7233 19.1364 35.8777 19.5273 34.896 19.4955C33.8262 19.454 33.1034 18.9952 32.4042 18.5517C31.7465 18.1344 31.0666 17.7029 30.1791 17.7029H30.1606C29.442 17.7075 29.0073 17.9655 28.5476 18.2387C28.1562 18.4709 27.7126 18.7344 26.9386 18.9638C25.4622 19.4013 24.0397 19.6695 23.2306 19.6524H23.2233C23.1245 19.6524 23.0382 19.6903 22.9634 19.7429C22.8443 19.8241 22.7645 19.9506 22.7617 20.1066L22.7626 20.1103L22.7617 20.114C22.7617 20.1435 22.7733 20.1689 22.7783 20.197C22.7843 20.2284 22.7853 20.2612 22.7973 20.2903C22.8083 20.317 22.8282 20.3378 22.8439 20.3618C22.8605 20.3877 22.8734 20.4158 22.8951 20.4375C22.9149 20.4573 22.9408 20.4693 22.9639 20.4855C22.9893 20.5035 23.0119 20.5247 23.0409 20.5377C23.0673 20.5492 23.0977 20.5501 23.1263 20.5561C23.1563 20.5626 23.184 20.5755 23.2163 20.576C23.2399 20.576 23.2634 20.576 23.2874 20.576H42.3919C42.4136 20.576 42.432 20.5663 42.4533 20.563C42.4874 20.5584 42.5206 20.5547 42.5525 20.5432C42.5765 20.5344 42.5968 20.5206 42.6185 20.5077C42.6476 20.491 42.6757 20.4749 42.7006 20.4523C42.7209 20.4338 42.7357 20.4116 42.7528 20.3895C42.7717 20.365 42.7902 20.342 42.804 20.3133C42.8174 20.2857 42.8234 20.2561 42.8313 20.2257C42.8368 20.2035 42.8488 20.1841 42.8516 20.1606C42.8525 20.1523 42.8488 20.1453 42.8493 20.137C42.8493 20.1287 42.8539 20.1218 42.8539 20.1135L42.8525 20.113Z" fill="#A68FF1"/>
</svg>
