<svg width="48" height="48" viewBox="0 0 48 48" fill="none" xmlns="http://www.w3.org/2000/svg">
<path d="M25.1875 29.2339C23.5237 28.6888 22.2291 27.9176 21.2257 27.0886C21.1731 27.0369 21.1334 27.0046 21.1145 26.9908C21.1121 26.9889 21.1089 26.9889 21.1061 26.9871C18.6235 24.8746 17.9958 22.4349 17.9875 22.4003C17.928 22.1529 17.6792 22.0006 17.4314 22.0597C17.1835 22.1188 17.0308 22.3676 17.0898 22.6159C17.1138 22.7169 17.406 23.8726 18.3475 25.2951C18.7454 27.2589 17.7895 27.7445 17.7346 27.7703C17.5038 27.87 17.3954 28.1368 17.4918 28.3699C17.5652 28.548 17.7369 28.6556 17.9183 28.6556C17.9774 28.6556 18.0369 28.644 18.0946 28.6205C18.1509 28.5969 19.1885 28.1396 19.3468 26.5879C19.7211 27.0056 20.1549 27.426 20.6543 27.8331C20.9169 28.1548 21.5972 29.2436 21.6194 31.9076C21.6217 32.1609 21.8275 32.3654 22.0809 32.3654H22.0846C22.3398 32.3636 22.5448 32.1549 22.5425 31.9002C22.5318 30.5843 22.3694 29.6068 22.1589 28.8799C22.9495 29.3474 23.8569 29.7693 24.9005 30.1113C24.9485 30.1269 24.9965 30.1343 25.0445 30.1343C25.2388 30.1343 25.4192 30.0106 25.4829 29.8163C25.5623 29.574 25.4298 29.3133 25.1875 29.2339Z" fill="#A68FF1"/>
<path d="M17.3782 9.82941C17.4433 10.0182 17.6205 10.1405 17.8139 10.1405C17.8425 10.1405 17.8716 10.1377 17.9007 10.1322L19.5677 9.81556C19.7879 9.77402 19.9457 9.58018 19.943 9.35587L19.8885 5.18726C19.8853 4.93249 19.6771 4.72895 19.421 4.73172C19.1657 4.73495 18.9622 4.94449 18.9654 5.19926L19.0148 8.98018L18.1204 9.15003L16.8922 5.58464C16.8091 5.34326 16.5451 5.21587 16.3056 5.29849C16.0647 5.38156 15.9364 5.64418 16.0194 5.8851L17.3773 9.82803L17.3782 9.82941Z" fill="#A68FF1"/>
<path d="M31.5286 31.0749C31.5664 30.8229 31.3929 30.5875 31.1404 30.5497C30.8893 30.51 30.6535 30.6854 30.6152 30.9374L30.4449 32.0695C29.6506 31.1644 28.769 30.6475 28.6961 30.606C28.4764 30.48 28.1935 30.5557 28.067 30.7768C27.9401 30.9978 28.0163 31.2794 28.2369 31.4067C28.2669 31.4243 31.2613 33.1846 30.7453 35.7941C30.6964 36.0443 30.8589 36.2871 31.1086 36.3364C31.1386 36.3424 31.169 36.3452 31.1986 36.3452C31.4146 36.3452 31.6075 36.1929 31.6509 35.9732C31.8636 34.8955 31.6264 33.9572 31.2124 33.1758L31.5286 31.0749Z" fill="#A68FF1"/>
<path d="M35.7098 15.7113C34.4959 15.7113 33.3559 16.0159 32.359 16.5559C31.5116 15.5816 30.5193 14.7148 29.3821 13.9833C29.8381 13.8956 30.3232 13.8351 30.8479 13.8143C30.8548 13.8143 30.8608 13.8102 30.8678 13.8097C30.9822 13.7973 31.0962 13.7783 31.2093 13.7437C32.3415 13.3953 32.9253 12.0157 32.5108 10.6685C32.1218 9.40341 30.9878 8.60957 29.9147 8.80572C28.2444 8.99311 26.7232 9.43203 25.369 10.0006C25.3367 9.94526 25.2947 9.89495 25.2388 9.85572C24.2341 9.14495 22.6528 9.10018 21.823 9.13295L22.0242 4.88588C22.0362 4.63111 21.8396 4.41511 21.5848 4.40311C21.3458 4.40034 21.1141 4.58726 21.1021 4.84249L20.8768 9.60834C20.8704 9.74357 20.9244 9.87511 21.0232 9.96741C21.1219 10.0597 21.2544 10.1045 21.3919 10.0883C21.4118 10.0856 23.2602 9.88064 24.4081 10.4382C23.3885 10.939 22.4788 11.5011 21.6887 12.0646C21.4999 12.0886 21.2128 12.1293 20.8501 12.1943L20.8464 12.1953C20.1707 12.2742 19.6145 12.403 19.1498 12.5566C19.1308 12.5613 19.111 12.5654 19.0921 12.57C19.0787 12.5733 19.0685 12.583 19.0556 12.5876C17.9253 12.9794 17.3747 13.5166 17.0618 13.8236C16.3764 14.496 16.2444 15.2765 16.1165 16.032C15.9956 16.7474 15.8816 17.4231 15.2835 18.0282C14.5616 18.7579 13.4138 19.1493 12.9227 18.8331C12.2848 18.4242 12.5567 16.7396 12.6458 16.1862C13.0293 13.8046 14.5939 12.025 15.8382 10.9514C15.9868 10.8231 16.0385 10.614 15.9652 10.4313L14.5284 6.81926C14.4342 6.58249 14.1679 6.46618 13.9288 6.5608C13.6921 6.65495 13.5762 6.92357 13.6708 7.16034L14.9881 10.471C14.695 10.7368 14.3908 11.0391 14.0904 11.3728C12.5908 10.411 10.6062 9.67434 8.16931 9.18741C8.12638 9.17403 8.09315 9.16941 8.05715 9.16341C7.61085 9.07988 7.13869 9.15649 6.69331 9.39972C6.15561 9.69372 5.71946 10.1936 5.46515 10.8074C5.21038 11.4217 5.16561 12.0836 5.33777 12.6716C5.52054 13.296 5.92346 13.7645 6.47131 13.9916C6.61115 14.0497 6.75608 14.0834 6.90331 14.106L7.051 14.1268C9.10023 14.4226 10.6953 14.9326 11.8118 15.6383C11.7836 15.7703 11.7568 15.9033 11.7352 16.039C11.6327 16.6768 11.4264 17.9585 11.8173 18.8677C11.2487 20.436 11.0313 22.1557 11.2173 23.724C11.6498 27.4173 13.9072 31.1063 17.4181 34.0108C17.2833 37.8683 13.5772 37.9643 13.417 37.9662C13.1622 37.9676 12.9568 38.1757 12.9587 38.4305C12.9605 38.6843 13.1664 38.8893 13.4202 38.8893H13.4235C13.4696 38.8893 17.7485 38.8103 18.2959 34.7022C18.8798 35.1383 19.4932 35.5542 20.1347 35.9451C20.2685 36.0259 20.4499 36.133 20.6627 36.2548C19.0985 38.2246 20.401 41.1051 21.3933 42.4431C21.4838 42.5654 21.6232 42.6296 21.7644 42.6296C21.8599 42.6296 21.9564 42.6 22.039 42.5386C22.2435 42.3873 22.2868 42.0983 22.1355 41.8934C22.1105 41.8597 19.7604 38.6248 21.4861 36.7057C23.4222 37.7266 26.7661 39.2082 29.8967 39.2082C31.8444 39.2082 33.7044 38.6359 35.089 37.0251C36.049 35.9082 36.6444 34.3666 36.8013 32.5666C36.8798 31.662 36.9121 30.7113 36.889 29.7282C40.2213 29.1697 42.769 26.262 42.769 22.7682C42.769 18.8774 39.6028 15.7113 35.7121 15.7113H35.7098ZM8.701 13.4926C9.00792 13.212 9.26361 12.8608 9.433 12.4519C9.68777 11.838 9.73254 11.1757 9.56038 10.5877C9.54562 10.5374 9.52069 10.4954 9.50361 10.447C11.0927 10.8711 12.4293 11.4199 13.495 12.0863C12.925 12.834 12.4099 13.711 12.067 14.7106C11.179 14.197 10.0552 13.7913 8.701 13.4926ZM35.8759 32.4882C35.779 33.6097 35.4421 35.1974 34.3852 36.4251C32.9544 38.0913 30.7113 38.6405 27.7205 38.0636C24.6328 37.4636 21.7205 35.8297 20.6128 35.1559C15.8082 32.2251 12.6375 27.9097 12.1344 23.6174C11.9848 22.345 12.1233 20.9617 12.5225 19.6625C12.7755 19.7986 13.0625 19.8642 13.3676 19.8642C14.2519 19.8642 15.2715 19.3523 15.9388 18.6771C16.7424 17.8643 16.8928 16.9726 17.0258 16.1853C17.1379 15.5202 17.2348 14.9451 17.707 14.4826C17.9844 14.2103 18.427 13.777 19.3662 13.4539C19.6261 13.3888 19.8887 13.327 20.155 13.2702C18.8627 14.389 18.133 15.2982 18.0601 15.3914C17.9022 15.5917 17.9364 15.8816 18.1367 16.0394C18.2216 16.1063 18.3222 16.1382 18.4219 16.1382C18.5585 16.1382 18.6938 16.0777 18.7847 15.9623C18.8253 15.9116 22.5328 11.2865 28.4992 9.9748C28.2453 10.5402 28.1908 11.239 28.4036 11.9322C28.5462 12.3956 28.7918 12.7906 29.0941 13.1022C28.7355 13.176 28.3935 13.266 28.0708 13.3731L28.0593 13.3773C22.8028 15.1306 22.2056 20.9816 22.1992 21.0494C22.1761 21.3033 22.3635 21.5276 22.6173 21.5502C22.6312 21.5511 22.6455 21.552 22.6593 21.552C22.8956 21.552 23.0968 21.3716 23.1185 21.1316C23.1402 20.8865 23.6475 15.9402 28.1479 14.3183C29.4813 15.0526 30.6172 15.9831 31.5693 17.0543C29.8016 18.3374 28.6478 20.4236 28.6478 22.7682C28.6478 26.6636 31.8139 29.8297 35.7093 29.8297C35.797 29.8297 35.8801 29.8297 35.9632 29.8251C35.9816 30.7436 35.9498 31.639 35.8759 32.4882ZM36.8405 28.8005C36.5452 28.8559 36.2405 28.8928 35.9267 28.902C35.8575 28.9066 35.7836 28.9066 35.7098 28.9066C32.3267 28.9066 29.5713 26.1513 29.5713 22.7682C29.5713 20.7051 30.5959 18.882 32.1605 17.7697C32.4098 17.5897 32.6775 17.4282 32.9544 17.2897C33.7805 16.8697 34.7175 16.6343 35.7098 16.6343C39.0928 16.6343 41.8436 19.3851 41.8436 22.7682C41.8436 25.7636 39.6836 28.2697 36.8405 28.8005Z" fill="#A68FF1"/>
<path d="M39.5728 22.2744L40.7036 21.1436C40.6851 21.0836 40.6713 21.0282 40.6482 20.9728C40.4913 20.539 40.2836 20.1328 40.0205 19.7636C39.9097 19.602 39.7897 19.4544 39.6605 19.3113L38.1328 20.839L39.5728 22.2744Z" fill="#A68FF1"/>
<path d="M34.4588 19.662L35.2157 18.905L34.0757 17.7697C33.868 17.8389 33.6696 17.9173 33.4757 18.0097C33.1942 18.1389 32.9265 18.2958 32.6773 18.4758C32.5296 18.582 32.3865 18.6973 32.248 18.8173L33.7757 20.345L34.4588 19.662Z" fill="#A68FF1"/>
<path d="M30.5175 21.9327C30.4759 22.1681 30.4529 22.4081 30.4529 22.6574C30.4482 22.6943 30.4482 22.7312 30.4482 22.7681C30.4482 22.9666 30.4575 23.1604 30.4852 23.3543C30.4898 23.4374 30.5036 23.5204 30.5175 23.6035L31.3529 22.7681L30.5175 21.9327Z" fill="#A68FF1"/>
<path d="M33.282 20.839L31.7543 19.3113C31.6296 19.4544 31.505 19.602 31.3989 19.7636C31.1266 20.142 30.9143 20.5528 30.7573 20.9913C30.7389 21.042 30.7296 21.0928 30.7112 21.1436L31.8466 22.2744L33.282 20.839Z" fill="#A68FF1"/>
<path d="M38.1328 24.702L39.6605 26.2297C39.7897 26.082 39.9097 25.9297 40.0205 25.7727C40.3159 25.3527 40.5467 24.8912 40.7036 24.3973L39.5728 23.262L38.1328 24.702Z" fill="#A68FF1"/>
<path d="M36.5682 26.2666L36.2036 26.6312L36.6928 27.1204L37.339 27.7666C38.0221 27.545 38.6405 27.185 39.1667 26.7235L37.639 25.1958L36.5682 26.2666Z" fill="#A68FF1"/>
<path d="M33.7757 25.1958L32.248 26.7235C32.7742 27.185 33.3973 27.545 34.0757 27.7666L35.2157 26.6312L33.7757 25.1958Z" fill="#A68FF1"/>
<path d="M37.639 20.345L39.1667 18.8173C38.6405 18.3512 38.0221 17.9912 37.339 17.7697L36.2036 18.905L37.639 20.345Z" fill="#A68FF1"/>
<path d="M40.962 22.6574C40.962 22.4128 40.9343 22.1728 40.8974 21.9374L40.062 22.7681L40.8974 23.6035C40.9112 23.5205 40.9251 23.4374 40.9343 23.3543C40.9574 23.1605 40.9666 22.9666 40.9666 22.7681C40.9666 22.7312 40.9666 22.6943 40.962 22.6574Z" fill="#A68FF1"/>
<path d="M35.7098 26.1373L37.1452 24.702L35.9775 23.5297L35.7098 23.262L34.2698 24.702L35.599 26.0266L35.7098 26.1373Z" fill="#A68FF1"/>
<path d="M36.5404 17.5805C36.2681 17.5389 35.9912 17.5112 35.705 17.5112C35.4235 17.5112 35.1466 17.5389 34.8743 17.5805L35.7097 18.4112L36.5404 17.5805Z" fill="#A68FF1"/>
<path d="M35.7097 27.1251L34.8789 27.9559C35.1466 28.002 35.4235 28.0297 35.7051 28.0297C35.7558 28.0297 35.8112 28.0297 35.862 28.0251C36.0928 28.0205 36.3189 27.9928 36.5404 27.9559L35.7743 27.1897L35.7097 27.1251Z" fill="#A68FF1"/>
<path d="M32.3406 22.7681L33.776 24.2081L35.216 22.7681L33.776 21.3328L32.3406 22.7681Z" fill="#A68FF1"/>
<path d="M37.1452 20.8389L35.7098 19.3989L34.2698 20.8389L35.7098 22.2743L37.1452 20.8389Z" fill="#A68FF1"/>
<path d="M31.8466 23.262L30.7112 24.3973C30.8727 24.8912 31.0989 25.3573 31.3943 25.7727C31.505 25.9297 31.625 26.082 31.7543 26.2297L33.282 24.702L31.8466 23.262Z" fill="#A68FF1"/>
<path d="M39.079 22.7681L37.639 21.3328L36.2036 22.7681L37.639 24.2081L39.079 22.7681Z" fill="#A68FF1"/>
<path d="M18.8115 38.8828C18.8281 38.6904 18.7229 38.508 18.5484 38.4259C18.3726 38.3437 18.1663 38.3784 18.0287 38.514C16.951 39.5719 15.2521 40.3145 15.235 40.3219C15.001 40.423 14.894 40.6948 14.9946 40.9284C15.0961 41.1619 15.367 41.2699 15.601 41.1688C15.6606 41.143 16.7794 40.6547 17.8395 39.8756C17.8187 40.6528 17.8201 41.8044 17.9194 43.1687C17.9369 43.4114 18.1395 43.597 18.379 43.597C18.3901 43.597 18.4017 43.597 18.4127 43.596C18.667 43.5776 18.8581 43.3565 18.8397 43.1022C18.6638 40.6759 18.8101 38.9004 18.811 38.8824L18.8115 38.8828Z" fill="#A68FF1"/>
</svg>
