<svg width="48" height="48" viewBox="0 0 48 48" fill="none" xmlns="http://www.w3.org/2000/svg">
<path d="M20.4693 28.4262L22.6408 30.0397C22.7239 30.1011 22.8203 30.1307 22.9159 30.1307C23.0571 30.1307 23.196 30.066 23.287 29.9447C23.4388 29.7402 23.3963 29.4508 23.1919 29.299L21.042 27.7011C21.337 27.1888 21.4754 26.5939 21.4339 25.999L21.4247 25.8882V25.8845L24.1025 24.9425C24.343 24.858 24.4694 24.5945 24.3845 24.354C24.3 24.1136 24.0374 23.9885 23.796 24.072L21.235 24.9734C21.0134 24.3882 20.6123 23.8814 20.0825 23.5265L21.6785 21.714C21.847 21.5225 21.8285 21.2313 21.6374 21.0623C21.4459 20.8939 21.1542 20.9128 20.9862 21.1034L19.2148 23.1148H19.2139C19.1816 23.1005 19.1447 23.0913 19.1123 23.0825C17.6123 22.6856 16.4128 21.6333 15.8077 20.2722L18.4117 19.5065C18.6559 19.4345 18.7962 19.1779 18.7242 18.9333C18.6527 18.6891 18.3997 18.5483 18.1514 18.6208L15.5031 19.3994C15.4293 19.1225 15.3877 18.8363 15.3647 18.5456C15.2908 17.4808 15.5534 16.4483 16.0782 15.5765L18.7436 16.6639C18.8008 16.6874 18.8599 16.6985 18.918 16.6985C19.0999 16.6985 19.2725 16.59 19.3454 16.411C19.4419 16.1747 19.3283 15.9056 19.0925 15.8091L16.6413 14.809L16.6431 14.8067C17.1277 14.2667 17.7323 13.819 18.4339 13.5236C18.9185 13.3205 19.3293 13.0067 19.6431 12.6236L19.6445 12.6213L20.731 13.4862C20.8163 13.5536 20.9174 13.5868 21.018 13.5868C21.1537 13.5868 21.2885 13.5273 21.3794 13.4128C21.5382 13.2134 21.505 12.9231 21.306 12.7643L20.1236 11.8228C20.2893 11.4125 20.3627 10.9657 20.3303 10.5097L20.3165 10.3113C20.298 10.0256 20.238 9.74866 20.1416 9.48604L22.0094 8.49881C22.2347 8.37973 22.3214 8.1005 22.2019 7.87481C22.0833 7.64958 21.805 7.56327 21.5779 7.68235L19.6939 8.67835V8.67742C19.4765 8.39589 19.2088 8.15127 18.9042 7.95742C18.5488 7.73127 18.1611 7.58819 17.7642 7.52819H17.7623L17.5967 5.19604C17.5787 4.94173 17.3557 4.75296 17.1042 4.76819C16.8494 4.78619 16.6583 5.00727 16.6763 5.26112L16.8379 7.53696H16.8365C16.6334 7.57389 16.435 7.62927 16.2365 7.70773C15.7385 7.90619 15.259 8.1365 14.8067 8.39958L13.5037 6.10066C13.3777 5.87912 13.0976 5.80158 12.8747 5.92666C12.6531 6.05219 12.5751 6.33419 12.7007 6.55573L14.023 8.88835L14.0216 8.88927C13.3339 9.35542 12.7108 9.89542 12.1523 10.4954L12.151 10.4968L10.3463 8.55558C10.1723 8.36866 9.88019 8.3585 9.69419 8.53158C9.50773 8.70512 9.49665 8.99727 9.67019 9.18373L11.5468 11.2025C11.0303 11.8528 10.5919 12.559 10.237 13.3108V13.3117L7.69619 12.3143C7.45896 12.2207 7.1908 12.3379 7.09804 12.5751C7.0048 12.8123 7.12157 13.08 7.35881 13.1733L9.87188 14.1596C9.51696 15.096 9.28157 16.0874 9.18927 17.1111L6.50542 17.0243C6.27327 17.0188 6.03742 17.2159 6.02957 17.4707C6.0208 17.7254 6.22111 17.9387 6.47588 17.947L9.14311 18.0333C9.13388 18.3467 9.14311 18.6647 9.16619 18.9827C9.20773 19.5402 9.28619 20.088 9.40573 20.6179L6.89865 21.0462C6.64711 21.0891 6.47819 21.3277 6.52157 21.5788C6.55988 21.8036 6.75511 21.9628 6.97573 21.9628C7.00157 21.9628 7.02742 21.961 7.05373 21.9563L9.63696 21.5151V21.5165C9.9005 22.3657 10.2559 23.178 10.7036 23.9303V23.934L8.52096 25.1543C8.29896 25.279 8.21911 25.56 8.34327 25.7825C8.42819 25.9334 8.58465 26.0188 8.74665 26.0188C8.8228 26.0188 8.90034 25.9999 8.97142 25.9602L11.2043 24.7117L11.2062 24.715C11.64 25.3288 12.1339 25.8965 12.6785 26.4042L12.6799 26.4056L10.9953 28.5476C10.8374 28.7479 10.872 29.0382 11.0728 29.1956C11.1577 29.262 11.2579 29.2943 11.3576 29.2943C11.4947 29.2943 11.6299 29.2339 11.7208 29.118L13.3796 27.0088C14.0114 27.5165 14.7033 27.9545 15.4454 28.314L15.0176 31.2102C14.9802 31.4622 15.1547 31.6971 15.4067 31.734C15.4297 31.7373 15.4523 31.7391 15.4745 31.7391C15.6997 31.7391 15.8968 31.5743 15.9305 31.345L16.3214 28.699C16.7825 28.8785 17.2662 29.0308 17.7591 29.1503C17.9899 29.2057 18.2253 29.2334 18.456 29.2334C19.1483 29.2334 19.813 28.9888 20.3622 28.5273C20.3991 28.495 20.436 28.4673 20.4683 28.4257L20.4693 28.4262ZM20.0479 27.5368C19.9653 27.6379 19.8734 27.7343 19.7682 27.8216C19.2651 28.2508 18.6097 28.4077 17.9774 28.2554C17.3562 28.1045 16.7622 27.8987 16.195 27.6485C16.1885 27.6443 16.1802 27.6434 16.1733 27.6397C16.1423 27.6263 16.1114 27.6134 16.0851 27.6C12.6928 26.0447 10.3574 22.7585 10.0851 18.9185C9.76665 14.4 12.3743 10.2416 16.579 8.56619C16.8143 8.47389 17.0497 8.42312 17.2943 8.4185H17.3183C17.3225 8.4185 17.3262 8.42081 17.3308 8.42081C17.3414 8.42081 17.353 8.42081 17.3636 8.41989L17.3668 8.41896C17.7305 8.42866 18.0891 8.53481 18.4113 8.73696C18.72 8.93035 18.9642 9.18835 19.135 9.4925L19.1359 9.49527L19.1373 9.49758C19.284 9.75973 19.3759 10.0583 19.399 10.3754L19.4128 10.5739C19.4405 10.98 19.3436 11.377 19.1543 11.7231C19.1451 11.7323 19.1405 11.7416 19.1359 11.7508C18.9005 12.1523 18.5359 12.48 18.0743 12.6739C17.0359 13.117 16.1728 13.8231 15.5497 14.7C15.5313 14.7231 15.5128 14.7462 15.499 14.7739C14.7374 15.8677 14.3451 17.2108 14.442 18.6093C14.479 19.1123 14.5759 19.6016 14.7328 20.0677C14.7328 20.0708 14.7343 20.0739 14.7374 20.077C14.7388 20.082 14.7411 20.0871 14.7425 20.0927C14.7434 20.0963 14.7425 20.0996 14.7434 20.1028C14.7453 20.1093 14.7494 20.1139 14.7517 20.1199C14.7573 20.1383 14.7619 20.1582 14.7697 20.1734C15.4159 22.0103 16.9343 23.455 18.8774 23.9719C18.9877 23.9996 19.0939 24.0365 19.195 24.0822L19.1977 24.0836C19.2 24.0836 19.2014 24.0836 19.2051 24.0873C19.8651 24.3734 20.3451 24.9596 20.4697 25.6473C20.4836 25.7211 20.4928 25.7903 20.4974 25.8642L20.5113 26.0627C20.5482 26.6073 20.382 27.1242 20.0497 27.535L20.0483 27.5363L20.0479 27.5368Z" fill="#A68FF1"/>
<path d="M17.8638 25.3052C17.3907 25.3389 17.0344 25.7492 17.0681 26.2223C17.1018 26.6953 17.5121 27.0516 17.9852 27.018C18.4583 26.9843 18.8146 26.574 18.7809 26.1009C18.7472 25.6278 18.3369 25.2715 17.8638 25.3052Z" fill="#A68FF1"/>
<path d="M14.9705 23.6224C14.4974 23.6561 14.1411 24.0664 14.1748 24.5395C14.2085 25.0126 14.6188 25.3689 15.0919 25.3352C15.565 25.3015 15.9213 24.8912 15.8876 24.4181C15.8539 23.9451 15.4436 23.5888 14.9705 23.6224Z" fill="#A68FF1"/>
<path d="M13.1307 20.9183C12.6576 20.952 12.3013 21.3623 12.335 21.8354C12.3687 22.3085 12.779 22.6648 13.252 22.6311C13.7251 22.5974 14.0814 22.1871 14.0477 21.714C14.014 21.241 13.6037 20.8847 13.1307 20.9183Z" fill="#A68FF1"/>
<path d="M13.3971 18.1634C13.3634 17.6903 12.9531 17.334 12.48 17.3677C12.007 17.4014 11.6506 17.8117 11.6843 18.2848C11.718 18.7578 12.1283 19.1141 12.6014 19.0805C13.0745 19.0468 13.4308 18.6365 13.3971 18.1634Z" fill="#A68FF1"/>
<path d="M12.5438 13.7728C12.2331 14.131 12.2715 14.6733 12.6296 14.9839C12.9878 15.2945 13.5301 15.2562 13.8407 14.898C14.1513 14.5399 14.113 13.9976 13.7548 13.687C13.3967 13.3763 12.8544 13.4146 12.5438 13.7728Z" fill="#A68FF1"/>
<path d="M15.7547 12.24C16.2288 12.24 16.6132 11.8556 16.6132 11.3815C16.6132 10.9074 16.2288 10.5231 15.7547 10.5231C15.2806 10.5231 14.8962 10.9074 14.8962 11.3815C14.8962 11.8556 15.2806 12.24 15.7547 12.24Z" fill="#A68FF1"/>
<path d="M41.5315 30.7296L38.8297 30.3516C38.9446 29.5361 38.9769 28.7021 38.9169 27.8593L41.6806 26.7535C41.9178 26.6589 42.0328 26.3903 41.9381 26.1535C41.8431 25.9167 41.5731 25.8023 41.3382 25.8964L38.8066 26.9095V26.9076C38.7369 26.4507 38.6354 25.9938 38.5061 25.5415C38.2292 24.5723 37.5277 23.8199 36.5815 23.4738C36.5354 23.4553 36.4892 23.4415 36.4431 23.4323L36.7532 20.6686C36.7818 20.4152 36.5991 20.1872 36.3457 20.1586C36.0895 20.1295 35.8643 20.3123 35.8357 20.5656L35.5306 23.2846H35.5297C34.9205 23.2846 34.3205 23.4692 33.7989 23.8246L33.7343 23.8661L33.7325 23.8675L31.5355 21.9983C31.3417 21.8335 31.0505 21.8566 30.8848 22.0509C30.72 22.2447 30.7431 22.5364 30.9369 22.7016L33.048 24.4975L33.0471 24.4984C32.6455 24.9923 32.4101 25.6061 32.364 26.2523V26.2541L29.9441 25.7773C29.694 25.7279 29.4512 25.8904 29.4018 26.141C29.3529 26.3912 29.5154 26.6339 29.7655 26.6829L32.4383 27.2095C32.4475 27.2547 32.4563 27.2963 32.4701 27.3369C32.8809 28.8549 32.5671 30.4416 31.6865 31.6735L29.6737 29.7696C29.4891 29.5952 29.1965 29.6021 29.0211 29.7881C28.8457 29.9732 28.8545 30.2653 29.0391 30.4407L31.086 32.3764C30.8783 32.5799 30.6475 32.7646 30.3983 32.9353C29.5121 33.5399 28.4829 33.8538 27.4168 33.8261L27.0083 30.9272C26.9728 30.6752 26.7448 30.497 26.4868 30.5344C26.2343 30.5699 26.0585 30.8035 26.094 31.0559L26.4969 33.9143C25.9537 34.0435 25.4608 34.3153 25.0597 34.7016L22.3177 32.7073C22.1109 32.5569 21.8225 32.6026 21.6734 32.8089C21.5234 33.0152 21.5686 33.3036 21.7754 33.4536L24.492 35.4299L24.4906 35.4323C24.3568 35.6722 24.2506 35.9353 24.1814 36.2123C24.1029 36.5215 24.0752 36.8353 24.0937 37.1446V37.1464L20.6829 37.451C20.4291 37.4736 20.2417 37.6979 20.2643 37.9518C20.286 38.1918 20.4868 38.3723 20.7235 38.3723C20.7369 38.3723 20.7512 38.3718 20.7651 38.3704L24.2797 38.0566C24.3812 38.351 24.5331 38.627 24.7265 38.8846C24.8603 39.0646 25.0126 39.2261 25.1834 39.3692L25.1871 39.3719C25.1386 39.4227 25.0975 39.4813 25.0754 39.5533L24.1998 42.4407C24.126 42.6844 24.264 42.9424 24.5077 43.0163C24.5525 43.0296 24.5972 43.0361 24.6415 43.0361C24.84 43.0361 25.0228 42.9078 25.0832 42.7084L25.9481 39.857L25.95 39.8579C26.3008 40.0149 26.6838 40.1072 27.0808 40.121C27.2238 40.1256 27.3715 40.1256 27.5146 40.1256C27.8192 40.1256 28.1234 40.1118 28.428 40.0887L28.854 42.8418C28.8891 43.0698 29.0857 43.2327 29.3095 43.2327C29.3331 43.2327 29.3571 43.2309 29.3806 43.2272C29.6321 43.1884 29.8048 42.9526 29.766 42.7006L29.3441 39.9733H29.3469C30.3665 39.8113 31.3583 39.5072 32.2948 39.0687L33.5945 41.4756C33.678 41.6303 33.8368 41.7179 34.0011 41.7179C34.0749 41.7179 34.1501 41.6999 34.2203 41.6626C34.4441 41.5416 34.5281 41.2615 34.4068 41.0372L33.1172 38.6487H33.1181C33.3997 38.4913 33.6766 38.3206 33.9443 38.1359C34.4151 37.8175 34.8535 37.4667 35.2597 37.0883L35.2606 37.0873L36.9231 39.0747C37.014 39.1836 37.1451 39.2399 37.2775 39.2399C37.3818 39.2399 37.4866 39.2044 37.5734 39.1324C37.7691 38.969 37.7945 38.6778 37.6311 38.4821L35.9178 36.4343C36.5354 35.7659 37.0652 35.033 37.5032 34.2539L39.6969 35.549C39.7708 35.5924 39.8515 35.6132 39.9314 35.6132C40.0892 35.6132 40.2434 35.5319 40.3292 35.3861C40.4585 35.1664 40.386 34.8839 40.1663 34.7543L37.9181 33.4269C38.2366 32.7304 38.4854 32.0058 38.6561 31.2586L41.406 31.6426C41.4277 31.6458 41.4494 31.6472 41.4706 31.6472C41.6972 31.6472 41.8952 31.4806 41.9271 31.2498C41.9622 30.9973 41.7863 30.7638 41.5338 30.7287L41.5315 30.7296ZM33.4246 37.3749C31.5508 38.6533 29.3631 39.2856 27.1108 39.1979C26.46 39.1749 25.8554 38.8564 25.4585 38.3256C25.2738 38.081 25.1446 37.8087 25.0708 37.5226V37.5216L25.0698 37.5179C25.0652 37.4912 25.0611 37.4612 25.0523 37.4349C25.02 37.2872 25.0061 37.1349 25.0061 36.9779C25.0061 36.7979 25.0292 36.6133 25.0754 36.4333C25.32 35.4456 26.2061 34.7487 27.1985 34.7487H27.2769C28.5831 34.7995 29.8385 34.4349 30.9185 33.6964C31.3431 33.4056 31.7215 33.0641 32.0492 32.6903C32.0543 32.6875 32.0585 32.6833 32.0621 32.6796C32.0649 32.6769 32.0686 32.6759 32.0714 32.6732L32.0732 32.6704C32.0958 32.6478 32.1097 32.6252 32.1277 32.6026C33.3969 31.1072 33.8908 29.0533 33.36 27.0964C33.1246 26.2379 33.3738 25.3749 33.9923 24.8303C34.0615 24.7749 34.1308 24.7195 34.2046 24.6687L34.32 24.5903C34.8969 24.1933 35.6077 24.1056 36.2677 24.341C36.9323 24.5856 37.4261 25.1118 37.62 25.7949C37.7861 26.3764 37.8969 26.9579 37.9615 27.5395C37.9615 27.581 37.9661 27.6272 37.9754 27.6687C38.3446 31.4441 36.6415 35.1826 33.4246 37.3749Z" fill="#A68FF1"/>
<path d="M36.2579 27.51C36.6557 27.2386 36.7587 26.6963 36.4873 26.2985C36.2159 25.9006 35.6736 25.7977 35.2758 26.0691C34.8779 26.3405 34.775 26.8828 35.0464 27.2806C35.3177 27.6785 35.8601 27.7814 36.2579 27.51Z" fill="#A68FF1"/>
<path d="M35.2777 29.4684C34.8799 29.7397 34.7769 30.2821 35.0483 30.6799C35.3197 31.0777 35.862 31.1807 36.2599 30.9093C36.6577 30.6379 36.7606 30.0956 36.4892 29.6977C36.2179 29.2999 35.6755 29.197 35.2777 29.4684Z" fill="#A68FF1"/>
<path d="M33.8461 32.4651C33.4482 32.7365 33.3453 33.2788 33.6167 33.6766C33.8881 34.0745 34.4304 34.1774 34.8282 33.906C35.2261 33.6346 35.329 33.0923 35.0576 32.6944C34.7862 32.2966 34.2439 32.1937 33.8461 32.4651Z" fill="#A68FF1"/>
<path d="M31.0629 34.8508C30.665 35.1222 30.5621 35.6645 30.8335 36.0623C31.1049 36.4602 31.6472 36.5631 32.045 36.2917C32.4429 36.0203 32.5458 35.478 32.2744 35.0802C32.003 34.6823 31.4607 34.5794 31.0629 34.8508Z" fill="#A68FF1"/>
<path d="M27.9707 36.1306C27.4976 36.0411 27.0416 36.3521 26.9516 36.8252C26.8621 37.2983 27.1732 37.7543 27.6463 37.8438C28.1193 37.9334 28.5753 37.6223 28.6649 37.1492C28.7544 36.6761 28.4438 36.2201 27.9707 36.1306Z" fill="#A68FF1"/>
<path d="M23.5298 17.2463C23.5404 17.2463 23.5519 17.2463 23.5625 17.2454L24.5539 17.1752C24.7016 17.9132 25.0524 18.5866 25.5688 19.1358L25.5712 19.1377L24.9305 19.8762C24.7639 20.0686 24.7847 20.3603 24.9772 20.5274C25.0644 20.6031 25.1724 20.6405 25.2795 20.6405C25.4082 20.6405 25.537 20.5865 25.6284 20.4812L26.2819 19.728C26.9092 20.1471 27.6282 20.3774 28.3847 20.3958H28.3865L28.4558 21.3738C28.4728 21.6171 28.6755 21.8026 28.9155 21.8026C28.9261 21.8026 28.9376 21.8026 28.9482 21.8017C29.203 21.7837 29.3941 21.5626 29.3761 21.3088L29.3059 20.3225H29.3073C30.0458 20.1702 30.7196 19.8194 31.2688 19.3025V19.3015L32.0068 19.9408C32.0941 20.0165 32.2021 20.0538 32.3092 20.0538C32.4379 20.0538 32.5667 19.9998 32.6581 19.8946C32.8247 19.7022 32.8039 19.4105 32.6115 19.2434L31.8596 18.5912C32.2888 17.9497 32.5104 17.2205 32.5242 16.4866V16.4852L33.5041 16.4155C33.7588 16.3975 33.9499 16.1765 33.9319 15.9226C33.9139 15.6688 33.6896 15.4795 33.4395 15.4948L32.4467 15.5654V15.5635C32.3032 14.8482 31.9616 14.1651 31.4308 13.6066L31.4295 13.6052L32.0719 12.8649C32.2385 12.6725 32.2178 12.3808 32.0253 12.2137C31.8328 12.0466 31.5416 12.0669 31.3741 12.2598L30.7233 13.0103C30.0961 12.5958 29.3724 12.3651 28.6164 12.3466L28.5467 11.3668C28.5287 11.1125 28.303 10.9242 28.0542 10.9389C27.7995 10.9569 27.6084 11.178 27.6264 11.4318L27.697 12.4246C26.9585 12.5723 26.2852 12.9231 25.7359 13.44L25.735 13.4409L24.9956 12.7998C24.8027 12.6332 24.5119 12.6531 24.3444 12.846C24.1778 13.0385 24.1985 13.3302 24.391 13.4972L25.1452 14.1512C24.7256 14.7743 24.4948 15.5031 24.4764 16.2554L23.4988 16.3246C23.2441 16.3426 23.053 16.5637 23.071 16.8175C23.0881 17.0608 23.2907 17.2463 23.5307 17.2463H23.5298ZM28.5324 16.4585C28.9985 15.9231 29.8062 15.8677 30.3416 16.3338C30.877 16.7954 30.937 17.6077 30.4708 18.1431C30.0047 18.6785 29.197 18.7338 28.6616 18.2723C28.1262 17.8062 28.0662 16.9938 28.5324 16.4585ZM26.4185 14.76C26.7232 14.4092 27.2539 14.3723 27.6047 14.6769C27.9555 14.9815 27.997 15.5123 27.6878 15.8631C27.3832 16.2185 26.8524 16.2554 26.5016 15.9508C26.1508 15.6462 26.1093 15.1108 26.4185 14.76Z" fill="#A68FF1"/>
<path d="M17.7346 36.0069L16.8161 36.0295L17.4498 35.364C17.6256 35.1794 17.6183 34.8872 17.4336 34.7114C17.25 34.536 16.9583 34.5424 16.781 34.7275L16.1478 35.3926L16.1252 34.4741C16.1187 34.2194 15.9115 34.0126 15.6526 34.0241C15.3973 34.0301 15.1961 34.242 15.2021 34.4968L15.2247 35.4157L14.5587 34.782C14.375 34.6066 14.0829 34.6131 13.9061 34.7981C13.7303 34.9828 13.7377 35.2749 13.9223 35.4508L14.5883 36.0844L13.6693 36.1071C13.4141 36.1135 13.2129 36.3249 13.2189 36.5797C13.2253 36.8303 13.4307 37.0297 13.6804 37.0297H13.6915L14.6104 37.0066L13.9767 37.6721C13.8009 37.8568 13.8083 38.1489 13.9929 38.3248C14.082 38.4101 14.1964 38.4521 14.3109 38.4521C14.4327 38.4521 14.5541 38.4041 14.6455 38.3086L15.2787 37.6435L15.3013 38.562C15.3078 38.8131 15.5132 39.0124 15.7629 39.0124H15.774C16.0292 39.006 16.2304 38.7941 16.2244 38.5398L16.2018 37.6214L16.8673 38.2546C16.9564 38.34 17.0709 38.382 17.1853 38.382C17.3072 38.382 17.4286 38.334 17.52 38.2384C17.6958 38.0538 17.6884 37.7617 17.5038 37.5858L16.8378 36.9521L17.7567 36.9295C18.012 36.9231 18.2132 36.7117 18.2072 36.4569C18.2007 36.2026 18.0013 35.9921 17.7346 36.0069Z" fill="#A68FF1"/>
</svg>
