<svg width="48" height="48" viewBox="0 0 48 48" fill="none" xmlns="http://www.w3.org/2000/svg">
<path d="M40.3277 9.28892C40.1971 8.42077 39.8247 7.73538 39.2791 7.35877C38.3251 6.70061 36.7217 6.92354 35.1401 7.89138C34.9042 6.98077 34.2641 6.24554 33.4208 5.98384C32.771 5.78215 32.0288 5.88323 31.3845 6.26077C30.9179 6.53354 30.5371 6.93184 30.2773 7.40492C29.873 6.99231 29.2457 6.54277 28.3804 6.444C27.1979 6.30507 26.0122 6.90046 25.307 7.92369C24.8219 7.49261 23.9777 6.9623 22.8225 6.97846C21.7993 7.00523 21.047 7.45984 20.5573 7.896C20.1844 6.84554 19.2451 6.07154 18.1374 6.02307C17.219 5.98477 16.3264 6.47446 15.7905 7.26692C15.0405 6.61523 14.1027 6.22569 13.091 6.15507C11.8896 6.07061 10.7482 6.44677 9.87221 7.21107C8.30021 8.58277 7.93744 10.9615 8.95697 12.8058C8.52728 13.1548 7.90005 13.8318 7.80544 14.8611C7.71636 15.8266 8.13821 16.7866 8.88959 17.4231C8.04959 18.1505 7.57651 19.2222 7.62497 20.3571C7.67344 21.4971 8.24944 22.5388 9.16328 23.1918C8.04174 24.5885 7.68774 26.43 8.24528 28.1248C8.88913 30.0826 10.6757 31.4838 12.7522 31.6994C13.3227 33.6245 14.2481 34.8134 15.5154 35.2163C15.8477 35.322 16.1814 35.3663 16.5087 35.3663C18.2727 35.3663 19.8461 34.0685 19.9241 34.0029C20.1193 33.8395 20.1451 33.5492 19.9817 33.3535C19.8184 33.1583 19.5276 33.1325 19.3319 33.2949C19.313 33.3106 17.429 34.8568 15.7924 34.3357C14.7774 34.0117 14.0224 32.9386 13.5493 31.1469C13.5474 31.1391 13.5414 31.134 13.5391 31.1266C13.529 31.0952 13.5128 31.0685 13.4962 31.0403C13.4824 31.0158 13.4708 30.9909 13.4528 30.9697C13.4339 30.9471 13.4099 30.9305 13.3868 30.912C13.3637 30.8935 13.3425 30.8737 13.3162 30.8598C13.2922 30.8469 13.2654 30.8414 13.2391 30.8331C13.2077 30.8229 13.1773 30.8128 13.1441 30.8095C13.1367 30.8086 13.1302 30.8045 13.1224 30.804C11.2887 30.7274 9.68113 29.5348 9.12221 27.8363C8.61405 26.2906 9.02898 24.5949 10.2059 23.4088C10.3102 23.3035 10.3577 23.1545 10.3333 23.0082C10.3093 22.8623 10.2161 22.7363 10.0831 22.6708C9.17898 22.2222 8.59051 21.3208 8.54759 20.3174C8.50374 19.2886 9.03313 18.3282 9.9299 17.8108C10.0762 17.7258 10.1648 17.5689 10.1607 17.3995C10.1565 17.2306 10.0605 17.0774 9.91005 17.0003C9.12544 16.5978 8.64959 15.7722 8.72574 14.9455C8.82221 13.8983 9.76559 13.3578 9.80574 13.3352C9.91928 13.2715 10.0005 13.1631 10.0296 13.0366C10.0587 12.9102 10.0333 12.7768 9.95897 12.6697C8.91451 11.1646 9.14344 9.07246 10.4801 7.90707C11.1701 7.3043 12.0742 7.01169 13.0277 7.07584C14.015 7.14461 14.9145 7.59323 15.5602 8.33861C15.6668 8.46138 15.8297 8.52092 15.9899 8.49046C16.1496 8.46184 16.283 8.35154 16.3407 8.19969C16.6333 7.42846 17.3547 6.91338 18.0987 6.94477C19.0393 6.98584 19.8216 7.89323 19.8068 8.92523C19.8041 9.13338 19.9407 9.318 20.1405 9.37569C20.3404 9.43338 20.5541 9.35031 20.6625 9.17261C20.693 9.12231 21.4314 7.93754 22.8479 7.90107C24.1845 7.85123 24.9493 8.85554 25.0337 8.96907C25.1316 9.10061 25.2931 9.16892 25.4547 9.15184C25.6176 9.13384 25.7588 9.03046 25.8253 8.88046C26.2739 7.872 27.2819 7.25077 28.277 7.35969C29.3699 7.48477 29.9561 8.45446 30.0193 8.5643C30.1144 8.73 30.3027 8.81815 30.4905 8.79046C30.6793 8.76138 30.8307 8.6183 30.8708 8.43184C30.9964 7.84892 31.3541 7.34723 31.8521 7.05646C32.2734 6.80954 32.7461 6.73892 33.149 6.86446C33.833 7.07677 34.3241 7.84384 34.3171 8.68892C34.3157 8.86431 34.4136 9.02538 34.5701 9.10431C34.7265 9.18323 34.9139 9.16754 35.0547 9.06277C36.4444 8.02615 38.0362 7.61954 38.7562 8.11707C39.0848 8.34369 39.3253 8.82 39.4162 9.42415C39.6225 10.7954 39.0701 12.4685 37.9393 13.8997C37.8631 13.9962 37.8285 14.1189 37.8433 14.2403C37.8581 14.3622 37.9204 14.4734 38.0168 14.5491C39.0424 15.3535 39.5491 16.6505 39.3391 17.9331C39.1259 19.236 38.2139 20.31 36.9594 20.7351C36.7997 20.7891 36.6821 20.9262 36.653 21.0918C36.6239 21.2575 36.6871 21.4269 36.8187 21.5322C37.0951 21.7537 37.4584 22.1326 37.6204 22.6768C37.9088 23.6451 37.4736 24.7906 36.5127 25.5951C36.3945 25.6938 36.3336 25.8457 36.3502 25.9989C36.3668 26.1522 36.4591 26.2869 36.5962 26.358C37.8733 27.0222 38.7133 28.1317 38.7364 29.1835C38.7525 29.9169 38.3861 30.7043 37.7302 31.3426C36.8048 32.2445 35.4521 32.7245 34.025 32.6534C33.785 32.6363 33.5861 32.808 33.5473 33.0383C33.4753 33.4712 33.2874 34.0754 32.8033 34.4986C31.8387 35.3414 30.0959 35.2043 28.6591 34.1723C28.4824 34.0468 28.2414 34.0588 28.0804 34.2051C27.9188 34.3505 27.8814 34.5895 27.9904 34.7778C28.3508 35.4028 28.7717 36.4154 28.7288 37.6911C28.6656 39.5746 27.6124 40.8655 27.1619 41.3335C26.9851 41.5172 26.9907 41.8094 27.1744 41.9862C27.2639 42.0725 27.3793 42.1149 27.4942 42.1149C27.6151 42.1149 27.7361 42.0674 27.827 41.9732C28.3508 41.4286 29.5771 39.9249 29.651 37.7215C29.6782 36.9175 29.5481 36.2026 29.3565 35.6008C30.8427 36.1906 32.4114 36.0665 33.4111 35.1932C33.9567 34.7165 34.2336 34.1049 34.3734 33.5825C35.9117 33.564 37.3531 32.9991 38.375 32.0035C39.2131 31.1871 39.6816 30.1514 39.6599 29.1628C39.6327 27.9254 38.8457 26.7009 37.5682 25.8595C38.4802 24.8557 38.8467 23.5578 38.5061 22.4132C38.3893 22.0209 38.1899 21.6526 37.919 21.324C39.1513 20.6732 40.0217 19.4829 40.2511 18.0812C40.4911 16.6163 39.9885 15.1371 38.9297 14.1189C40.0356 12.5691 40.5562 10.7898 40.3305 9.28615L40.3277 9.28892Z" fill="#A68FF1"/>
<path d="M31.9296 29.4895C32.087 29.6612 32.3487 29.6903 32.5383 29.5537C32.7285 29.418 32.7871 29.1618 32.675 28.9569C32.0833 27.8732 31.9425 26.9958 32.2563 26.3497C32.7022 25.4326 33.9604 25.2115 33.9714 25.2097C34.1487 25.1811 34.2931 25.0523 34.342 24.8797C34.391 24.7071 34.3356 24.522 34.1999 24.4048C33.3525 23.6728 32.9214 22.9089 32.9187 22.1335C32.914 20.9681 33.8805 20.1065 33.8893 20.0991C33.995 20.0081 34.0531 19.8738 34.0485 19.734C34.0434 19.5946 33.9756 19.4649 33.8643 19.3809C31.7491 17.7946 33.9493 14.4245 33.9714 14.3908C34.0965 14.202 34.0665 13.95 33.8999 13.7963C33.7337 13.6431 33.4799 13.6325 33.3022 13.7723C32.8794 14.1041 32.4917 14.2241 32.117 14.1425C31.3314 13.9685 30.8159 12.9674 30.8113 12.9586C30.7471 12.8312 30.628 12.7398 30.4877 12.7121C30.347 12.684 30.202 12.7232 30.095 12.8178C29.2028 13.5969 28.3259 13.9486 27.4831 13.8503C26.2397 13.7118 25.4463 12.6438 25.4394 12.6341C25.3647 12.5298 25.2497 12.4615 25.1223 12.4458C24.9954 12.4311 24.8671 12.4675 24.7683 12.5501C23.4843 13.6251 22.3813 14.0861 21.5819 13.8845C20.8568 13.7017 20.5794 13.0265 20.5693 13.0011C20.5051 12.8331 20.3491 12.7177 20.17 12.7048C19.9928 12.6988 19.8207 12.7855 19.7339 12.9434C19.4454 13.4686 19.0443 13.7921 18.5094 13.9329C16.9517 14.3446 14.8563 13.0634 14.8356 13.0505C14.6556 12.9397 14.4216 12.9646 14.2697 13.1137C14.1179 13.2618 14.087 13.4945 14.195 13.6777C14.8651 14.8149 15.0816 15.8635 14.8383 16.7949C14.5051 18.0688 13.403 18.7214 13.3937 18.7274C13.2539 18.8068 13.1657 18.9535 13.1611 19.1141C13.156 19.2752 13.2354 19.4266 13.3697 19.5143C14.3394 20.1485 14.9228 20.9225 15.1037 21.8151C15.4056 23.3054 14.4973 24.6789 14.4885 24.6914C14.4096 24.8077 14.3879 24.9535 14.4294 25.0874C14.471 25.2217 14.5716 25.3297 14.7022 25.3809C15.2828 25.6075 15.6603 25.9611 15.856 26.4623C16.3554 27.7398 15.5039 29.5135 15.4951 29.5311C15.3834 29.76 15.4785 30.0364 15.707 30.1481C15.9354 30.2594 16.2114 30.1657 16.324 29.9372C16.3665 29.8505 17.3625 27.7869 16.7168 26.1295C16.4865 25.5378 16.0831 25.0745 15.5145 24.7481C15.826 24.1237 16.27 22.9426 16.0097 21.6415C15.8163 20.6741 15.2759 19.8291 14.4003 19.1229C14.8536 18.7274 15.4623 18.0392 15.7273 17.0432C15.9456 16.2226 15.8925 15.3498 15.5713 14.4374C16.4468 14.7881 17.6579 15.1112 18.7416 14.8265C19.2885 14.6829 19.7491 14.4041 20.1174 13.9934C20.3759 14.2998 20.771 14.6275 21.3391 14.7757C22.3734 15.0434 23.6057 14.6294 25.0088 13.5425C25.4279 13.9717 26.2443 14.6377 27.3691 14.7669C28.3407 14.8781 29.32 14.5708 30.2847 13.8508C30.598 14.2823 31.1505 14.8726 31.9116 15.0429C32.1276 15.0914 32.344 15.1043 32.56 15.0808C31.9448 16.524 31.6273 18.4652 32.9214 19.782C32.5393 20.2375 31.9947 21.072 31.9951 22.1275C31.9951 22.9735 32.3399 23.7831 33.0202 24.5423C32.4783 24.7689 31.7976 25.1889 31.4297 25.9403C31.1634 26.484 31.1025 27.1066 31.246 27.8026C30.5459 27.3904 29.609 27.0111 28.5105 26.9889C27.0488 26.9483 25.6337 27.5677 24.3068 28.7977C23.669 28.3029 22.2207 27.3614 20.6971 27.6268C19.6033 27.8151 18.7088 28.5692 18.0377 29.868C17.9205 30.0941 18.0091 30.3729 18.2357 30.4901C18.3036 30.5248 18.376 30.5414 18.4471 30.5414C18.6142 30.5414 18.7757 30.4505 18.8574 30.2917C19.3882 29.2648 20.0588 28.674 20.8503 28.5364C22.396 28.2664 23.9985 29.7397 24.0142 29.7549C24.197 29.9252 24.4822 29.9192 24.6571 29.7429C25.8839 28.5041 27.1554 27.888 28.4828 27.9115C30.4845 27.9475 31.9157 29.4757 31.9291 29.4904L31.9296 29.4895Z" fill="#A68FF1"/>
<path d="M19.237 15.476C18.9946 15.602 16.867 16.7669 16.7156 18.8175C16.6173 20.1527 17.3686 21.4104 18.949 22.5564C19.1534 22.7046 19.3906 22.7761 19.6251 22.7761C19.9823 22.7761 20.3345 22.6109 20.5602 22.2993C20.934 21.7833 20.8191 21.062 20.3031 20.6881C19.441 20.0632 18.984 19.4609 19.0163 18.9915C19.0583 18.3786 19.903 17.7366 20.3059 17.521C20.868 17.2252 21.0859 16.5306 20.7928 15.967C20.4983 15.4007 19.8005 15.1824 19.2365 15.4764L19.237 15.476Z" fill="#A68FF1"/>
<path d="M25.86 17.5708C23.7756 16.5766 21.3544 17.8288 21.0853 17.9742C20.5269 18.2774 20.3206 18.9743 20.622 19.5337C20.9233 20.0936 21.6221 20.3031 22.1829 20.0045C22.6033 19.7806 23.9995 19.2351 24.8695 19.6556C25.374 19.8988 25.7164 20.4969 25.8886 21.4339C25.991 21.9905 26.4761 22.3796 27.0221 22.3796C27.0913 22.3796 27.1615 22.3736 27.2321 22.3606C27.8589 22.2457 28.2738 21.6439 28.1584 21.0176C27.845 19.3099 27.0715 18.1505 25.8604 17.5713L25.86 17.5708Z" fill="#A68FF1"/>
<path d="M29.1285 15.3706C28.5059 15.2382 27.8925 15.6365 27.7605 16.2596C27.4901 17.5334 27.8316 19.6076 29.8809 20.1009C29.9718 20.1226 30.0627 20.1333 30.1518 20.1333C30.6729 20.1333 31.1455 19.7774 31.2729 19.2489C31.4219 18.6296 31.0407 18.0065 30.4213 17.8569C29.8596 17.7217 29.9875 16.8979 30.0198 16.7303C30.1467 16.1096 29.7493 15.5022 29.1285 15.3706Z" fill="#A68FF1"/>
<path d="M18.3996 26.4296C18.5603 26.4919 19.4801 26.8266 20.5772 26.8266C21.3235 26.8266 22.152 26.6715 22.8784 26.1689C23.9713 25.4129 24.5192 24.1183 24.5058 22.3196C24.5012 21.6855 23.9856 21.1746 23.352 21.1746H23.3432C22.7063 21.1796 22.193 21.6998 22.1981 22.3372C22.2032 23.0147 22.0984 23.8999 21.57 24.2687C20.8966 24.739 19.6218 24.4243 19.2267 24.2756C18.6336 24.0504 17.9672 24.3444 17.7383 24.9389C17.5089 25.5333 17.8052 26.2003 18.3996 26.4296Z" fill="#A68FF1"/>
<path d="M26.2171 23.0501C25.6084 23.2191 25.2557 23.8449 25.4177 24.4555C25.5797 25.0671 26.2088 25.4317 26.8222 25.2771C27.0128 25.2291 27.9876 25.0334 28.432 25.9057C28.636 26.3054 29.0408 26.5357 29.4608 26.5357C29.6371 26.5357 29.8162 26.4951 29.9837 26.4097C30.5514 26.1203 30.7771 25.4252 30.4877 24.8575C29.4304 22.7838 27.233 22.7686 26.2171 23.0501Z" fill="#A68FF1"/>
<path d="M22.7179 35.3506C22.5323 35.5255 22.524 35.8177 22.6985 36.0032C23.3862 36.732 23.7042 37.4852 23.6442 38.2421C23.538 39.5875 22.2831 40.5687 22.2716 40.578C22.0689 40.7326 22.0302 41.022 22.1848 41.2246C22.2757 41.3437 22.4132 41.4064 22.5522 41.4064C22.6495 41.4064 22.7479 41.376 22.8314 41.3118C22.8965 41.2629 24.4205 40.0809 24.564 38.3229C24.648 37.2923 24.2465 36.2986 23.37 35.37C23.1951 35.1854 22.9025 35.177 22.7174 35.351L22.7179 35.3506Z" fill="#A68FF1"/>
</svg>
