<svg width="48" height="48" viewBox="0 0 48 48" fill="none" xmlns="http://www.w3.org/2000/svg">
<path d="M36.8548 30.3831C35.0317 30.3831 33.3933 31.2001 32.2902 32.4831L29.7693 31.5476L29.7647 31.5444C29.7605 31.5425 29.7559 31.543 29.7517 31.5411C29.724 31.5291 29.6964 31.5171 29.6687 31.5093L28.3625 31.0201C27.5733 30.7201 27.0656 30.0877 27.0656 29.4047V26.4093C27.0656 26.3631 27.0564 26.3124 27.0425 26.2708L27.0402 26.2685C28.6602 25.2079 29.8639 23.5528 30.3273 21.5737C31.801 21.4468 32.9622 20.209 32.9622 18.7025C32.9622 17.7596 32.496 16.8845 31.7364 16.351V12.8673C31.7364 8.84728 28.464 5.57959 24.4487 5.57959H14.8025C14.544 5.57959 14.341 5.78728 14.341 6.04113C14.341 6.95036 14.6917 7.80421 15.3379 8.45036C15.4071 8.51497 15.4717 8.57959 15.5456 8.63959C13.7317 9.19805 13.7317 11.7181 13.7317 13.2919V16.4525C13.0487 16.9994 12.6444 17.821 12.6444 18.7025C12.6444 20.2085 13.8056 21.4468 15.2793 21.5737C15.7117 23.4213 16.788 24.9873 18.2479 26.0507C18.2507 26.053 18.252 26.0562 18.2548 26.0585C18.2585 26.0622 18.2904 26.0844 18.3356 26.1176C18.3993 26.1624 18.4657 26.2034 18.5308 26.2464C18.5571 26.2634 18.5802 26.2787 18.6102 26.2985C18.6213 26.305 18.6342 26.3128 18.6457 26.3197C18.7334 26.3756 18.8193 26.4351 18.9097 26.4877V29.4037C18.9097 30.0882 18.4002 30.7228 17.6124 31.0191L10.3173 33.7399C7.92651 34.632 6.16574 36.4431 5.60589 38.5851L5.14112 40.363C5.07651 40.6094 5.22466 40.8619 5.47112 40.9261C5.51035 40.9362 5.54958 40.9413 5.58835 40.9413C5.79281 40.9413 5.9802 40.8037 6.03466 40.5961L6.49943 38.8182C6.98312 36.9665 8.53066 35.3913 10.6404 34.6044L16.1862 32.5362C17.5348 35.0091 20.1577 36.5871 22.9893 36.5871C25.8208 36.5871 28.4419 35.0082 29.7891 32.5344L31.7276 33.259C31.1599 34.1774 30.8368 35.2528 30.8368 36.4021C30.8368 39.7205 33.5368 42.4205 36.8553 42.4205C40.1737 42.4205 42.8737 39.7205 42.8737 36.4021C42.8737 33.0836 40.1737 30.3836 36.8553 30.3836L36.8548 30.3831ZM30.54 19.7996V17.6816H30.541C30.6194 17.6862 30.6979 17.6908 30.7764 17.6908H31.2748C31.4225 17.6908 31.5517 17.6216 31.6348 17.5154L31.6357 17.5136C31.8924 17.8496 32.0391 18.2659 32.0391 18.7025C32.0391 19.6417 31.375 20.4268 30.492 20.6174C30.5211 20.3433 30.54 20.0701 30.54 19.7996ZM13.5674 18.7025C13.5674 18.3005 13.6916 17.9165 13.9131 17.5944C13.9916 17.6539 14.0876 17.6908 14.1933 17.6908C14.4933 17.6908 14.784 17.6539 15.0656 17.5801H15.0665V19.7996C15.0665 20.071 15.0854 20.3442 15.1145 20.6174C14.2316 20.4268 13.5674 19.6417 13.5674 18.7025ZM29.617 18.799V19.7996C29.617 20.2071 29.5791 20.6239 29.5044 21.0374C29.2399 22.4811 28.5291 23.7457 27.5317 24.7057L27.624 24.157C27.6287 24.1431 27.6333 24.1247 27.6333 24.1062L27.9471 22.2231L28.2333 20.5201V20.5164L29.617 18.799ZM16.1087 17.1508C16.2748 17.0447 16.4456 16.9247 16.5933 16.7954C16.6136 16.7844 16.6279 16.7654 16.645 16.7507C16.6551 16.741 16.6667 16.7341 16.6759 16.7239C16.6833 16.7161 16.6925 16.7114 16.6994 16.7036C17.7102 15.8313 18.3148 14.4513 18.3333 12.9882H27.3702V14.2851C27.3702 15.319 27.8317 16.2836 28.6348 16.9344C28.6487 16.9436 28.6579 16.9528 28.6717 16.9574L28.6764 16.9621C28.9348 17.1651 29.221 17.3313 29.5256 17.4421L27.5664 19.8739C23.5431 18.8461 19.0787 19.6339 17.8634 19.8882L16.0537 17.1836C16.0722 17.1744 16.0902 17.161 16.1087 17.1517V17.1508ZM16.1022 21.0379C16.0274 20.6262 15.9896 20.2099 15.9896 19.7996V18.7459L17.221 20.5865V20.5888L17.4933 22.2227L17.8117 24.1427L17.8708 24.4971C16.9819 23.5653 16.3477 22.3801 16.1022 21.0379ZM18.8091 24.5137H19.9154C20.1707 24.5137 20.377 24.307 20.377 24.0522C20.377 23.7974 20.1707 23.5907 19.9154 23.5907H18.6568V23.5893L18.4907 22.5928H19.9154C20.1707 22.5928 20.377 22.3861 20.377 22.1313C20.377 21.8765 20.1707 21.6697 19.9154 21.6697H18.3337L18.186 20.7693C19.4922 20.5108 23.6184 19.8462 27.2599 20.7462L27.1076 21.6693H25.651C25.3957 21.6693 25.1894 21.8761 25.1894 22.1313C25.1894 22.3865 25.3957 22.5928 25.651 22.5928H26.9507L26.7845 23.5893V23.5907H25.651C25.3957 23.5907 25.1894 23.7974 25.1894 24.0522C25.1894 24.307 25.3957 24.5137 25.651 24.5137H26.6317L26.4614 25.5416C26.1337 25.7447 25.8153 25.9108 25.4968 26.0539L25.2614 26.1508C25.1857 26.1817 25.11 26.2085 25.0348 26.2353C24.9088 26.2787 24.7824 26.3207 24.6536 26.3567C24.6254 26.365 24.5973 26.3733 24.5696 26.3811C24.0047 26.5321 23.4125 26.6133 22.8037 26.6133C22.2545 26.6133 21.72 26.5427 21.2054 26.4185C21.0951 26.3913 20.9848 26.3641 20.8814 26.3331C20.82 26.3151 20.7591 26.2948 20.6987 26.275C20.5727 26.2321 20.4476 26.1887 20.3327 26.1457C20.0262 26.0225 19.7645 25.8961 19.5439 25.7793C19.5093 25.7604 19.4733 25.7442 19.4391 25.7244C19.4202 25.7137 19.4004 25.7008 19.3819 25.6934L19.38 25.6921C19.237 25.609 19.0985 25.5194 18.9619 25.4262V25.4207L18.81 24.5128L18.8091 24.5137ZM22.9893 35.6636C20.5394 35.6636 18.264 34.3233 17.0585 32.2108L17.9368 31.8831C19.0888 31.4493 19.8328 30.4759 19.8328 29.4028V26.9377C20.623 27.2664 21.4754 27.4667 22.3648 27.5165C22.3782 27.5174 22.3907 27.5202 22.404 27.5211C22.495 27.5276 22.5896 27.529 22.6833 27.5308C22.7234 27.5313 22.7627 27.5359 22.8028 27.5359C22.812 27.5359 22.8208 27.5345 22.83 27.5345H22.8702C23.2768 27.5345 23.7014 27.4976 24.1431 27.4182C24.186 27.4108 24.228 27.4007 24.2705 27.3924C24.4344 27.3601 24.5968 27.3273 24.7579 27.2848C24.7717 27.2802 24.781 27.2802 24.7948 27.2756L24.8114 27.2705C24.8433 27.2622 24.8742 27.2516 24.9056 27.2428C24.9887 27.2188 25.0717 27.1948 25.1544 27.1694C25.1636 27.1648 25.1728 27.1648 25.182 27.1602C25.218 27.1487 25.2536 27.133 25.2896 27.1205C25.4188 27.0767 25.5462 27.0291 25.6727 26.9788C25.692 26.971 25.7114 26.965 25.7313 26.9571C25.752 26.9479 25.7737 26.9373 25.7945 26.9281C25.9113 26.8791 26.028 26.8321 26.142 26.7776V29.4033C26.142 30.4741 26.8851 31.4479 28.039 31.8817L28.9154 32.2094C27.7104 34.3224 25.4368 35.6627 22.9888 35.6627L22.9893 35.6636ZM39.4579 36.6181V36.8257C39.4579 37.2319 39.3564 37.6242 39.1671 37.9704C39.0194 38.2611 38.8071 38.5196 38.5487 38.7319L36.8548 39.8165L35.1656 38.7319C34.5887 38.2657 34.2564 37.5688 34.2564 36.8257V34.2827L34.3487 34.2365L35.4794 33.6734L36.8548 32.9857L39.4579 34.2827V36.6181Z" fill="#A68FF1"/>
<path d="M36.066 36.1016C35.886 35.9216 35.5906 35.9216 35.4106 36.1016C35.2306 36.2816 35.2306 36.5723 35.4106 36.7523L36.1952 37.537C36.2829 37.6246 36.4029 37.6708 36.5183 37.6708C36.6383 37.6708 36.7537 37.6246 36.846 37.537L38.0414 36.3416L38.4614 35.9216C38.5491 35.8339 38.5953 35.7139 38.5953 35.5939C38.5953 35.4785 38.5491 35.3631 38.4614 35.2708C38.3645 35.1739 38.2306 35.1277 38.1014 35.1416C37.9906 35.1462 37.8845 35.1877 37.806 35.2708L37.3491 35.7277L36.5183 36.5585L36.066 36.1016Z" fill="#A68FF1"/>
</svg>
