<svg width="48" height="48" viewBox="0 0 48 48" fill="none" xmlns="http://www.w3.org/2000/svg">
<path d="M20.3981 34.7243C22.3411 34.7243 23.9224 33.1431 23.9224 31.1996C23.9224 29.256 22.3411 27.6748 20.3981 27.6748C18.455 27.6748 16.8733 29.256 16.8733 31.1996C16.8733 33.1431 18.4545 34.7243 20.3981 34.7243Z" fill="#A68FF1"/>
<path d="M42.5982 38.394H41.1199C41.0308 37.7968 40.7673 37.2388 40.3515 36.7814C39.8682 36.2502 39.2299 35.9114 38.5284 35.8075L34.5868 25.0883C33.8747 23.4886 32.2828 22.4552 30.5313 22.4552H28.5024C28.2675 22.4552 28.0815 22.6329 28.0524 22.86C26.2898 21.2423 24.0218 20.1965 21.5327 19.9505V19.056C21.5327 18.8008 21.3264 18.5945 21.0711 18.5945C20.8159 18.5945 20.6096 18.8008 20.6096 19.056V25.1585C20.6096 25.7815 20.1024 26.2883 19.4798 26.2883C18.8571 26.2883 18.3499 25.7811 18.3499 25.1585V18.1588C18.3499 16.0948 20.029 14.4162 22.0925 14.4162H24.2996C26.3636 14.4162 28.0422 16.0952 28.0422 18.1588V20.3442C28.0422 20.5994 28.2485 20.8057 28.5038 20.8057C28.759 20.8057 28.9653 20.5994 28.9653 20.3442V18.1588C28.9653 16.0486 27.5567 14.2638 25.6307 13.6888C26.8519 12.8908 27.6624 11.5135 27.6624 9.94892C27.6624 7.48569 25.6584 5.48169 23.1956 5.48169C20.7328 5.48169 18.7284 7.48569 18.7284 9.94892C18.7284 11.5135 19.5388 12.8903 20.7601 13.6888C19.783 13.9805 18.943 14.5851 18.3485 15.3845V12.5529C18.3485 11.8565 18.0762 11.2006 17.5824 10.7058C17.0913 10.2148 16.4368 9.94384 15.7399 9.94384C14.4028 9.94384 13.2984 10.9523 13.1461 12.2474H10.3178C10.3108 12.2474 10.3053 12.2511 10.2984 12.2515C9.79946 11.8449 9.06699 11.8685 8.60176 12.3332L5.77299 15.162C5.27684 15.6582 5.27684 16.4626 5.77299 16.9588C6.0213 17.2071 6.34623 17.3312 6.67115 17.3312C6.99607 17.3312 7.32146 17.2071 7.56976 16.9588L10.3985 14.13C10.6625 13.8665 10.7816 13.5157 10.765 13.1705H13.1267V22.5328C10.5531 24.6895 9.07899 27.8335 9.07899 31.2005C9.07899 37.4414 14.1564 42.5188 20.3973 42.5188C23.4568 42.5188 26.2344 41.2966 28.2735 39.3171H34.5624L34.5711 39.3185L34.579 39.3171H35.0216C35.1107 39.9148 35.3742 40.4732 35.7901 40.9297C36.3439 41.5389 37.1022 41.8957 37.9247 41.9345C37.9741 41.9368 38.0244 41.9382 38.0738 41.9382C38.8418 41.9382 39.5719 41.6562 40.1438 41.136C40.6741 40.6532 41.0124 40.0168 41.1171 39.3175H42.5964C42.8516 39.3175 43.0579 39.1112 43.0579 38.856C43.0579 38.6008 42.8516 38.3945 42.5964 38.3945L42.5982 38.394ZM19.6524 9.94892C19.6524 7.99477 21.2419 6.40477 23.1965 6.40477C25.1511 6.40477 26.7402 7.9943 26.7402 9.94892C26.7402 11.9035 25.1507 13.4926 23.1965 13.4926C21.2424 13.4926 19.6524 11.9031 19.6524 9.94892ZM19.4798 27.2109C20.6119 27.2109 21.5327 26.2902 21.5327 25.158V23.4692C25.3205 24.0249 28.2213 27.3226 28.2213 31.1995C28.2213 35.5131 24.7118 39.0222 20.3987 39.0222C16.0856 39.0222 12.5756 35.5126 12.5756 31.1995C12.5756 27.9928 14.5002 25.1589 17.4268 23.9598V25.1575C17.4268 26.2897 18.3476 27.2109 19.4798 27.2109ZM14.0507 12.5525C14.0507 11.6225 14.809 10.8665 15.7408 10.8665C16.1913 10.8665 16.6136 11.0409 16.9307 11.358C17.2501 11.6778 17.4264 12.102 17.4264 12.5525V20.2837C16.2291 20.6086 15.0822 21.1357 14.0507 21.8326V12.5525ZM20.3987 41.5952C14.6664 41.5952 10.0035 36.9318 10.0035 31.2C10.0035 28.038 11.4167 25.0874 13.8804 23.1042C13.8905 23.0958 13.8998 23.0866 13.909 23.0774L13.9182 23.0686L13.9219 23.0649C14.9585 22.2411 16.1595 21.6166 17.4264 21.2395V22.9782C13.9607 24.2312 11.6521 27.4892 11.6521 31.1995C11.6521 36.0217 15.5756 39.9452 20.3982 39.9452C25.2208 39.9452 29.1439 36.0217 29.1439 31.1995C29.1439 26.8195 25.8319 23.1023 21.5322 22.5392V20.8768C25.7945 21.336 29.3438 24.3554 30.4468 28.5374C30.6767 29.3926 30.793 30.288 30.793 31.1995C30.793 36.9318 26.1296 41.5948 20.3982 41.5948L20.3987 41.5952ZM29.1301 38.3935C30.5696 36.6494 31.4941 34.4677 31.6791 32.082C32.5058 34.4271 33.4875 37.1861 33.9176 38.3935H29.1301ZM35.0239 38.3935H34.8975C34.3496 36.8561 31.8873 29.9423 31.3316 28.272L31.3307 28.2702C30.8276 26.3843 29.8625 24.7205 28.5795 23.3774H30.5318C31.9191 23.3774 33.1801 24.1957 33.733 25.4345L37.5495 35.8168C36.2544 36.0365 35.2228 37.0717 35.0244 38.3931L35.0239 38.3935Z" fill="#A68FF1"/>
</svg>
