<svg width="46" height="46" viewBox="0 0 46 46" fill="none" xmlns="http://www.w3.org/2000/svg">
<path d="M15.3107 11.7857C13.8413 15.2596 8.87157 15.341 8.82159 15.3414C8.57744 15.3436 8.38106 15.5427 8.38282 15.7873C8.38504 16.0301 8.58231 16.226 8.82513 16.226H8.82823C9.05602 16.2247 14.4278 16.1438 16.1254 12.1303C16.2205 11.9051 16.1157 11.6455 15.8906 11.5504C15.6654 11.4553 15.4058 11.5606 15.3107 11.7857Z" fill="#9E85F0"/>
<path d="M43.6833 17.8095L32.649 8.49758C30.9975 7.10386 28.5488 7.24938 27.1901 8.82311C27.114 8.91113 27.0415 9.00269 26.972 9.09823C25.9291 10.5459 25.96 12.5619 26.9972 14.0676C26.5461 14.3139 25.834 14.5758 24.9812 14.4431C24.7233 14.4028 24.4995 14.3276 24.293 14.2418L24.396 10.7228C25.2081 10.2925 25.7627 9.44058 25.7627 8.46086C25.7627 7.04946 24.6114 5.90079 23.1969 5.90079C21.7824 5.90079 20.6311 7.04946 20.6311 8.46086C20.6311 9.30656 21.0455 10.0554 21.6807 10.5216L21.7886 14.2078C21.563 14.3091 21.3105 14.3975 21.019 14.4431C20.1649 14.5758 19.4541 14.3139 19.003 14.0676C20.0402 12.5619 20.0711 10.5459 19.0273 9.09735C18.9587 9.00269 18.8862 8.91113 18.8101 8.82311C17.4522 7.24894 15.0036 7.10298 13.3516 8.49713L2.3169 17.8095C2.19261 17.9143 2.13555 18.0793 2.16917 18.239C2.20234 18.3977 2.32088 18.526 2.47657 18.572C4.32852 19.1183 6.24459 19.3337 8.1673 19.2116C9.52607 19.1262 10.8618 18.8737 12.1529 18.4597C11.6447 19.1435 11.0512 19.6937 10.3788 20.1037C9.31421 20.7526 8.26904 20.9185 7.57815 21.0282C6.9598 21.1263 6.4255 21.2108 6.38259 21.7292C6.3649 21.9495 6.46575 22.1613 6.68159 22.3582C7.39194 23.0057 9.65788 23.724 11.8973 23.3335C12.9986 23.1402 14.0584 22.6819 15.0178 21.9902C14.782 22.6682 14.4397 23.2507 13.9952 23.7298C13.6183 24.1354 13.2317 24.4025 12.9212 24.617C12.4988 24.9085 12.0999 25.1841 12.2264 25.6551C12.2644 25.7976 12.3723 25.9975 12.6727 26.1434C12.9442 26.2757 13.3671 26.3513 13.8563 26.3513C14.4751 26.3513 15.2 26.2301 15.8564 25.9479C16.7251 25.5746 17.4748 24.9152 18.0246 24.0403C18.1546 23.8333 18.0922 23.5604 17.8857 23.4303C17.6791 23.3007 17.4058 23.3635 17.2757 23.5692C16.8219 24.2919 16.2107 24.8329 15.5074 25.135C14.6856 25.4884 13.7749 25.5087 13.3091 25.4251C13.3476 25.3977 13.387 25.3707 13.4241 25.3451C13.7519 25.1186 14.2008 24.8086 14.6431 24.3322C15.4698 23.4414 15.9922 22.2688 16.1956 20.8464C16.2226 20.6579 16.1262 20.4739 15.9563 20.3886C15.7869 20.3041 15.5813 20.3355 15.4464 20.47C14.6944 21.2152 13.4418 22.1653 11.7447 22.4626C9.97104 22.7735 8.32609 22.2887 7.60602 21.9203C7.64361 21.9141 7.68121 21.9083 7.71704 21.9026C8.47736 21.7818 9.62604 21.5996 10.8402 20.8596C11.9694 20.1714 12.8982 19.1457 13.6015 17.8104C13.6882 17.6458 13.663 17.4446 13.5374 17.3066C13.4126 17.169 13.2145 17.1248 13.042 17.1951C11.4674 17.8409 9.80915 18.2226 8.11246 18.3292C6.56836 18.4261 5.03444 18.2956 3.53546 17.9391L13.9226 9.17298C15.2053 8.09021 17.0975 8.19238 18.1409 9.40121C18.2006 9.47021 18.2577 9.54186 18.3107 9.61573C19.2126 10.867 19.0919 12.6646 18.0241 13.8893C17.9427 13.9826 17.9043 14.1052 17.918 14.2281C17.9312 14.3511 17.9958 14.4625 18.0949 14.536C18.5173 14.8478 19.662 15.5488 21.1552 15.3175C21.3932 15.2804 21.613 15.2224 21.8169 15.153L22.0474 23.019C21.3322 22.7363 20.6497 22.4524 20.0043 22.0716C19.7394 21.915 19.4276 21.6792 19.2029 21.3608C19.2737 21.3462 19.3444 21.3307 19.4147 21.3064C19.9769 21.1122 20.4626 20.6341 20.7461 19.9949C21.253 18.8524 20.9602 17.5919 20.08 17.1257C19.7115 16.9297 19.2776 16.9019 18.8574 17.0461C18.2953 17.2402 17.8096 17.7184 17.5261 18.3575C17.0298 19.4743 17.3036 20.7008 18.14 21.1905C18.4027 22.0043 19.0445 22.5324 19.5545 22.8337C20.3126 23.2813 21.1198 23.6059 21.9076 23.9151C21.7988 23.9682 21.6891 24.0199 21.5816 24.077C19.877 24.9806 18.7371 26.4066 18.4545 27.9883C18.2024 29.3962 18.65 30.7912 19.75 32.0226C20.486 32.8466 21.3697 33.4627 22.2455 34.0431C21.7125 34.4093 21.1167 34.8551 20.7364 35.5195C20.2635 36.3457 20.2273 37.409 20.6391 38.3644C21.0199 39.2468 21.7355 39.8908 22.5529 40.0876C22.5874 40.096 22.6224 40.0996 22.6564 40.0996C22.7117 40.0996 22.7648 40.0872 22.8148 40.0677C22.8652 40.0876 22.9196 40.0996 22.9767 40.0996H23.1049C23.1624 40.0996 23.2164 40.0872 23.2668 40.0677C23.3168 40.0872 23.3699 40.0996 23.4251 40.0996C23.4592 40.0996 23.4942 40.0956 23.5287 40.0876C24.346 39.8917 25.0612 39.2477 25.4425 38.3644C25.8552 37.4095 25.8189 36.3462 25.3457 35.5195C24.9653 34.8556 24.3695 34.4093 23.8365 34.0426C24.7123 33.4623 25.596 32.8466 26.3316 32.0226C27.4311 30.7912 27.8792 29.3962 27.6271 27.9883C27.344 26.4066 26.2042 24.9806 24.5 24.077C24.3925 24.0199 24.2828 23.9682 24.174 23.9151C24.9617 23.6059 25.7694 23.2813 26.5275 22.8337C27.0375 22.532 27.6793 22.0039 27.9416 21.1905C28.778 20.7004 29.0513 19.4743 28.5555 18.3575C28.272 17.7184 27.7867 17.2407 27.2241 17.0461C26.8048 16.9019 26.3705 16.9293 26.0016 17.1252C25.1218 17.5919 24.829 18.8524 25.3355 19.9949C25.619 20.6341 26.1042 21.1117 26.6668 21.3064C26.7372 21.3307 26.8079 21.3462 26.8787 21.3608C26.654 21.6792 26.3422 21.915 26.0772 22.0716C25.4323 22.4528 24.7499 22.7363 24.0342 23.019L24.2638 15.18C24.4447 15.2375 24.6371 15.2857 24.8436 15.3175C26.3347 15.5493 27.4811 14.8482 27.904 14.536C28.0035 14.4625 28.0676 14.3511 28.0809 14.2281C28.0942 14.1056 28.0557 13.9826 27.9747 13.8893C26.907 12.6641 26.7858 10.867 27.6872 9.61661C27.7412 9.54186 27.7982 9.47021 27.858 9.40121C28.9014 8.19327 30.7931 8.08977 32.0767 9.17342L42.463 17.9382C40.9644 18.2947 39.4305 18.4256 37.886 18.3283C36.1893 18.2217 34.5311 17.84 32.9564 17.1942C32.7848 17.1239 32.5862 17.1681 32.4611 17.3057C32.3359 17.4437 32.3102 17.6449 32.3969 17.8095C33.1002 19.1448 34.029 20.1705 35.1582 20.8587C36.3719 21.5992 37.5211 21.781 38.2814 21.9017C38.3172 21.9075 38.3548 21.9132 38.3928 21.9194C37.6719 22.2874 36.0269 22.7713 34.2537 22.4617C32.5566 22.1644 31.304 21.2144 30.5521 20.4691C30.4163 20.3346 30.211 20.3032 30.0421 20.3877C29.8722 20.4731 29.7758 20.6571 29.8028 20.8455C30.0062 22.2679 30.5286 23.4405 31.3553 24.3313C31.7976 24.8077 32.2465 25.1177 32.5743 25.3442C32.6114 25.3698 32.6508 25.3968 32.6893 25.4242C32.2249 25.5074 31.3137 25.4875 30.491 25.1341C29.7877 24.832 29.1765 24.2911 28.7227 23.5683C28.5931 23.3618 28.3193 23.2994 28.1127 23.4294C27.9057 23.5595 27.8438 23.8324 27.9738 24.0394C28.5236 24.9147 29.2733 25.5742 30.142 25.9471C30.7984 26.2292 31.5234 26.3504 32.1422 26.3504C32.6305 26.3504 33.0542 26.2748 33.3258 26.1426C33.6261 25.997 33.734 25.7971 33.7721 25.6547C33.8986 25.1836 33.4996 24.9081 33.0772 24.6162C32.7667 24.4016 32.3801 24.1345 32.0033 23.7289C31.5588 23.2499 31.2168 22.6678 30.9807 21.9893C31.94 22.6811 32.9993 23.1397 34.1011 23.3326C36.3401 23.7236 38.6065 23.0048 39.3168 22.3573C39.5327 22.1605 39.6335 21.9486 39.6158 21.7279C39.5729 21.2099 39.0386 21.1255 38.4203 21.0273C37.7294 20.9176 36.6842 20.7517 35.6196 20.1028C34.9473 19.6928 34.3541 19.1426 33.8455 18.4588C35.1366 18.8732 36.4719 19.1253 37.8311 19.2107C39.7529 19.3328 41.6699 19.1174 43.5218 18.5711C43.678 18.5251 43.7961 18.3969 43.8293 18.2381C43.8629 18.0788 43.8058 17.9139 43.6815 17.8086L43.6833 17.8095ZM20.4099 31.4334C19.4979 30.4117 19.1228 29.2745 19.325 28.144C19.5567 26.8507 20.555 25.6224 21.9965 24.8585C22.0301 24.8408 22.0655 24.8249 22.0996 24.8072L22.3411 33.0434C21.6338 32.5622 20.973 32.0642 20.4099 31.4334ZM21.4511 38.0136C21.1486 37.313 21.1685 36.5452 21.5042 35.9587C21.7214 35.5792 22.0487 35.282 22.3986 35.0197L22.5193 39.1451C22.0708 38.9544 21.6816 38.5484 21.4511 38.0136ZM24.5787 35.9591C24.9144 36.5448 24.9339 37.313 24.6313 38.0136C24.4004 38.5484 24.0112 38.9544 23.5632 39.1451L23.6839 35.0197C24.0342 35.2824 24.3615 35.5801 24.5787 35.9591ZM24.0864 24.8585C25.5279 25.6224 26.5262 26.8507 26.7579 28.144C26.9601 29.2745 26.585 30.4117 25.673 31.4334C25.1099 32.0646 24.4491 32.5627 23.7418 33.0443L23.9833 24.8077C24.0174 24.8254 24.0528 24.8404 24.0864 24.8585Z" fill="#9E85F0"/>
<path d="M37.4289 16.2265H37.432C37.6753 16.2265 37.8725 16.0305 37.8743 15.7873C37.8761 15.5427 37.6793 15.3436 37.4351 15.3419C37.3851 15.3419 32.4193 15.2693 30.946 11.7862C30.8509 11.561 30.5908 11.4562 30.3661 11.5513C30.141 11.6464 30.0362 11.906 30.1313 12.1312C31.8288 16.1447 37.2011 16.2252 37.4289 16.2265Z" fill="#9E85F0"/>
</svg>
