<svg width="46" height="46" viewBox="0 0 46 46" fill="none" xmlns="http://www.w3.org/2000/svg">
<path d="M39.3734 14.4055L39.3725 14.4037L39.3699 14.3984C39.3606 14.3741 39.3455 14.3502 39.3336 14.3259C39.3159 14.3038 39.2982 14.2816 39.2761 14.2595L39.2584 14.2418L32.6326 7.61606L32.6282 7.61296C32.5844 7.57006 32.5309 7.53866 32.4721 7.51654C32.4606 7.51256 32.4495 7.50814 32.438 7.50504H32.4292C32.4159 7.50062 32.3982 7.4962 32.3849 7.4962C32.3721 7.49089 32.3593 7.49177 32.3464 7.49089C32.3367 7.49045 32.3288 7.48514 32.319 7.48514H8.78869C7.57721 7.48514 6.59131 8.47104 6.59131 9.68252V29.3524C6.59131 30.5634 7.57721 31.5493 8.78869 31.5493H24.4159L21.7275 36.2068C21.6453 36.3493 21.6488 36.5257 21.7368 36.6646C21.8248 36.8035 21.9792 36.8805 22.1473 36.869L24.9126 36.6394L26.0975 39.1438C26.1678 39.2924 26.3151 39.3901 26.4792 39.3963C26.4854 39.3963 26.4912 39.3963 26.4974 39.3963C26.6548 39.3963 26.8012 39.3127 26.8804 39.1752L29.6355 34.4009L32.3911 39.1752C32.4738 39.3176 32.6313 39.4091 32.7923 39.3959C32.9568 39.3888 33.1041 39.2915 33.174 39.1429L34.355 36.639L37.1198 36.8685C37.2888 36.8805 37.4423 36.8035 37.5303 36.6642C37.6183 36.5257 37.6218 36.3488 37.5396 36.2064L34.8517 31.5489H37.2087C38.4202 31.5489 39.4061 30.563 39.4061 29.3519V14.5824C39.4061 14.5793 39.4079 14.5767 39.4079 14.5736C39.4079 14.5161 39.3946 14.4586 39.3725 14.4055H39.3734ZM32.7609 8.99606L37.8961 14.1313H32.7609V8.99606ZM26.5363 38.0035L25.5813 35.9852C25.5022 35.8185 25.3306 35.7128 25.1448 35.734L22.9164 35.9184L25.1528 32.0443L25.1536 32.0452C26.0781 33.1067 27.3696 33.8365 28.8292 34.0311L26.5367 38.0039L26.5363 38.0035ZM29.7355 33.2036H29.7209C29.7107 33.2036 29.701 33.2005 29.6904 33.2009L29.6608 33.2036H29.6404L29.5829 33.2009C29.5718 33.2 29.5621 33.2031 29.5515 33.2036H29.5232C27.8645 33.1682 26.3961 32.3278 25.4938 31.0584C25.4938 31.0539 25.4893 31.0539 25.4893 31.0495C25.4814 31.0336 25.4668 31.0168 25.4571 30.9973C25.4531 30.992 25.4509 30.9863 25.4469 30.9814L25.4451 30.9788L25.4363 30.9699C24.8922 30.1605 24.5738 29.1874 24.5738 28.1436C24.5738 25.3526 26.8428 23.0836 29.6338 23.0836C32.4247 23.0836 34.6938 25.3526 34.6938 28.1436C34.6938 29.1918 34.3735 30.1707 33.8242 30.9788C33.8171 30.9876 33.8127 30.9973 33.8061 31.0071L33.8043 31.0097C33.7999 31.0141 33.7999 31.0186 33.7954 31.023C33.7866 31.0318 33.7822 31.0363 33.7822 31.0407C33.7822 31.0407 33.7822 31.0451 33.7778 31.0451C32.8799 32.3234 31.4114 33.1638 29.7439 33.2036H29.7355ZM36.352 35.918L34.1232 35.7336C33.9352 35.7128 33.7649 35.8185 33.6866 35.9852L32.7357 38.0022L30.4432 34.0307C31.9028 33.8316 33.1943 33.1018 34.1143 32.0447L34.1157 32.0429L36.352 35.918ZM38.5219 29.3528C38.5219 30.0764 37.9332 30.6652 37.2092 30.6652H35.0162C35.3745 29.8995 35.5779 29.0459 35.5779 28.1436C35.5779 24.8661 32.9108 22.1989 29.6333 22.1989C26.3558 22.1989 23.6887 24.8661 23.6887 28.1436C23.6887 29.0459 23.8922 29.8995 24.2504 30.6647H8.78869C8.06464 30.6652 7.47592 30.0764 7.47592 29.3528V9.68341C7.47592 8.95935 8.06464 8.37064 8.78869 8.37064H31.8763V14.5736C31.8763 14.8168 32.0753 15.0159 32.3186 15.0159H38.5224L38.5219 29.3528Z" fill="#9E85F0"/>
<path d="M29.6337 31.3016C31.3778 31.3016 32.7917 29.8877 32.7917 28.1436C32.7917 26.3994 31.3778 24.9855 29.6337 24.9855C27.8895 24.9855 26.4756 26.3994 26.4756 28.1436C26.4756 29.8877 27.8895 31.3016 29.6337 31.3016Z" fill="#9E85F0"/>
<path d="M14.7724 18.9701C16.9308 18.9701 18.6868 17.2141 18.6868 15.0513C18.6868 12.8884 16.9308 11.1368 14.7724 11.1368C12.6139 11.1368 10.8535 12.8928 10.8535 15.0513C10.8535 17.2097 12.6095 18.9701 14.7724 18.9701ZM13.2022 14.609H14.3301V13.4855C14.3301 13.2378 14.5247 13.0432 14.7724 13.0432C15.0156 13.0432 15.2147 13.2378 15.2147 13.4855V14.609H16.3381C16.5858 14.609 16.7804 14.808 16.7804 15.0513C16.7804 15.2945 16.5858 15.4936 16.3381 15.4936H15.2147V16.6215C15.2147 16.8647 15.0156 17.0638 14.7724 17.0638C14.5247 17.0638 14.3301 16.8647 14.3301 16.6215V15.4936H13.2022C12.9589 15.4936 12.7599 15.2945 12.7599 15.0513C12.7599 14.808 12.9589 14.609 13.2022 14.609Z" fill="#9E85F0"/>
<path d="M28.6319 12.7238H21.3984C21.1538 12.7238 20.9561 12.9215 20.9561 13.1661C20.9561 13.4107 21.1538 13.6084 21.3984 13.6084H28.6319C28.8765 13.6084 29.0742 13.4107 29.0742 13.1661C29.0742 12.9215 28.8765 12.7238 28.6319 12.7238Z" fill="#9E85F0"/>
<path d="M28.6319 16.4963H21.3984C21.1538 16.4963 20.9561 16.694 20.9561 16.9386C20.9561 17.1832 21.1538 17.3809 21.3984 17.3809H28.6319C28.8765 17.3809 29.0742 17.1832 29.0742 16.9386C29.0742 16.694 28.8765 16.4963 28.6319 16.4963Z" fill="#9E85F0"/>
<path d="M20.8076 21.539H11.3803C11.1357 21.539 10.938 21.7367 10.938 21.9813C10.938 22.2259 11.1357 22.4236 11.3803 22.4236H20.8072C21.0518 22.4236 21.2495 22.2259 21.2495 21.9813C21.2495 21.7367 21.0522 21.539 20.8076 21.539Z" fill="#9E85F0"/>
<path d="M18.7517 26.5234C18.481 26.7202 18.2347 26.7874 17.9985 26.7268C17.5133 26.603 17.1232 25.9754 17.0143 25.7449C16.9551 25.6175 16.8392 25.526 16.7012 25.4977C16.5645 25.4707 16.4208 25.5087 16.3168 25.6034L15.5264 26.3182C14.8134 25.2376 14.2088 25.0222 13.8917 24.9965C12.6271 24.8953 11.7827 25.5401 10.9003 27.3058C10.7911 27.5243 10.8795 27.7902 11.098 27.8994C11.1617 27.9308 11.229 27.9458 11.2953 27.9458C11.4576 27.9458 11.6142 27.8565 11.6916 27.7013C12.5784 25.9272 13.1813 25.8237 13.82 25.8785C13.9567 25.8891 14.4419 26.1523 15.0403 27.2213C15.1062 27.339 15.2221 27.4199 15.3548 27.4421C15.4893 27.4633 15.6229 27.4235 15.7233 27.3333L16.5114 26.6203C16.7711 26.9838 17.1948 27.4323 17.7751 27.5827C18.1188 27.6712 18.6589 27.684 19.2719 27.2386C19.4696 27.0948 19.5134 26.8184 19.3696 26.6211C19.2263 26.4234 18.9486 26.3801 18.7517 26.5234Z" fill="#9E85F0"/>
</svg>
