<svg width="138" height="90" viewBox="0 0 138 90" fill="none" xmlns="http://www.w3.org/2000/svg">
<path d="M127.374 1.08628C121.476 1.08628 116.732 5.81601 116.732 11.7133C116.732 13.1728 116.997 14.589 117.55 15.8647L108.44 21.1079C106.95 19.5565 104.909 18.5836 102.553 18.5836C100.197 18.5836 98.236 19.5025 96.752 21.0052L79.0254 10.7836C79.3179 9.96736 79.54 9.08087 79.54 8.14574C79.54 3.63222 75.8571 -0.00561523 71.3347 -0.00561523C66.8123 -0.00561523 63.1782 3.63763 63.1782 8.14574C63.1782 9.11871 63.3407 10.0322 63.6548 10.9403L45.4407 21.4268C43.9513 19.6863 41.7687 18.5782 39.299 18.5782C34.7766 18.5782 31.0775 22.2214 31.0775 26.7133C31.0775 31.2052 34.5112 34.5836 38.8061 34.8593V54.1457C34.5112 54.416 31.0775 57.9403 31.0775 62.2701C31.0775 63.4593 31.3591 64.5295 31.7924 65.5349L19.0323 72.8917C17.1204 70.3728 14.082 68.7349 10.6754 68.7349C4.78274 68.7349 0.0112305 73.5025 0.0112305 79.362C0.0112305 85.2214 4.78815 89.989 10.6754 89.989C16.5626 89.989 21.3395 85.216 21.3395 79.362C21.3395 77.762 20.9387 76.2593 20.3104 74.9349L33.0922 67.562C34.5925 69.2971 36.813 70.4376 39.299 70.4376C42.0232 70.4376 44.4442 69.0917 45.9174 67.0322L63.7794 77.2809C63.3732 78.2376 63.1836 79.2593 63.1836 80.3133C63.1836 84.8106 66.7961 88.4863 71.3401 88.4863C75.8841 88.4863 79.5454 84.8106 79.5454 80.3133C79.5454 79.2917 79.3071 78.3403 78.9767 77.4322L96.3133 67.4322C97.7919 69.2376 100.067 70.4322 102.558 70.4322C107.075 70.4322 110.758 66.789 110.758 62.2647C110.758 58.2917 107.914 55.0052 104.161 54.2538V34.7079C107.914 33.9944 110.758 30.6755 110.758 26.7025C110.758 25.4106 110.422 24.1511 109.875 23.0592L118.779 17.9187C120.685 20.5728 123.843 22.3079 127.374 22.3079C133.229 22.3079 138.006 17.5403 138.006 11.6863C138.006 5.83222 133.234 1.05925 127.374 1.05925V1.08628ZM127.374 19.9295C122.803 19.9295 119.136 16.2376 119.136 11.7079C119.136 7.17817 122.803 3.46466 127.374 3.46466C131.945 3.46466 135.596 7.14574 135.596 11.7079C135.596 16.2701 131.913 19.9295 127.374 19.9295ZM108.337 26.7241C108.337 29.9295 105.759 32.5187 102.553 32.5187C99.3463 32.5187 96.7845 29.9295 96.7845 26.7241C96.7845 23.5187 99.3788 20.9728 102.553 20.9728C105.726 20.9728 108.337 23.562 108.337 26.7241ZM102.553 68.0701C99.3788 68.0701 96.7845 65.4809 96.7845 62.2809C96.7845 59.0809 99.3788 56.5187 102.553 56.5187C105.726 56.5187 108.337 59.1079 108.337 62.2809C108.337 65.4538 105.759 68.0701 102.553 68.0701ZM77.119 80.3295C77.119 83.4971 74.5247 86.0809 71.3347 86.0809C68.1447 86.0809 65.5666 83.4917 65.5666 80.3295C65.5666 77.1674 68.1393 74.5403 71.3347 74.5403C74.5301 74.5403 77.119 77.1295 77.119 80.3295ZM71.3347 72.162C68.7404 72.162 66.4874 73.3836 64.9817 75.2592L46.9843 64.9079C47.2768 64.0917 47.4772 63.2052 47.4772 62.2917C47.4772 58.4376 44.78 55.2376 41.2054 54.3728V34.6701C44.78 33.816 47.4772 30.5836 47.4772 26.7349C47.4772 25.5782 47.2226 24.4593 46.7677 23.4484L64.8301 13.0484C66.3357 15.0214 68.6863 16.3349 71.3347 16.3349C73.9831 16.3349 76.4366 14.9944 77.9531 12.9457L95.3655 22.989C94.7373 24.1133 94.4015 25.3728 94.4015 26.7349C94.4015 30.9944 97.6403 34.4322 101.767 34.843V54.2214C97.6403 54.6268 94.4015 58.0647 94.4015 62.2917C94.4015 63.4106 94.6181 64.4863 95.0298 65.4538L77.8014 75.362C76.3012 73.4214 73.994 72.162 71.3401 72.162H71.3347ZM39.2936 68.0755C36.1035 68.0755 33.5255 65.4863 33.5255 62.2863C33.5255 59.0863 36.0981 56.5241 39.2936 56.5241C42.489 56.5241 45.0779 59.1133 45.0779 62.2863C45.0779 65.4593 42.4674 68.0755 39.2936 68.0755ZM39.2936 20.9782C42.4674 20.9782 45.0779 23.5674 45.0779 26.7295C45.0779 29.8917 42.4674 32.5241 39.2936 32.5241C36.1198 32.5241 33.5255 29.9349 33.5255 26.7295C33.5255 23.5241 36.0981 20.9782 39.2936 20.9782ZM65.5666 8.15114C65.5666 4.95114 68.1393 2.37817 71.3347 2.37817C74.5301 2.37817 77.119 4.95114 77.119 8.15114C77.119 11.3511 74.5247 13.9241 71.3347 13.9241C68.1447 13.9241 65.5666 11.3187 65.5666 8.15114ZM18.9348 79.3782C18.9348 83.9079 15.2031 87.6214 10.6645 87.6214C6.12591 87.6214 2.40511 83.9079 2.40511 79.3782C2.40511 74.8484 6.088 71.1349 10.6645 71.1349C15.2411 71.1349 18.9348 74.816 18.9348 79.3782Z" fill="white"/>
</svg>
