<svg width="20" height="20" viewBox="0 0 20 20" fill="none" xmlns="http://www.w3.org/2000/svg">
<path fill-rule="evenodd" clip-rule="evenodd" d="M10 2.50001C7.23862 2.50001 5.00004 4.73859 5.00004 7.50001C5.00004 10.2614 7.23862 12.5 10 12.5C12.7615 12.5 15 10.2614 15 7.50001C15 4.73859 12.7615 2.50001 10 2.50001ZM3.33337 7.50001C3.33337 3.81811 6.31814 0.833344 10 0.833344C13.6819 0.833344 16.6667 3.81811 16.6667 7.50001C16.6667 11.1819 13.6819 14.1667 10 14.1667C6.31814 14.1667 3.33337 11.1819 3.33337 7.50001Z" fill="#28525C"/>
<path fill-rule="evenodd" clip-rule="evenodd" d="M10 12.5C10.4603 12.5 10.8334 12.8731 10.8334 13.3333V19.1667C10.8334 19.6269 10.4603 20 10 20C9.5398 20 9.16671 19.6269 9.16671 19.1667V13.3333C9.16671 12.8731 9.5398 12.5 10 12.5Z" fill="#28525C"/>
<path fill-rule="evenodd" clip-rule="evenodd" d="M13.3334 16.6667C13.3334 17.1269 12.9603 17.5 12.5 17.5H7.50004C7.0398 17.5 6.66671 17.1269 6.66671 16.6667C6.66671 16.2064 7.0398 15.8333 7.50004 15.8333H12.5C12.9603 15.8333 13.3334 16.2064 13.3334 16.6667Z" fill="#28525C"/>
</svg>
