<svg width="32" height="32" viewBox="0 0 32 32" fill="none" xmlns="http://www.w3.org/2000/svg">
<path d="M14.6963 1.8618V10.99C14.6963 13.2428 12.9099 15.0728 10.7162 15.0728H5.37836C4.37796 15.0728 3.56335 14.2372 3.56335 13.211C3.56335 12.1848 4.37796 11.3467 5.37836 11.3467H10.7162C10.902 11.3467 11.0663 11.1806 11.0663 10.99V1.8618C11.0663 0.835613 11.8809 0 12.8813 0C13.8817 0 14.6963 0.835613 14.6963 1.8618Z" fill="#A68FF1"/>
<path d="M31.3599 13.2207C31.3599 14.2469 30.5453 15.0825 29.5449 15.0825H20.6462C18.4501 15.0825 16.666 13.25 16.666 10.9997V5.52428C16.666 4.49809 17.4806 3.66248 18.481 3.66248C19.4814 3.66248 20.296 4.49809 20.296 5.52428V10.9997C20.296 11.1903 20.4604 11.3565 20.6462 11.3565H29.5449C30.5453 11.3565 31.3599 12.1921 31.3599 13.2207Z" fill="#A68FF1"/>
<path d="M27.799 18.7913C27.799 19.8174 26.9844 20.6531 25.984 20.6531H20.6462C20.4604 20.6531 20.296 20.8192 20.296 21.0098V30.138C20.296 31.1642 19.4814 31.9998 18.481 31.9998C17.4806 31.9998 16.666 31.1642 16.666 30.138V21.0098C16.666 18.7595 18.4524 16.927 20.6462 16.927H25.984C26.9844 16.927 27.799 17.7626 27.799 18.7913Z" fill="#A68FF1"/>
<path d="M14.6963 21.0098V26.4852C14.6963 27.5114 13.8817 28.347 12.8813 28.347C11.8809 28.347 11.0663 27.5114 11.0663 26.4852V21.0098C11.0663 20.8192 10.9019 20.6531 10.7162 20.6531H1.81501C0.814609 20.6531 0 19.8174 0 18.7913C0 17.7651 0.814609 16.927 1.81501 16.927H10.7138C12.9099 16.927 14.6939 18.7595 14.6939 21.0098H14.6963Z" fill="#C1E9F5"/>
<path d="M8.04133 10.2569C9.10293 10.2569 9.96352 9.37408 9.96352 8.28511C9.96352 7.19614 9.10293 6.31335 8.04133 6.31335C6.97973 6.31335 6.11914 7.19614 6.11914 8.28511C6.11914 9.37408 6.97973 10.2569 8.04133 10.2569Z" fill="#A68FF1"/>
<path d="M25.179 8.30464C25.179 9.39191 24.3167 10.2764 23.2568 10.2764C22.1968 10.2764 21.3346 9.39191 21.3346 8.30464C21.3346 7.21737 22.1968 6.33289 23.2568 6.33289C24.3167 6.33289 25.179 7.21737 25.179 8.30464Z" fill="#A68FF1"/>
<path d="M9.96816 23.7587C9.96816 24.846 9.10592 25.7305 8.04597 25.7305C6.98603 25.7305 6.12378 24.846 6.12378 23.7587C6.12378 22.6715 6.98603 21.787 8.04597 21.787C9.10592 21.787 9.96816 22.6715 9.96816 23.7587Z" fill="#C1E9F5"/>
<path d="M25.179 23.7587C25.179 24.846 24.3167 25.7305 23.2568 25.7305C22.1968 25.7305 21.3346 24.846 21.3346 23.7587C21.3346 22.6715 22.1968 21.787 23.2568 21.787C24.3167 21.787 25.179 22.6715 25.179 23.7587Z" fill="#A68FF1"/>
</svg>
