<svg width="45" height="44" viewBox="0 0 45 44" fill="none" xmlns="http://www.w3.org/2000/svg">
<path d="M31.5344 30.8656C31.6732 30.6777 31.633 30.4129 31.4451 30.2741C31.2569 30.1353 30.992 30.1759 30.8537 30.3634C30.6536 30.635 30.3443 30.7902 30.0046 30.7902C29.6648 30.7902 29.3556 30.6346 29.1554 30.3634C29.0167 30.1755 28.7518 30.1357 28.564 30.2741C28.3761 30.4129 28.3359 30.6777 28.4747 30.8656C28.8309 31.3483 29.4029 31.636 30.0046 31.636C30.6062 31.636 31.1786 31.3479 31.5344 30.8656Z" fill="#A68FF1"/>
<path d="M34.7713 35.2545L32.5328 34.5916C32.2552 34.5357 32.0539 34.2895 32.0539 34.0065V32.8172C33.0828 32.23 33.8426 31.2104 34.0681 29.9779C34.1134 29.7292 34.1362 29.4774 34.1362 29.2291V28.3419H34.3245C34.5572 28.3419 34.7476 28.1515 34.7476 27.9188V25.6934C34.7476 23.5442 32.9961 21.7927 30.8426 21.7927H25.9264C25.6895 21.7927 25.5034 21.9788 25.5034 22.2157C25.5034 22.6811 25.6684 23.1254 25.973 23.4765C25.1903 23.9419 25.1903 25.1815 25.1903 25.9134V27.9188C25.1903 28.1515 25.3807 28.3419 25.6134 28.3419C25.7022 28.3419 25.7868 28.3377 25.8714 28.325H25.8723V29.2291C25.8723 29.4779 25.8951 29.73 25.9408 29.9784C26.1663 31.2108 26.9262 32.23 27.9551 32.8176V34.0069C27.9551 34.2899 27.7537 34.5362 27.4394 34.6009L25.2745 35.2457C23.7599 35.5515 22.6611 36.8944 22.6611 38.4395V39.1172C22.6611 39.3512 22.8507 39.5403 23.0842 39.5403C23.3177 39.5403 23.5073 39.3512 23.5073 39.1172V38.4395C23.5073 37.2959 24.3209 36.3012 25.4788 36.0664L26.5196 35.7563C26.6 35.86 27.8671 37.4474 29.8454 37.5472C29.9101 37.5506 29.9753 37.5519 30.04 37.5519C31.2686 37.5519 32.4757 36.9583 33.6349 35.799L34.5682 36.0753C35.6889 36.3012 36.5029 37.2959 36.5029 38.4395V39.1172C36.5029 39.3512 36.6925 39.5403 36.926 39.5403C37.1596 39.5403 37.3491 39.3512 37.3491 39.1172V38.4395C37.3491 36.8948 36.2499 35.5515 34.7726 35.255L34.7713 35.2545ZM26.7734 29.826C26.7371 29.6276 26.7189 29.4271 26.7189 29.2291V28.0199C26.8115 27.9607 26.9004 27.8977 26.9761 27.83C27.5134 27.3857 27.8519 26.6919 27.9069 25.943H32.1461V26.4169C32.1461 27.0007 32.4042 27.5465 32.8611 27.9146C32.8696 27.9188 32.878 27.9273 32.8865 27.9315C33.0134 28.0288 33.1446 28.1092 33.2884 28.1727L33.2905 28.1735V29.2291C33.2905 29.4267 33.2723 29.6272 33.2359 29.826C32.9512 31.3838 31.5919 32.5143 30.0045 32.5143C28.4171 32.5143 27.0582 31.3834 26.7734 29.826ZM29.8945 36.7019C28.7166 36.6456 27.8193 35.8938 27.4174 35.4885L27.6437 35.4212C28.3147 35.2863 28.8017 34.691 28.8017 34.0065V33.1789C29.1841 33.2953 29.5873 33.3604 30.0049 33.3604C30.4225 33.3604 30.8257 33.2949 31.2081 33.1785V34.006C31.2081 34.6906 31.6951 35.2854 32.3293 35.4115L32.6991 35.5211C31.7683 36.3469 30.8299 36.7489 29.8949 36.7015L29.8945 36.7019Z" fill="#A68FF1"/>
<path d="M24.5029 32.5638C24.502 32.3307 24.3125 32.1424 24.0798 32.1424H24.0781L9.76586 32.2042L8.5182 23.045C8.43274 22.4172 8.6227 21.783 9.03943 21.3053C9.45616 20.8281 10.059 20.5543 10.6928 20.5543H20.9237C21.4631 20.5543 21.9462 20.2121 22.1256 19.7035L22.9477 17.372C23.0082 17.2006 23.1706 17.0855 23.3521 17.0855H33.2648C33.9231 17.0855 34.5408 17.3766 34.9592 17.8856C35.3777 18.3937 35.5452 19.0558 35.4187 19.7014L34.9427 22.1337C34.8979 22.363 35.0477 22.5851 35.277 22.6304C35.5067 22.6748 35.7284 22.5255 35.7732 22.2966L36.2492 19.8643C36.4244 18.9691 36.1921 18.0518 35.6125 17.3478C35.0324 16.6434 34.177 16.2398 33.2648 16.2398H23.3521C22.8127 16.2398 22.3295 16.5821 22.1502 17.0906L21.3281 19.4222C21.2676 19.5935 21.1052 19.7086 20.9241 19.7086H10.6928C9.81451 19.7086 8.97978 20.0877 8.40228 20.7494C7.82478 21.4111 7.5612 22.2898 7.67966 23.1597L8.97724 32.6869C9.00559 32.8968 9.18497 33.0529 9.39651 33.0529H9.3982L24.0815 32.9898C24.315 32.989 24.5037 32.7986 24.5029 32.5651V32.5638Z" fill="#A68FF1"/>
<path d="M11.6265 26.6496C11.6265 28.7312 13.323 30.4235 15.4045 30.4235C17.4861 30.4235 19.1784 28.7312 19.1784 26.6496C19.1784 24.5681 17.4861 22.8758 15.4045 22.8758C13.323 22.8758 11.6265 24.5681 11.6265 26.6496ZM15.8276 25.135V26.2266H16.9149C17.1476 26.2266 17.338 26.4169 17.338 26.6496C17.338 26.8823 17.1476 27.0727 16.9149 27.0727H15.8276V28.16C15.8276 28.3969 15.6372 28.5831 15.4045 28.5831C15.1676 28.5831 14.9815 28.3969 14.9815 28.16V27.0727H13.8899C13.6572 27.0727 13.4668 26.8823 13.4668 26.6496C13.4668 26.4169 13.6572 26.2266 13.8899 26.2266H14.9815V25.135C14.9815 24.9023 15.1676 24.7119 15.4045 24.7119C15.6372 24.7119 15.8276 24.9023 15.8276 25.135Z" fill="#A68FF1"/>
<path d="M10.1318 18.4411C10.3654 18.4411 10.5549 18.252 10.5549 18.018V9.92412C10.5549 9.42193 11.019 9.01366 11.5897 9.01366H30.4251C30.9959 9.01366 31.46 9.42235 31.46 9.92412V14.4862C31.46 14.7201 31.6495 14.9092 31.883 14.9092C32.1166 14.9092 32.3061 14.7201 32.3061 14.4862V9.92412C32.3061 8.95528 31.4621 8.16751 30.4251 8.16751H13.0443V6.33897C13.0443 5.76951 13.5092 5.30666 14.0808 5.30666H32.9162C33.4852 5.30666 33.9485 5.76993 33.9485 6.33897V14.157C33.9485 14.391 34.138 14.5801 34.3716 14.5801C34.6051 14.5801 34.7947 14.391 34.7947 14.157V6.33854C34.7947 5.30285 33.9519 4.46008 32.9162 4.46008H14.0808C13.0426 4.46008 12.1981 5.30285 12.1981 6.33854V8.16708H11.5897C10.5524 8.16708 9.70874 8.95485 9.70874 9.9237V18.0176C9.70874 18.2515 9.89828 18.4411 10.1318 18.4411Z" fill="#A68FF1"/>
<path d="M24.6814 11.5136C24.6814 11.2796 24.4919 11.0905 24.2584 11.0905H13.7119C13.4784 11.0905 13.2888 11.2796 13.2888 11.5136C13.2888 11.7476 13.4784 11.9367 13.7119 11.9367H24.2588C24.4923 11.9367 24.6819 11.7476 24.6819 11.5136H24.6814Z" fill="#A68FF1"/>
<path d="M13.7119 13.9201C13.4784 13.9201 13.2888 14.1092 13.2888 14.3432C13.2888 14.5771 13.4784 14.7663 13.7119 14.7663H20.7104C20.944 14.7663 21.1335 14.5771 21.1335 14.3432C21.1335 14.1092 20.944 13.9201 20.7104 13.9201H13.7119Z" fill="#A68FF1"/>
</svg>
