<svg width="45" height="44" viewBox="0 0 45 44" fill="none" xmlns="http://www.w3.org/2000/svg">
<path d="M10.4602 21.56H19.6029C19.8356 21.56 20.026 21.3696 20.026 21.1369V16.5212C20.026 16.2885 19.8356 16.0981 19.6029 16.0981H10.4602C10.2275 16.0981 10.0371 16.2885 10.0371 16.5212V21.1369C10.0371 21.3696 10.2275 21.56 10.4602 21.56ZM15.3129 19.3346L16.9206 17.7269C17.0856 17.5577 17.3521 17.5577 17.5171 17.7269C17.6821 17.8919 17.6821 18.1585 17.5171 18.3235L15.9094 19.9312C15.829 20.0158 15.719 20.0539 15.609 20.0539C15.5033 20.0539 15.3933 20.0158 15.3129 19.9312C15.1479 19.7662 15.1479 19.4996 15.3129 19.3346ZM12.546 19.3346L14.1536 17.7269C14.3186 17.5577 14.5852 17.5577 14.7544 17.7269C14.9194 17.8919 14.9194 18.1585 14.7544 18.3235L13.1425 19.9312C13.0621 20.0158 12.9521 20.0539 12.8463 20.0539C12.7363 20.0539 12.6306 20.0158 12.546 19.9312C12.381 19.7662 12.381 19.4996 12.546 19.3346Z" fill="#A68FF1"/>
<path d="M40.1561 30.2627H39.7225V26.6936L39.7233 26.6894L39.7225 26.6852V24.6481C39.7225 23.6432 39.3155 22.6571 38.6039 21.9412L36.4436 19.7848V16.47C36.4436 14.8373 35.1152 13.5084 33.4821 13.5084H32.5403V11.9976C32.5403 10.8342 31.5926 9.88647 30.4292 9.88647C29.2657 9.88647 28.318 10.8342 28.318 11.9976V13.5084H25.9471C25.9209 13.5084 25.898 13.519 25.8726 13.5232V11.0288C25.8726 10.7961 25.6822 10.6057 25.4496 10.6057H7.15148C5.5184 10.6057 4.18994 11.9342 4.18994 13.5672V32.8384C4.18994 33.0711 4.38033 33.2615 4.61302 33.2615H7.54917C7.76494 35.3092 9.49956 36.9126 11.6022 36.9126C13.7049 36.9126 15.4438 35.3092 15.6596 33.2615H28.5676C28.7834 35.3092 30.518 36.9126 32.6249 36.9126C34.7319 36.9126 36.4622 35.3092 36.678 33.2615H40.1557C40.9828 33.2615 41.6555 32.5888 41.6555 31.7617C41.6555 30.9345 40.9828 30.2619 40.1557 30.2619L40.1561 30.2627ZM13.4007 33.2623C13.2104 34.0789 12.4784 34.6881 11.6027 34.6881C10.7269 34.6881 9.99498 34.0789 9.8046 33.2623C9.77075 33.1269 9.75383 32.9831 9.75383 32.8392C9.75383 32.6912 9.77075 32.5516 9.8046 32.4162C9.99498 31.5954 10.7269 30.9904 11.6027 30.9904C12.4784 30.9904 13.2104 31.5954 13.4007 32.4162C13.4346 32.5516 13.4515 32.6912 13.4515 32.8392C13.4515 32.9831 13.4346 33.1269 13.4007 33.2623ZM25.0269 32.4162H15.66C15.4442 30.3642 13.7054 28.7608 11.6027 28.7608C9.49998 28.7608 7.76536 30.3642 7.5496 32.4162H5.03652V27.1129H25.0265L25.0269 32.4162ZM25.0269 26.2667H5.0361V13.5681C5.0361 12.4004 5.98802 11.4527 7.15148 11.4527H25.0265L25.0269 26.2667ZM25.8731 14.3402C25.898 14.3449 25.9209 14.355 25.9475 14.355H33.4825C34.6489 14.355 35.5979 15.304 35.5979 16.4704V19.9608C35.5979 20.0733 35.6423 20.1812 35.7219 20.2603L38.0052 22.5394C38.559 23.0966 38.8768 23.8658 38.8768 24.6485V26.2663H25.8731V14.3402ZM34.4234 33.2623C34.2331 34.0789 33.5011 34.6881 32.6254 34.6881C31.7496 34.6881 31.0177 34.0789 30.8273 33.2623C30.7934 33.1269 30.7765 32.9831 30.7765 32.8392C30.7765 32.6912 30.7934 32.5516 30.8273 32.4162C31.0177 31.5954 31.7496 30.9904 32.6254 30.9904C33.5011 30.9904 34.2331 31.5954 34.4234 32.4162C34.4573 32.5516 34.4742 32.6912 34.4742 32.8392C34.4742 32.9831 34.4573 33.1269 34.4234 33.2623ZM35.7815 30.2627C35.0327 29.3446 33.8988 28.7608 32.6254 28.7608C30.5184 28.7608 28.7838 30.3642 28.5681 32.4162H25.8731V27.1129H38.8768V30.2627H35.7815ZM40.1561 32.4162H36.6784C36.6277 31.9508 36.505 31.5108 36.3146 31.1089H40.1561C40.5166 31.1089 40.8098 31.402 40.8098 31.7625C40.8098 32.123 40.5166 32.4162 40.1561 32.4162Z" fill="#A68FF1"/>
<path d="M33.6278 15.8146H27.9543C27.7216 15.8146 27.5312 16.005 27.5312 16.2377V21.9112C27.5312 22.1439 27.7216 22.3343 27.9543 22.3343H33.6278C33.8605 22.3343 34.0509 22.1439 34.0509 21.9112V16.2377C34.0509 16.005 33.8605 15.8146 33.6278 15.8146ZM33.2047 21.4881H28.3774V16.6608H33.2047V21.4881Z" fill="#A68FF1"/>
<path d="M31.3519 23.7046H27.9563C27.7227 23.7046 27.5332 23.8937 27.5332 24.1277C27.5332 24.3616 27.7227 24.5507 27.9563 24.5507H31.3519C31.5854 24.5507 31.775 24.3616 31.775 24.1277C31.775 23.8937 31.5854 23.7046 31.3519 23.7046Z" fill="#A68FF1"/>
<path d="M30.4299 9.07374C30.6635 9.07374 30.853 8.88462 30.853 8.65066V7.50962C30.853 7.27566 30.6635 7.08655 30.4299 7.08655C30.1964 7.08655 30.0068 7.27566 30.0068 7.50962V8.65066C30.0068 8.88462 30.1964 9.07374 30.4299 9.07374Z" fill="#A68FF1"/>
<path d="M27.6515 9.97698C27.734 10.0595 27.8423 10.1009 27.9506 10.1009C28.0589 10.1009 28.1672 10.0595 28.2497 9.97698C28.4152 9.81156 28.4152 9.54417 28.2497 9.37875L27.4425 8.57194C27.2771 8.40652 27.0097 8.40652 26.8443 8.57194C26.6789 8.73737 26.6789 9.00475 26.8443 9.17017L27.6515 9.97698Z" fill="#A68FF1"/>
<path d="M32.91 10.1009C33.0183 10.1009 33.1266 10.0595 33.2091 9.97698L34.0163 9.17017C34.1818 9.00475 34.1818 8.73737 34.0163 8.57194C33.8509 8.40652 33.5835 8.40652 33.4181 8.57194L32.6109 9.37875C32.4455 9.54417 32.4455 9.81156 32.6109 9.97698C32.6934 10.0595 32.8017 10.1009 32.91 10.1009Z" fill="#A68FF1"/>
</svg>
