<svg width="45" height="44" viewBox="0 0 45 44" fill="none" xmlns="http://www.w3.org/2000/svg">
<path d="M20.3874 25.6232C20.3346 25.6232 20.2825 25.6287 20.2305 25.6312C20.2169 25.63 20.2051 25.6232 20.1911 25.6232C20.1679 25.6232 20.1476 25.6329 20.1251 25.6363C18.5119 25.7704 17.2397 27.1238 17.2397 28.7713V31.8661C17.2397 32.1001 17.4289 32.2892 17.6628 32.2892H27.727C27.9609 32.2892 28.1501 32.1001 28.1501 31.8661V28.7713C28.1501 27.0917 26.8372 25.7112 25.1593 25.627H25.1521C25.1479 25.627 25.1445 25.6245 25.1407 25.6245C25.1377 25.6245 25.1352 25.6262 25.1322 25.6262C25.0887 25.6245 25.0459 25.6228 25.0019 25.6228H24.3174V25.1383C24.9211 24.7487 25.3704 24.1513 25.5735 23.4676C26.1375 23.3327 26.5597 22.8279 26.5597 22.2242C26.5597 21.8523 26.3926 21.5088 26.1222 21.2702V20.1549C26.1222 18.5853 24.8446 17.3076 23.2792 17.3076H19.8565C19.6238 17.3076 19.4334 17.498 19.4334 17.7307C19.4334 18.0395 19.5265 18.3357 19.7042 18.5811C19.2176 18.9872 19.2176 19.8334 19.2176 20.3072V21.315C18.9752 21.554 18.8305 21.8768 18.8305 22.2238C18.8305 22.8279 19.2523 23.3327 19.8163 23.4672C20.0198 24.1517 20.4687 24.7483 21.0724 25.1379V25.6223H20.3883L20.3874 25.6232ZM20.1899 28.5534C20.3591 28.5534 20.4987 28.693 20.4987 28.8623C20.4987 29.0315 20.3591 29.1711 20.1899 29.1711C20.0206 29.1711 19.8852 29.0315 19.8852 28.8623C19.8852 28.693 20.0206 28.5534 20.1899 28.5534ZM27.3035 28.7717V31.4435H23.1027V30.6113C23.1027 30.3773 22.9136 30.1882 22.6797 30.1882C22.4457 30.1882 22.2566 30.3773 22.2566 30.6113V31.4435H18.0855V28.7717C18.0855 27.7195 18.7958 26.8319 19.7681 26.5582V27.7915H19.7672C19.3399 27.9569 19.0395 28.3715 19.0395 28.8623C19.0395 29.4969 19.5557 30.0173 20.1903 30.0173C20.8291 30.0173 21.3453 29.4969 21.3453 28.8623C21.3453 28.3719 21.0411 27.9535 20.6142 27.7881V26.4693H21.0741C21.0766 26.6225 21.0991 26.7757 21.1452 26.9254C21.3571 27.6083 21.9799 28.0673 22.6945 28.0673C23.4091 28.0673 24.0327 27.6083 24.2442 26.9242C24.2899 26.7752 24.3123 26.6225 24.3149 26.4693H24.7172V27.9222C24.0475 28.1083 23.5521 28.7167 23.5521 29.444C23.5521 29.678 23.7412 29.8671 23.9751 29.8671C24.2091 29.8671 24.3982 29.678 24.3982 29.444C24.3982 29.0357 24.7312 28.704 25.1403 28.704C25.5494 28.704 25.8824 29.0357 25.8824 29.444C25.8824 29.678 26.0715 29.8671 26.3054 29.8671C26.5394 29.8671 26.7285 29.678 26.7285 29.444C26.7285 28.7167 26.2331 28.1088 25.5634 27.9222V26.5383C26.5682 26.7888 27.3035 27.6967 27.3035 28.7717ZM20.5702 22.9819C20.5486 22.863 20.5359 22.7395 20.5359 22.6126V21.8358H20.5368C20.5664 21.8185 20.596 21.7973 20.6256 21.7719C20.651 21.755 20.6764 21.7338 20.7018 21.7085C21.0572 21.4038 21.2814 20.9512 21.3491 20.4562H24.0568V20.655C24.0568 21.0823 24.2345 21.4758 24.5518 21.7508C24.5547 21.7542 24.559 21.7567 24.5619 21.7601C24.5687 21.7673 24.5763 21.7723 24.5835 21.7791C24.5987 21.7931 24.6131 21.8087 24.6279 21.8185C24.6999 21.8735 24.7718 21.92 24.8522 21.9623V22.613C24.8522 22.7463 24.8403 22.8778 24.8158 23.0065C24.6982 23.658 24.2734 24.2296 23.6798 24.535C23.0689 24.8511 22.3209 24.8502 21.7083 24.535C21.1278 24.2355 20.7111 23.6813 20.5821 23.0441C20.5812 23.0361 20.5846 23.0289 20.5837 23.0213C20.5816 23.0069 20.5736 22.9955 20.5702 22.9819ZM22.6941 25.6181C22.9606 25.6181 23.2195 25.5809 23.4704 25.514V26.4431C23.4704 26.521 23.4586 26.5997 23.4353 26.6754C23.3359 26.9973 23.0308 27.2216 22.6941 27.2216C22.3573 27.2216 22.0527 26.9969 21.9532 26.6767C21.9296 26.5997 21.9177 26.521 21.9177 26.4431V25.5136C22.1686 25.5809 22.4275 25.6181 22.6941 25.6181Z" fill="#A68FF1"/>
<path d="M22.6688 24.2089C23.1287 24.2089 23.5653 23.9889 23.8373 23.6204C23.9761 23.4325 23.9359 23.1677 23.748 23.0289C23.5602 22.8901 23.2954 22.9303 23.1566 23.1182C22.9269 23.4287 22.4115 23.4287 22.1818 23.1182C22.043 22.9303 21.7786 22.8901 21.5904 23.0289C21.4025 23.1677 21.3623 23.4325 21.5011 23.6204C21.7731 23.9889 22.2097 24.2089 22.6692 24.2089H22.6688Z" fill="#A68FF1"/>
<path d="M36.4796 24.1843L32.6567 20.116V7.37334C32.6567 5.34765 31.0088 3.69977 28.9831 3.69977H16.4055C14.3798 3.69977 12.7319 5.34765 12.7319 7.37334V9.11261L11.824 8.20469C11.3717 7.75242 10.7697 7.50323 10.1287 7.50323C9.48775 7.50323 8.88571 7.75242 8.43386 8.20427L8.37378 8.26435C7.43921 9.19892 7.43921 10.7199 8.37378 11.6549L11.3781 14.6596H11.3764C11.1141 14.77 10.8729 14.935 10.6571 15.1508L10.6021 15.21C9.66713 16.145 9.66713 17.6638 10.6021 18.6031L11.4229 19.4196C11.4356 19.4323 11.4483 19.445 11.4652 19.4577C11.1691 19.5719 10.8941 19.7496 10.6571 19.9865L10.6021 20.0415C9.66713 20.9765 9.66713 22.4996 10.6021 23.4346L11.4229 24.2554C11.4356 24.2681 11.4483 24.2808 11.461 24.2892C11.1691 24.4077 10.8941 24.5812 10.6571 24.8181L10.6021 24.8773C9.66713 25.8123 9.66713 27.3354 10.6021 28.2704L11.4229 29.0912C11.7825 29.4508 12.2352 29.6835 12.7302 29.7596H12.7311V33.0101C12.7311 35.0358 14.3789 36.6837 16.4046 36.6837H25.1103C25.3442 36.6837 25.5334 36.4946 25.5334 36.2606C25.5334 36.0266 25.3442 35.8375 25.1103 35.8375H16.4046C14.8456 35.8375 13.5772 34.5692 13.5772 33.0101V29.7465C14.0422 29.6576 14.4691 29.4334 14.8117 29.0912L14.871 29.0319C15.3237 28.5792 15.5733 27.9785 15.5733 27.3354C15.5733 26.6965 15.3237 26.0915 14.871 25.6388L14.0502 24.8181C14.0375 24.8054 14.0248 24.7927 14.0121 24.7842C14.3083 24.6658 14.5791 24.4881 14.8117 24.2554L14.871 24.2004C15.806 23.2654 15.806 21.7423 14.871 20.8073L14.0502 19.9865C14.0375 19.9738 14.0248 19.9612 14.0121 19.9527C14.3083 19.8342 14.5791 19.6565 14.8117 19.4196L14.871 19.3646C15.3237 18.9119 15.5733 18.3069 15.5733 17.6681C15.5733 17.025 15.3237 16.4242 14.871 15.9715L14.0502 15.1508C13.9068 15.0073 13.746 14.8847 13.5772 14.7873V7.37334C13.5772 5.81431 14.8456 4.54592 16.4046 4.54592H28.9823C30.5413 4.54592 31.8097 5.81431 31.8097 7.37334V19.2161L30.9377 18.2883C30.6932 18.0277 30.3459 17.8843 29.9909 17.8987C29.6334 17.9113 29.2992 18.078 29.0741 18.3556L28.6345 18.8967C27.3517 20.4765 27.4529 22.7695 28.8702 24.23L31.6654 27.112C27.9995 31.7371 31.6722 35.733 31.7103 35.7737C31.8698 35.9433 32.1367 35.9509 32.3072 35.7918C32.4773 35.6319 32.4858 35.3645 32.3267 35.194C32.1884 35.0464 28.9852 31.5281 32.5535 27.3646C32.6961 27.1987 32.688 26.9517 32.5361 26.7947L29.4773 23.6411C28.3582 22.4878 28.2783 20.6778 29.2916 19.4302L29.7311 18.8891C29.8035 18.7998 29.9067 18.7482 30.0218 18.7444C30.1402 18.741 30.2431 18.7842 30.3217 18.8679L31.9337 20.5831L35.8624 24.7639C36.2601 25.1878 36.4796 25.7412 36.4796 26.323V36.6744C36.4796 38.2072 35.2324 39.4544 33.6996 39.4544H20.8017C20.5677 39.4544 20.3786 39.6435 20.3786 39.8775C20.3786 40.1115 20.5677 40.3006 20.8017 40.3006H33.6996C35.6995 40.3006 37.3258 38.6738 37.3258 36.6744V26.323C37.3258 25.525 37.025 24.7656 36.4788 24.1847L36.4796 24.1843ZM8.97201 8.863L9.03209 8.80292C9.61721 8.21781 10.6411 8.21781 11.2262 8.80292L12.7323 10.3091V14.4819H12.7315C12.6875 14.4696 12.6426 14.4658 12.5948 14.4616C12.3833 14.3913 12.1891 14.272 12.019 14.102L8.97286 11.0558C8.36828 10.4508 8.36828 9.46673 8.97286 8.86258L8.97201 8.863ZM14.2753 26.2392C14.5672 26.5311 14.728 26.9203 14.728 27.335C14.728 27.7496 14.5672 28.1388 14.2753 28.435L14.2161 28.49C13.9284 28.7777 13.5476 28.9215 13.1541 28.93C12.7395 28.9384 12.3249 28.7946 12.0203 28.49L11.1995 27.6692C10.5945 27.0642 10.5945 26.0784 11.1995 25.4734L11.2587 25.4184C11.5591 25.1138 11.9568 24.9615 12.3545 24.9615C12.7522 24.9615 13.1499 25.1138 13.4545 25.4184L14.2753 26.2392ZM14.2753 21.4034C14.8803 22.0084 14.8803 22.9942 14.2753 23.5992L14.2161 23.6584C13.628 24.2423 12.6084 24.2423 12.0203 23.6584L11.1995 22.8377C10.5945 22.2327 10.5945 21.2469 11.1995 20.6419L11.2587 20.5827C11.5591 20.2823 11.9568 20.13 12.3545 20.13C12.7522 20.13 13.1499 20.2823 13.4545 20.5827L14.2753 21.4034ZM14.2753 16.5677C14.5672 16.8638 14.728 17.253 14.728 17.6677C14.728 18.0823 14.5672 18.4715 14.2753 18.7634L14.2161 18.8227C13.628 19.4107 12.6084 19.4107 12.0203 18.8227L11.1995 18.0019C10.5945 17.3969 10.5945 16.4111 11.1995 15.8061L11.2587 15.7469C11.5803 15.4253 12.0034 15.2773 12.4222 15.2984C12.4294 15.2984 12.4362 15.3005 12.4434 15.3005C12.5754 15.3416 12.7158 15.3703 12.8669 15.3868C12.8766 15.3907 12.8863 15.3919 12.8961 15.3957H12.9003C13.1034 15.4677 13.2937 15.5861 13.4545 15.7469L14.2753 16.5677Z" fill="#A68FF1"/>
<path d="M22.6946 13.75C24.408 13.75 25.8042 12.3538 25.8042 10.6404C25.8042 8.92692 24.408 7.53076 22.6946 7.53076C20.9811 7.53076 19.585 8.92692 19.585 10.6404C19.585 12.3538 20.9811 13.75 22.6946 13.75ZM21.4296 10.2088H22.2715V9.36692C22.2715 9.13422 22.4619 8.94384 22.6946 8.94384C22.9273 8.94384 23.1177 9.13422 23.1177 9.36692V10.2088H23.9596C24.1923 10.2088 24.3827 10.3992 24.3827 10.6319C24.3827 10.8688 24.1923 11.055 23.9596 11.055H23.1177V11.8969C23.1177 12.1338 22.9273 12.32 22.6946 12.32C22.4619 12.32 22.2715 12.1338 22.2715 11.8969V11.055H21.4296C21.1969 11.055 21.0065 10.8688 21.0065 10.6319C21.0065 10.3992 21.1969 10.2088 21.4296 10.2088Z" fill="#A68FF1"/>
</svg>
