<svg width="44" height="44" viewBox="0 0 44 44" fill="none" xmlns="http://www.w3.org/2000/svg">
<path d="M38.9648 37.0713H36.5008V19.019H37.4307C37.6643 19.019 37.8538 18.8295 37.8538 18.5959V15.3124C37.8538 15.1043 37.7024 14.927 37.4972 14.8944L30.5959 13.8003V9.8285H31.4269C31.6604 9.8285 31.8499 9.63896 31.8499 9.40542V6.50523C31.8499 6.27169 31.6604 6.08215 31.4269 6.08215H12.5729C12.3393 6.08215 12.1498 6.27169 12.1498 6.50523V9.40542C12.1498 9.63896 12.3393 9.8285 12.5729 9.8285H13.4038V13.8003L6.50255 14.8944C6.29735 14.927 6.14589 15.1043 6.14589 15.3124V18.5959C6.14589 18.8295 6.33543 19.019 6.56897 19.019H7.49889V37.0713H5.03489C4.80135 37.0713 4.61182 37.2604 4.61182 37.4943C4.61182 37.7283 4.80135 37.9174 5.03489 37.9174H38.9648C39.1984 37.9174 39.3879 37.7283 39.3879 37.4943C39.3879 37.2604 39.1984 37.0713 38.9648 37.0713ZM13.4038 37.0713H8.34505V19.019H13.4038V37.0713ZM13.4038 18.1728H6.99205V15.6737L13.4038 14.6575V18.1728ZM21.5768 35.2271H18.1799V27.5867H21.5768V35.2271ZM25.8198 35.2271H22.4229V27.5867H25.8198V35.2271ZM29.7498 14.1621V37.0713H28.1006V35.6502C28.1006 35.4162 27.9111 35.2271 27.6775 35.2271H26.6664V27.1637C26.6664 26.9297 26.4769 26.7406 26.2433 26.7406H17.7568C17.5233 26.7406 17.3337 26.9297 17.3337 27.1637V35.2271H16.3226C16.089 35.2271 15.8995 35.4162 15.8995 35.6502V37.0713H14.2504V9.82892H29.7502L29.7498 14.1621ZM30.5959 14.6575L37.0077 15.6737V18.1728H30.5959V14.6575ZM35.6547 37.0713H30.5959V19.019H35.6547V37.0713Z" fill="#A68FF1"/>
<path d="M22 20.7985C24.437 20.7985 26.4195 18.8159 26.4195 16.379C26.4195 13.9421 24.437 11.9595 22 11.9595C19.5631 11.9595 17.5806 13.9421 17.5806 16.379C17.5806 18.8159 19.5631 20.7985 22 20.7985ZM22 12.8057C23.9703 12.8057 25.5733 14.4087 25.5733 16.379C25.5733 18.3493 23.9703 19.9523 22 19.9523C20.0298 19.9523 18.4267 18.3493 18.4267 16.379C18.4267 14.4087 20.0298 12.8057 22 12.8057Z" fill="#A68FF1"/>
<path d="M20.3684 16.8021H21.5767V18.0104C21.5767 18.2439 21.7662 18.4334 21.9998 18.4334C22.2333 18.4334 22.4229 18.2439 22.4229 18.0104V16.8021H23.6312C23.8647 16.8021 24.0542 16.6125 24.0542 16.379C24.0542 16.1454 23.8647 15.9559 23.6312 15.9559H22.4229V14.7476C22.4229 14.5141 22.2333 14.3245 21.9998 14.3245C21.7662 14.3245 21.5767 14.5141 21.5767 14.7476V15.9559H20.3684C20.1349 15.9559 19.9453 16.1454 19.9453 16.379C19.9453 16.6125 20.1349 16.8021 20.3684 16.8021Z" fill="#A68FF1"/>
<path d="M11.8387 20.9262H9.81982V24.4762H11.8387V20.9262Z" fill="#A68FF1"/>
<path d="M11.8387 26.2701H9.81982V29.8202H11.8387V26.2701Z" fill="#A68FF1"/>
<path d="M11.8387 31.8822H9.81982V35.4322H11.8387V31.8822Z" fill="#A68FF1"/>
<path d="M34.0883 20.9262H32.0693V24.4762H34.0883V20.9262Z" fill="#A68FF1"/>
<path d="M34.0883 26.2701H32.0693V29.8202H34.0883V26.2701Z" fill="#A68FF1"/>
<path d="M34.0883 31.8822H32.0693V35.4322H34.0883V31.8822Z" fill="#A68FF1"/>
</svg>
