<svg width="20" height="20" viewBox="0 0 20 20" fill="none" xmlns="http://www.w3.org/2000/svg">
<path fill-rule="evenodd" clip-rule="evenodd" d="M9.16667 0.208252C4.67936 0.208252 1.04167 3.84594 1.04167 8.33325C1.04167 12.8206 4.67936 16.4583 9.16667 16.4583C13.654 16.4583 17.2917 12.8206 17.2917 8.33325C17.2917 3.84594 13.654 0.208252 9.16667 0.208252ZM2.29167 8.33325C2.29167 4.53629 5.36971 1.45825 9.16667 1.45825C12.9636 1.45825 16.0417 4.53629 16.0417 8.33325C16.0417 12.1302 12.9636 15.2083 9.16667 15.2083C5.36971 15.2083 2.29167 12.1302 2.29167 8.33325Z" fill="#1C4650"/>
<path d="M16.2753 14.5581C16.0313 14.314 15.6355 14.314 15.3915 14.558C15.1474 14.8021 15.1474 15.1979 15.3914 15.4419L18.7247 18.7752C18.9688 19.0193 19.3645 19.0193 19.6086 18.7752C19.8527 18.5312 19.8527 18.1354 19.6086 17.8913L16.2753 14.5581Z" fill="#1C4650"/>
</svg>
