<svg width="49" height="48" viewBox="0 0 49 48" fill="none" xmlns="http://www.w3.org/2000/svg">
<g clip-path="url(#clip0_1746_12799)">
<path d="M9.5625 30.2975C9.58 28.575 10.265 26.9625 11.49 25.755C12.715 24.5475 14.3425 23.8825 16.0725 23.8825H19.5C21.78 23.8825 23.945 23.005 25.6025 21.4125C27.245 19.8325 28.215 17.715 28.3325 15.4525C28.3425 15.245 28.2675 15.04 28.125 14.89C27.9825 14.74 27.7825 14.6525 27.5725 14.6525H26.535C22.75 14.6525 19.6725 11.59 19.6725 7.82504V0.862539C19.6725 0.442539 19.3325 0.102539 18.9125 0.102539C18.4925 0.102539 18.1525 0.442539 18.1525 0.862539V7.82754C18.1525 12.43 21.9125 16.175 26.5375 16.175H26.73C26.475 17.745 25.7175 19.195 24.55 20.3175C23.18 21.635 21.3875 22.3625 19.5025 22.3625H16.075C13.945 22.3625 11.9375 23.1825 10.425 24.6725C9.075 26.0025 8.2575 27.7325 8.08 29.5975C3.4975 30.22 0 34.1525 0 38.8325V46.4975C0 46.9175 0.34 47.2575 0.76 47.2575C1.18 47.2575 1.52 46.9175 1.52 46.4975V38.8325C1.52 34.725 4.74 31.3075 8.8475 31.05C9.245 31.025 9.555 30.6975 9.56 30.3L9.5625 30.2975Z" fill="#A68FF1"/>
<path d="M44.44 25.9975C44.8275 24.4775 45.0275 22.905 45.0275 21.32V15.7675C45.0275 13.4225 44.11 11.2275 42.445 9.585C40.7875 7.95 38.58 7.0475 36.23 7.0475H35.7375C32.9725 7.0475 30.5575 8.2625 29.045 10.395H27.945C26.0125 10.395 24.4425 8.825 24.4425 6.8925V0.76C24.4425 0.34 24.1025 0 23.6825 0C23.2625 0 22.9225 0.34 22.9225 0.76V6.8925C22.9225 9.6625 25.1775 11.915 27.9475 11.915H29.455C29.715 11.915 29.9575 11.7825 30.0975 11.5625C31.3025 9.66 33.36 8.57 35.7425 8.57H36.235C38.1825 8.57 40.01 9.315 41.3825 10.6675C42.7575 12.0225 43.5125 13.835 43.5125 15.7675V21.32C43.5125 22.555 43.38 23.785 43.1225 24.9825C41.2025 23.7125 38.9025 22.9675 36.4325 22.9675C29.7275 22.9675 24.275 28.4225 24.275 35.125C24.275 36.3675 24.4625 37.565 24.81 38.6925C24.79 38.6925 24.7725 38.6875 24.7525 38.6875H16.38C13.8775 38.6875 11.595 37.3 10.4275 35.0675C10.275 34.775 9.95253 34.615 9.62753 34.67C6.63753 35.1675 4.46753 37.7275 4.46753 40.755V46.4975C4.46753 46.9175 4.80753 47.2575 5.22753 47.2575C5.64753 47.2575 5.98753 46.9175 5.98753 46.4975V40.755C5.98753 38.65 7.38003 36.845 9.36753 36.285C10.8675 38.72 13.5 40.21 16.3775 40.21H24.75C24.96 40.21 25.1525 40.125 25.29 39.985C27.17 44.2775 31.455 47.285 36.4325 47.285C43.1375 47.285 48.59 41.83 48.59 35.1275C48.59 31.4925 46.985 28.2275 44.4475 25.9975H44.44ZM36.425 45.765C30.56 45.765 25.7875 40.9925 25.7875 35.1275C25.7875 29.2625 30.56 24.49 36.425 24.49C42.29 24.49 47.0625 29.2625 47.0625 35.1275C47.0625 40.9925 42.29 45.765 36.425 45.765Z" fill="#A68FF1"/>
<path d="M31.425 32.5524C32.5775 32.5524 33.5125 31.6149 33.5125 30.4649C33.5125 29.3149 32.575 28.3774 31.425 28.3774C30.275 28.3774 29.3375 29.3149 29.3375 30.4649C29.3375 31.6149 30.275 32.5524 31.425 32.5524ZM31.425 29.8974C31.7375 29.8974 31.9925 30.1524 31.9925 30.4649C31.9925 30.7774 31.7375 31.0324 31.425 31.0324C31.1125 31.0324 30.8575 30.7774 30.8575 30.4649C30.8575 30.1524 31.1125 29.8974 31.425 29.8974Z" fill="#A68FF1"/>
<path d="M36.3325 32.5524C37.485 32.5524 38.42 31.6149 38.42 30.4649C38.42 29.3149 37.4825 28.3774 36.3325 28.3774C35.1825 28.3774 34.245 29.3149 34.245 30.4649C34.245 31.6149 35.1825 32.5524 36.3325 32.5524ZM36.3325 29.8974C36.645 29.8974 36.9 30.1524 36.9 30.4649C36.9 30.7774 36.645 31.0324 36.3325 31.0324C36.02 31.0324 35.765 30.7774 35.765 30.4649C35.765 30.1524 36.02 29.8974 36.3325 29.8974Z" fill="#A68FF1"/>
<path d="M41.2401 32.5524C42.3926 32.5524 43.3276 31.6149 43.3276 30.4649C43.3276 29.3149 42.3901 28.3774 41.2401 28.3774C40.0901 28.3774 39.1526 29.3149 39.1526 30.4649C39.1526 31.6149 40.0901 32.5524 41.2401 32.5524ZM41.2401 29.8974C41.5526 29.8974 41.8076 30.1524 41.8076 30.4649C41.8076 30.7774 41.5526 31.0324 41.2401 31.0324C40.9276 31.0324 40.6726 30.7774 40.6726 30.4649C40.6726 30.1524 40.9276 29.8974 41.2401 29.8974Z" fill="#A68FF1"/>
<path d="M31.425 37.48C30.2725 37.48 29.3375 38.4175 29.3375 39.5675C29.3375 40.7175 30.275 41.655 31.425 41.655C32.575 41.655 33.5125 40.7175 33.5125 39.5675C33.5125 38.4175 32.575 37.48 31.425 37.48ZM31.425 40.135C31.1125 40.135 30.8575 39.88 30.8575 39.5675C30.8575 39.255 31.1125 39 31.425 39C31.7375 39 31.9925 39.255 31.9925 39.5675C31.9925 39.88 31.7375 40.135 31.425 40.135Z" fill="#A68FF1"/>
<path d="M36.3325 37.48C35.18 37.48 34.245 38.4175 34.245 39.5675C34.245 40.7175 35.1825 41.655 36.3325 41.655C37.4825 41.655 38.42 40.7175 38.42 39.5675C38.42 38.4175 37.4825 37.48 36.3325 37.48ZM36.3325 40.135C36.02 40.135 35.765 39.88 35.765 39.5675C35.765 39.255 36.02 39 36.3325 39C36.645 39 36.9 39.255 36.9 39.5675C36.9 39.88 36.645 40.135 36.3325 40.135Z" fill="#A68FF1"/>
<path d="M41.2401 37.48C40.0876 37.48 39.1526 38.4175 39.1526 39.5675C39.1526 40.7175 40.0901 41.655 41.2401 41.655C42.3901 41.655 43.3276 40.7175 43.3276 39.5675C43.3276 38.4175 42.3901 37.48 41.2401 37.48ZM41.2401 40.135C40.9276 40.135 40.6726 39.88 40.6726 39.5675C40.6726 39.255 40.9276 39 41.2401 39C41.5526 39 41.8076 39.255 41.8076 39.5675C41.8076 39.88 41.5526 40.135 41.2401 40.135Z" fill="#A68FF1"/>
<path d="M31.0151 34.9153C31.0151 33.7628 30.0776 32.8278 28.9276 32.8278C27.7776 32.8278 26.8401 33.7653 26.8401 34.9153C26.8401 36.0653 27.7776 37.0028 28.9276 37.0028C30.0776 37.0028 31.0151 36.0653 31.0151 34.9153ZM28.9276 35.4828C28.6151 35.4828 28.3601 35.2278 28.3601 34.9153C28.3601 34.6028 28.6151 34.3478 28.9276 34.3478C29.2401 34.3478 29.4951 34.6028 29.4951 34.9153C29.4951 35.2278 29.2401 35.4828 28.9276 35.4828Z" fill="#A68FF1"/>
<path d="M35.925 34.9153C35.925 33.7628 34.9875 32.8278 33.8375 32.8278C32.6875 32.8278 31.75 33.7653 31.75 34.9153C31.75 36.0653 32.6875 37.0028 33.8375 37.0028C34.9875 37.0028 35.925 36.0653 35.925 34.9153ZM33.8375 35.4828C33.525 35.4828 33.27 35.2278 33.27 34.9153C33.27 34.6028 33.525 34.3478 33.8375 34.3478C34.15 34.3478 34.405 34.6028 34.405 34.9153C34.405 35.2278 34.15 35.4828 33.8375 35.4828Z" fill="#A68FF1"/>
<path d="M43.7274 32.8278C42.5749 32.8278 41.6399 33.7653 41.6399 34.9153C41.6399 36.0653 42.5774 37.0028 43.7274 37.0028C44.8774 37.0028 45.8149 36.0653 45.8149 34.9153C45.8149 33.7653 44.8774 32.8278 43.7274 32.8278ZM43.7274 35.4828C43.4149 35.4828 43.1599 35.2278 43.1599 34.9153C43.1599 34.6028 43.4149 34.3478 43.7274 34.3478C44.0399 34.3478 44.2949 34.6028 44.2949 34.9153C44.2949 35.2278 44.0399 35.4828 43.7274 35.4828Z" fill="#A68FF1"/>
<path d="M40.8325 34.9153C40.8325 33.7628 39.895 32.8278 38.745 32.8278C37.595 32.8278 36.6575 33.7653 36.6575 34.9153C36.6575 36.0653 37.595 37.0028 38.745 37.0028C39.895 37.0028 40.8325 36.0653 40.8325 34.9153ZM38.745 35.4828C38.4325 35.4828 38.1775 35.2278 38.1775 34.9153C38.1775 34.6028 38.4325 34.3478 38.745 34.3478C39.0575 34.3478 39.3125 34.6028 39.3125 34.9153C39.3125 35.2278 39.0575 35.4828 38.745 35.4828Z" fill="#A68FF1"/>
</g>
<defs>
<clipPath id="clip0_1746_12799">
<rect width="48.5825" height="47.285" fill="white"/>
</clipPath>
</defs>
</svg>
