<svg width="39" height="52" viewBox="0 0 39 52" fill="none" xmlns="http://www.w3.org/2000/svg">
<g clip-path="url(#clip0_1746_12820)">
<path d="M2.13751 10.005C0.992506 10.005 0.0550059 10.885 5.92275e-06 12.005C-0.0274941 12.585 0.177506 13.135 0.577506 13.555C0.972506 13.9675 1.52501 14.205 2.09751 14.205H3.06501V14.3975C3.06501 15.5425 3.99751 16.475 5.14251 16.475H17.195C17.62 16.475 17.965 16.13 17.965 15.705C17.965 15.28 17.62 14.935 17.195 14.935H5.14501C4.85001 14.935 4.60751 14.695 4.60751 14.3975V14.205H19.1C20.91 14.205 22.3825 12.7325 22.3825 10.9225V8.74C22.3825 8.4725 22.595 8.2525 22.8625 8.2425L25.8025 8.415C25.8175 8.415 25.8325 8.415 25.8475 8.415C26.085 8.415 26.2775 8.6075 26.2775 8.845C26.2775 10.0175 27.2325 10.9725 28.405 10.9725C29.5775 10.9725 30.5325 10.0175 30.5325 8.845V5.055C30.5325 3.5575 29.3125 2.3375 27.815 2.3375C27.1725 2.3375 26.55 2.565 26.06 2.98L25.5275 3.43V1.3875C25.5275 0.9625 25.1825 0.6175 24.7575 0.6175C24.3325 0.6175 23.9875 0.9625 23.9875 1.3875V4.1475C23.515 4.2725 23.045 4.3725 22.885 4.38C22.61 4.38 22.3875 4.1575 22.3875 3.8825V3.2825C22.3875 1.4725 20.915 0 19.105 0H2.13751C0.992506 0 0.0550059 0.8775 5.92275e-06 2C-0.0274941 2.58 0.177506 3.13 0.577506 3.55C0.972506 3.9625 1.52501 4.2 2.09751 4.2H3.06501V10.0025H2.13501L2.13751 10.005ZM2.10001 2.66C1.94501 2.66 1.80251 2.5975 1.69501 2.4875C1.58751 2.375 1.53251 2.2275 1.54001 2.0725C1.55501 1.78 1.82251 1.54 2.13751 1.54H19.1025C20.0625 1.54 20.845 2.3225 20.845 3.2825V3.8825C20.845 5.005 21.76 5.92 22.8825 5.92C23.145 5.92 24.035 5.7475 24.835 5.5075C24.9425 5.4975 25.0425 5.465 25.1325 5.415C25.5575 5.2725 25.925 5.115 26.11 4.96L27.055 4.16C27.2675 3.98 27.5375 3.8825 27.815 3.8825C28.4625 3.8825 28.9925 4.41 28.9925 5.06V8.85C28.9925 9.1725 28.73 9.435 28.4075 9.435C28.085 9.435 27.8225 9.1725 27.8225 8.85C27.8225 7.7725 26.9525 6.895 25.8775 6.88L22.93 6.7075C22.915 6.7075 22.9 6.7075 22.885 6.7075C21.7625 6.7075 20.8475 7.6225 20.8475 8.745V10.9275C20.8475 11.8875 20.065 12.67 19.105 12.67H2.10001C1.94501 12.67 1.80251 12.6075 1.69501 12.4975C1.58751 12.385 1.53251 12.2375 1.54001 12.0825C1.55501 11.79 1.82251 11.55 2.13751 11.55H6.18001C6.60501 11.55 6.95001 11.205 6.95001 10.78C6.95001 10.355 6.60501 10.01 6.18001 10.01H4.61001V4.2025H6.18001C6.60501 4.2025 6.95001 3.8575 6.95001 3.4325C6.95001 3.0075 6.60501 2.6625 6.18001 2.6625H2.10001V2.66Z" fill="#A68FF1"/>
<path d="M31.8525 36.6325C31.62 35.505 30.6675 34.71 29.575 34.6175C29.9625 33.82 30.1675 32.94 30.1675 32.01C30.1675 30.575 29.665 29.2125 28.7975 28.1275C29.7525 27.935 30.4725 27.09 30.4725 26.08V22.395C30.4725 20.9275 29.2775 19.7325 27.81 19.7325C27.18 19.7325 26.57 19.9575 26.09 20.3625L25.525 20.84V10.0875C25.525 9.6625 25.18 9.3175 24.755 9.3175C24.33 9.3175 23.985 9.6625 23.985 10.0875V21.4775C23.51 21.585 23.0475 21.6725 22.8825 21.6775C22.6075 21.6775 22.385 21.455 22.385 21.18V20.58C22.385 18.77 20.9125 17.2975 19.1025 17.2975H2.13751C0.992506 17.2975 0.0550059 18.175 5.92275e-06 19.2975C-0.0274941 19.8775 0.177506 20.4275 0.577506 20.8475C0.972506 21.26 1.52501 21.4975 2.09751 21.4975H3.06501V27.3H2.13501C0.992506 27.3025 0.0550059 28.18 5.92275e-06 29.3025C-0.0274941 29.8825 0.177506 30.4325 0.577506 30.8525C0.972506 31.265 1.52501 31.5025 2.09751 31.5025H3.33251C3.33001 31.6175 3.32751 31.7375 3.32751 31.8725C3.33251 32.8225 3.74251 33.7275 4.45501 34.355C5.06751 34.895 5.85501 35.19 6.66251 35.19C6.79501 35.19 6.92501 35.1825 7.05751 35.1675L12.4625 34.52C12.885 34.47 13.1875 34.085 13.135 33.6625C13.085 33.24 12.7025 32.9375 12.2775 32.99L6.87251 33.6375C6.35751 33.7 5.86001 33.545 5.47251 33.2C5.08501 32.8575 4.87001 32.3825 4.86751 31.865C4.86751 31.73 4.86751 31.6125 4.87251 31.5025H19.8375C20.95 31.5025 22.0975 31.1875 23.1525 30.5925C23.3925 30.4575 23.6675 30.385 23.9475 30.385C24.4 30.385 24.8225 30.5675 25.1325 30.8975C25.4425 31.2275 25.5975 31.66 25.5675 32.1175C25.5175 32.91 24.8825 33.5575 24.0925 33.6275C23.9225 33.6425 23.755 33.6325 23.5925 33.595C22.68 33.3925 21.7275 33.3975 20.7575 33.6075L17.7025 34.2675L2.82501 37.35C1.70251 37.5825 0.962506 38.6325 1.14001 39.7425C1.23001 40.3175 1.54251 40.815 2.02001 41.1425C2.49001 41.4675 3.08001 41.5875 3.64001 41.4725L4.58751 41.275L5.76501 46.9575L4.85501 47.145C3.73251 47.3775 2.99251 48.4275 3.17001 49.5375C3.26001 50.1125 3.57251 50.61 4.05001 50.9375C4.40251 51.1825 4.82251 51.31 5.24751 51.31C5.39001 51.31 5.53001 51.295 5.67001 51.2675L22.3175 47.82C23.1775 47.6425 23.915 47.14 24.395 46.4075C24.8775 45.675 25.045 44.7975 24.865 43.9375L24.4225 41.8C24.395 41.67 24.4225 41.5375 24.4925 41.4275C24.565 41.3175 24.675 41.2425 24.8025 41.215L28.23 40.5725C28.23 40.5725 28.24 40.5725 28.245 40.57C28.3575 40.5475 28.445 40.59 28.485 40.615C28.5275 40.6425 28.6 40.705 28.6225 40.8175C28.73 41.3425 29.0375 41.7925 29.485 42.085C29.9325 42.3775 30.4675 42.48 30.99 42.3725C32.0725 42.1475 32.77 41.0875 32.545 40.005L31.845 36.6325H31.8525ZM17.9975 29.9625H2.10001C1.94501 29.9625 1.80251 29.9 1.69501 29.7875C1.58751 29.675 1.53251 29.5275 1.54001 29.3725C1.55501 29.08 1.82251 28.84 2.13751 28.84H6.18001C6.60501 28.84 6.95001 28.495 6.95001 28.07C6.95001 27.645 6.60501 27.3 6.18001 27.3H4.61001V21.4975H6.18001C6.60501 21.4975 6.95001 21.1525 6.95001 20.7275C6.95001 20.3025 6.60501 19.9575 6.18001 19.9575H2.10001C1.94501 19.9575 1.80251 19.895 1.69501 19.785C1.58751 19.6725 1.53251 19.525 1.54001 19.37C1.55501 19.0775 1.82251 18.8375 2.13751 18.8375H19.1025C20.0625 18.8375 20.845 19.62 20.845 20.58V21.18C20.845 22.3025 21.76 23.2175 22.8825 23.2175C23.2275 23.2175 25.5725 22.8225 26.1675 22.32L27.0875 21.5425C27.29 21.3725 27.5475 21.2775 27.8125 21.2775C28.43 21.2775 28.935 21.78 28.935 22.4V26.085C28.935 26.3875 28.69 26.6325 28.3875 26.6325C28.085 26.6325 27.84 26.3875 27.84 26.085C27.84 25.025 26.9825 24.16 25.925 24.15L22.9225 24.005C22.9225 24.005 22.8975 24.005 22.885 24.005C21.7625 24.005 20.8475 24.92 20.8475 26.0425V28.225C20.8475 29.185 20.065 29.9675 19.105 29.9675H18.0025L17.9975 29.9625ZM24.23 35.1625C25.7725 35.03 27.01 33.7625 27.11 32.2175C27.1675 31.3325 26.865 30.49 26.26 29.845C25.665 29.21 24.8225 28.845 23.9525 28.845C23.41 28.845 22.8725 28.985 22.4 29.25C22.325 29.2925 22.2475 29.33 22.1725 29.37C22.3075 29.01 22.385 28.625 22.385 28.2175V26.035C22.385 25.765 22.6 25.545 22.8675 25.5375L25.8625 25.6825C25.8625 25.6825 25.8875 25.6825 25.9 25.6825C26.1175 25.6825 26.295 25.86 26.295 26.0775C26.295 26.1525 26.3 26.2275 26.3075 26.3C25.995 26.275 25.6875 26.44 25.5475 26.74C25.3675 27.125 25.535 27.585 25.92 27.7625C27.5625 28.5275 28.625 30.1925 28.625 32.005C28.625 33.46 27.95 34.7625 26.7225 35.6675C26.34 35.95 26.05 36.34 25.875 36.79C25.1725 37.0675 24.2775 37.3725 24.0275 37.4275C23.76 37.4825 23.495 37.31 23.44 37.0425L23.3175 36.455C23.205 35.91 22.96 35.415 22.6125 35.0025C22.8325 35.02 23.05 35.05 23.2625 35.0975C23.5775 35.1675 23.9025 35.1875 24.2275 35.16L24.23 35.1625ZM30.6825 40.865C30.5625 40.89 30.4375 40.865 30.335 40.7975C30.2325 40.73 30.16 40.625 30.135 40.505C30.035 40.0175 29.75 39.6 29.335 39.3275C28.9225 39.055 28.4275 38.96 27.945 39.06L24.515 39.7025C24.515 39.7025 24.505 39.7025 24.5 39.705C23.9675 39.815 23.51 40.1275 23.21 40.5825C22.91 41.0375 22.8075 41.5825 22.9175 42.115L23.36 44.2525C23.455 44.7075 23.365 45.175 23.11 45.5625C22.855 45.9525 22.4625 46.2175 22.0075 46.3125L5.36001 49.76C5.20751 49.79 5.05501 49.76 4.92751 49.6725C4.80001 49.585 4.71751 49.4525 4.69251 49.2975C4.64751 49.0075 4.86001 48.72 5.17001 48.655L6.83501 48.31L9.33001 47.7925C9.74751 47.705 10.015 47.2975 9.92751 46.8825C9.84001 46.465 9.43251 46.1975 9.01751 46.285L7.27751 46.645L6.10001 40.9625L8.08251 40.5525C8.50001 40.4675 8.76751 40.0575 8.68001 39.6425C8.59251 39.225 8.18501 38.9575 7.77001 39.045L5.03251 39.6125L3.33001 39.965C3.17751 39.995 3.02501 39.965 2.89751 39.8775C2.77001 39.79 2.68751 39.6575 2.66251 39.5025C2.61751 39.2125 2.83001 38.925 3.14001 38.86L18.0325 35.775L19.7525 35.4175C20.2075 35.3225 20.6725 35.4125 21.0625 35.6675C21.4525 35.9225 21.7175 36.315 21.8125 36.77L21.935 37.3575C22.045 37.89 22.3575 38.3475 22.8125 38.6475C23.2675 38.9475 23.8125 39.05 24.345 38.94C24.3725 38.935 27.3675 38.0825 27.8875 37.42L28.5825 36.535C28.7275 36.35 28.935 36.22 29.1675 36.1725C29.7075 36.06 30.2375 36.41 30.35 36.9475L31.05 40.32C31.1025 40.57 30.94 40.815 30.69 40.8675L30.6825 40.865Z" fill="#A68FF1"/>
<path d="M27.975 42.2399C27.93 41.8174 27.55 41.5099 27.13 41.5549C26.7075 41.5999 26.4 41.9774 26.4425 42.3999C26.4525 42.5049 26.7325 45.0249 28.705 49.0424C28.84 49.3149 29.1125 49.4724 29.3975 49.4724C29.5125 49.4724 29.6275 49.4474 29.7375 49.3924C30.12 49.2049 30.2775 48.7424 30.09 48.3624C28.26 44.6349 27.98 42.2824 27.975 42.2374V42.2399Z" fill="#A68FF1"/>
<path d="M31.9825 27.4924C32.1225 27.5974 32.285 27.6499 32.4475 27.6499C32.68 27.6499 32.91 27.5449 33.0625 27.3449L35.46 24.1924C35.7175 23.8549 35.6525 23.3699 35.3125 23.1124C34.975 22.8549 34.49 22.9199 34.2325 23.2599L31.835 26.4124C31.5775 26.7499 31.6425 27.2349 31.9825 27.4924Z" fill="#A68FF1"/>
<path d="M36.0675 34.85L32.915 32.4525C32.5775 32.195 32.0925 32.26 31.835 32.6C31.5775 32.9375 31.6425 33.4225 31.9825 33.68L35.135 36.0775C35.275 36.1825 35.4375 36.235 35.6 36.235C35.8325 36.235 36.0625 36.13 36.2125 35.93C36.47 35.5925 36.405 35.1075 36.065 34.85H36.0675Z" fill="#A68FF1"/>
<path d="M37.2899 29.2448H34.0574C33.6324 29.2448 33.2874 29.5897 33.2874 30.0147C33.2874 30.4397 33.6324 30.7847 34.0574 30.7847H37.2899C37.7149 30.7847 38.0599 30.4397 38.0599 30.0147C38.0599 29.5897 37.7149 29.2448 37.2899 29.2448Z" fill="#A68FF1"/>
</g>
<defs>
<clipPath id="clip0_1746_12820">
<rect width="38.06" height="51.3125" fill="white"/>
</clipPath>
</defs>
</svg>
