<svg width="51" height="51" viewBox="0 0 51 51" fill="none" xmlns="http://www.w3.org/2000/svg">
<g clip-path="url(#clip0_1746_12858)">
<path d="M21.6 27.595C21.6 27.17 21.255 26.825 20.83 26.825C20.405 26.825 20.06 27.17 20.06 27.595V36.4625C20.06 40.2225 17.8275 43.61 14.375 45.095L5.69253 48.83C4.81253 49.2075 3.84253 49.1375 3.02753 48.635C2.21253 48.1325 1.71253 47.2975 1.65503 46.3425C1.10003 37.12 2.56253 29.465 6.00253 23.59C9.01753 18.4425 13.02 15.65 15.8475 14.21C16.7525 13.75 17.81 13.7925 18.675 14.3225C19.54 14.8525 20.0575 15.7775 20.0575 16.7925V20.2525C17.2 22.3975 13.5275 26.2075 13.285 31.7425C13.2675 32.1675 13.595 32.5275 14.02 32.545C14.0325 32.545 14.0425 32.545 14.055 32.545C14.465 32.545 14.805 32.2225 14.8225 31.81C15.1025 25.4025 20.66 21.5 23.035 20.12C24.055 19.5275 24.69 18.4225 24.69 17.24V0.77C24.69 0.345 24.345 0 23.92 0C23.495 0 23.15 0.345 23.15 0.77V17.245C23.15 17.88 22.81 18.475 22.26 18.7925C22.0575 18.91 21.835 19.045 21.595 19.195V16.795C21.595 15.24 20.8025 13.825 19.4775 13.0125C18.1525 12.2 16.5325 12.135 15.1475 12.84C12.135 14.3725 7.87503 17.345 4.67003 22.8125C1.07503 28.955 -0.457469 36.9025 0.11753 46.435C0.20503 47.8975 0.972531 49.1775 2.22003 49.9475C2.93753 50.39 3.73503 50.6125 4.54003 50.6125C5.13253 50.6125 5.73003 50.49 6.30253 50.245L14.985 46.51C19.005 44.7825 21.6 40.8375 21.6 36.4625V27.595Z" fill="#A68FF1"/>
<path d="M45.945 22.8125C42.7425 17.345 38.48 14.37 35.4675 12.84C34.0825 12.135 32.4625 12.2 31.1375 13.0125C29.8125 13.825 29.02 15.24 29.02 16.795V18.9675C28.9175 18.905 28.8175 18.845 28.7225 18.7925C28.175 18.475 27.8325 17.88 27.8325 17.245V0.77C27.8325 0.345 27.4875 0 27.0625 0C26.6375 0 26.2925 0.345 26.2925 0.77V17.245C26.2925 18.4275 26.9275 19.53 27.9475 20.125C30.3225 21.505 35.88 25.4075 36.16 31.815C36.1775 32.2275 36.52 32.55 36.9275 32.55C36.94 32.55 36.95 32.55 36.9625 32.55C37.3875 32.5325 37.7175 32.1725 37.6975 31.7475C37.445 25.9725 33.455 22.0725 30.555 19.9875V16.7975C30.555 15.7825 31.0725 14.8575 31.9375 14.3275C32.8025 13.7975 33.86 13.755 34.765 14.215C37.5925 15.6525 41.5975 18.4475 44.6125 23.595C48.0525 29.47 49.5175 37.125 48.96 46.3475C48.9025 47.3025 48.4025 48.1375 47.5875 48.64C46.7725 49.1425 45.8025 49.2125 44.9225 48.835L36.24 45.1C32.7875 43.615 30.555 40.225 30.555 36.4675V27.6C30.555 27.175 30.21 26.83 29.785 26.83C29.36 26.83 29.015 27.175 29.015 27.6V36.4675C29.015 40.8425 31.6125 44.7875 35.63 46.515L44.3125 50.25C44.885 50.495 45.48 50.6175 46.075 50.6175C46.88 50.6175 47.6775 50.3925 48.395 49.9525C49.6425 49.1825 50.41 47.905 50.4975 46.44C51.0725 36.9075 49.54 28.96 45.9425 22.8175L45.945 22.8125Z" fill="#A68FF1"/>
<path d="M33.5375 33.3651C33.5325 33.7901 33.875 34.1376 34.3 34.1426H34.3075C34.73 34.1426 35.0725 33.8026 35.0775 33.3801C35.1425 26.8326 31.01 23.37 28.54 21.89C27.6225 21.34 26.57 21.05 25.4925 21.05C24.415 21.05 23.3625 21.34 22.445 21.89C19.975 23.37 15.8425 26.8326 15.9075 33.3801C15.9125 33.8026 16.255 34.1426 16.6775 34.1426H16.685C17.11 34.1376 17.4525 33.7901 17.4475 33.3651C17.39 27.5851 21.05 24.5225 23.2375 23.2125C23.915 22.805 24.695 22.5926 25.4925 22.5926C26.29 22.5926 27.07 22.8075 27.7475 23.2125C29.935 24.5225 33.595 27.5851 33.5375 33.3651Z" fill="#A68FF1"/>
<path d="M7.18502 41.9775C7.79502 41.9775 8.28752 41.485 8.28752 40.875C8.28752 40.265 7.79502 39.7725 7.18502 39.7725C6.57502 39.7725 6.08252 40.265 6.08252 40.875C6.08252 41.485 6.57502 41.9775 7.18502 41.9775Z" fill="#A68FF1"/>
<path d="M11.85 40.875C11.85 41.485 12.3425 41.9775 12.9525 41.9775C13.5625 41.9775 14.055 41.485 14.055 40.875C14.055 40.265 13.5625 39.7725 12.9525 39.7725C12.3425 39.7725 11.85 40.265 11.85 40.875Z" fill="#A68FF1"/>
<path d="M9.69747 32.7776C9.08747 32.7776 8.59497 33.2701 8.59497 33.8801C8.59497 34.4901 9.08747 34.9826 9.69747 34.9826C10.3075 34.9826 10.8 34.4901 10.8 33.8801C10.8 33.2701 10.3075 32.7776 9.69747 32.7776Z" fill="#A68FF1"/>
<path d="M4.98006 34.485C4.37006 34.485 3.87756 34.9775 3.87756 35.5875C3.87756 36.1975 4.37006 36.69 4.98006 36.69C5.59006 36.69 6.08256 36.1975 6.08256 35.5875C6.08256 34.9775 5.59006 34.485 4.98006 34.485Z" fill="#A68FF1"/>
<path d="M9.69747 25.3502C9.08747 25.3502 8.59497 25.8427 8.59497 26.4527C8.59497 27.0627 9.08747 27.5552 9.69747 27.5552C10.3075 27.5552 10.8 27.0627 10.8 26.4527C10.8 25.8427 10.3075 25.3502 9.69747 25.3502Z" fill="#A68FF1"/>
<path d="M15.1575 20.7175C15.1575 20.1075 14.665 19.615 14.055 19.615C13.445 19.615 12.9525 20.11 12.9525 20.7175C12.9525 21.325 13.445 21.82 14.055 21.82C14.665 21.82 15.1575 21.3275 15.1575 20.7175Z" fill="#A68FF1"/>
<path d="M35.8275 39.7724C35.8275 40.3824 36.32 40.8749 36.93 40.8749C37.54 40.8749 38.0325 40.3824 38.0325 39.7724C38.0325 39.1624 37.54 38.6699 36.93 38.6699C36.32 38.6699 35.8275 39.1624 35.8275 39.7724Z" fill="#A68FF1"/>
<path d="M42.4025 43.6975C42.4025 44.3075 42.895 44.8 43.505 44.8C44.115 44.8 44.6075 44.3075 44.6075 43.6975C44.6075 43.0875 44.115 42.595 43.505 42.595C42.895 42.595 42.4025 43.0875 42.4025 43.6975Z" fill="#A68FF1"/>
<path d="M43.04 34.485C42.43 34.485 41.9375 34.9775 41.9375 35.5875C41.9375 36.1975 42.43 36.69 43.04 36.69C43.65 36.69 44.1425 36.1975 44.1425 35.5875C44.1425 34.9775 43.65 34.485 43.04 34.485Z" fill="#A68FF1"/>
<path d="M42.4023 25.3502C41.7923 25.3502 41.2998 25.8427 41.2998 26.4527C41.2998 27.0627 41.7923 27.5552 42.4023 27.5552C43.0123 27.5552 43.5048 27.0627 43.5048 26.4527C43.5048 25.8427 43.0123 25.3502 42.4023 25.3502Z" fill="#A68FF1"/>
<path d="M39.1375 20.7175C39.1375 20.1075 38.645 19.615 38.035 19.615C37.425 19.615 36.9325 20.11 36.9325 20.7175C36.9325 21.325 37.425 21.82 38.035 21.82C38.645 21.82 39.1375 21.3275 39.1375 20.7175Z" fill="#A68FF1"/>
<path d="M44.6075 11.695C45.2175 11.695 45.71 11.2025 45.71 10.5925C45.71 9.98249 45.2175 9.48999 44.6075 9.48999C43.9975 9.48999 43.505 9.98249 43.505 10.5925C43.505 11.2025 43.9975 11.695 44.6075 11.695Z" fill="#A68FF1"/>
<path d="M37.4849 8.16252C38.0949 8.16252 38.5874 7.67002 38.5874 7.06002C38.5874 6.45002 38.0949 5.95752 37.4849 5.95752C36.8749 5.95752 36.3824 6.45002 36.3824 7.06002C36.3824 7.67002 36.8749 8.16252 37.4849 8.16252Z" fill="#A68FF1"/>
<path d="M45.71 4.26994C46.32 4.26994 46.8125 3.77744 46.8125 3.16744C46.8125 2.55744 46.32 2.06494 45.71 2.06494C45.1 2.06494 44.6075 2.55744 44.6075 3.16744C44.6075 3.77744 45.1 4.26994 45.71 4.26994Z" fill="#A68FF1"/>
<path d="M47.915 18.48C48.525 18.48 49.0175 17.9875 49.0175 17.3775C49.0175 16.7675 48.525 16.275 47.915 16.275C47.305 16.275 46.8125 16.7675 46.8125 17.3775C46.8125 17.9875 47.305 18.48 47.915 18.48Z" fill="#A68FF1"/>
<path d="M15.1576 7.62248C15.7676 7.62248 16.2601 7.12748 16.2601 6.51998C16.2601 5.91248 15.7676 5.41748 15.1576 5.41748C14.5476 5.41748 14.0551 5.90998 14.0551 6.51998C14.0551 7.12998 14.5476 7.62248 15.1576 7.62248Z" fill="#A68FF1"/>
<path d="M7.49251 4.26994C8.10251 4.26994 8.59502 3.77744 8.59502 3.16744C8.59502 2.55744 8.10251 2.06494 7.49251 2.06494C6.88251 2.06494 6.39001 2.55744 6.39001 3.16744C6.39001 3.77744 6.88251 4.26994 7.49251 4.26994Z" fill="#A68FF1"/>
<path d="M7.49251 12.7975C8.10141 12.7975 8.59502 12.3039 8.59502 11.695C8.59502 11.0861 8.10141 10.5925 7.49251 10.5925C6.88362 10.5925 6.39001 11.0861 6.39001 11.695C6.39001 12.3039 6.88362 12.7975 7.49251 12.7975Z" fill="#A68FF1"/>
<path d="M30.8924 46.8125C30.2824 46.8125 29.7899 47.305 29.7899 47.915C29.7899 48.525 30.2824 49.0175 30.8924 49.0175C31.5024 49.0175 31.9949 48.525 31.9949 47.915C31.9949 47.305 31.5024 46.8125 30.8924 46.8125Z" fill="#A68FF1"/>
<path d="M21.4376 46.8125C20.8276 46.8125 20.3351 47.305 20.3351 47.915C20.3351 48.525 20.8276 49.0175 21.4376 49.0175C22.0476 49.0175 22.5401 48.525 22.5401 47.915C22.5401 47.305 22.0476 46.8125 21.4376 46.8125Z" fill="#A68FF1"/>
<path d="M26.34 41.9775C25.73 41.9775 25.2375 42.47 25.2375 43.08C25.2375 43.69 25.73 44.1825 26.34 44.1825C26.95 44.1825 27.4425 43.6875 27.4425 43.08C27.4425 42.4725 26.95 41.9775 26.34 41.9775Z" fill="#A68FF1"/>
<path d="M2.43502 6.51994C3.04502 6.51994 3.53752 6.02744 3.53752 5.41744C3.53752 4.80744 3.04502 4.31494 2.43502 4.31494C1.82502 4.31494 1.33252 4.80744 1.33252 5.41744C1.33252 6.02744 1.82502 6.51994 2.43502 6.51994Z" fill="#A68FF1"/>
<path d="M1.33248 19.5824C1.94248 19.5824 2.43498 19.0899 2.43498 18.4799C2.43498 17.8699 1.94248 17.3774 1.33248 17.3774C0.72248 17.3774 0.22998 17.8699 0.22998 18.4799C0.22998 19.0899 0.72248 19.5824 1.33248 19.5824Z" fill="#A68FF1"/>
</g>
<defs>
<clipPath id="clip0_1746_12858">
<rect width="50.6175" height="50.6125" fill="white"/>
</clipPath>
</defs>
</svg>
