<svg width="44" height="43" viewBox="0 0 44 43" fill="none" xmlns="http://www.w3.org/2000/svg">
<g clip-path="url(#clip0_1746_12834)">
<path d="M21.3825 8.73502C23.5425 8.73502 25.3 6.97752 25.3 4.81752C25.3 2.65752 23.5425 0.900024 21.3825 0.900024C19.2225 0.900024 17.465 2.65752 17.465 4.81752C17.465 6.97752 19.2225 8.73502 21.3825 8.73502ZM21.3825 2.30252C22.77 2.30252 23.8975 3.43002 23.8975 4.81752C23.8975 6.20502 22.77 7.33252 21.3825 7.33252C19.995 7.33252 18.8675 6.20502 18.8675 4.81752C18.8675 3.43002 19.995 2.30252 21.3825 2.30252Z" fill="#A68FF1"/>
<path d="M17.295 14.29L16.9325 18.225C16.8975 18.61 17.18 18.9525 17.5675 18.9875C17.59 18.9875 17.61 18.99 17.6325 18.99C17.99 18.99 18.2975 18.7175 18.33 18.3525L18.69 14.4175C18.725 14.0325 18.4425 13.69 18.055 13.655C17.6675 13.62 17.3275 13.9025 17.2925 14.29H17.295Z" fill="#A68FF1"/>
<path d="M25.3276 13.655C24.9401 13.6775 24.6451 14.0075 24.6676 14.395L24.8901 18.33C24.9101 18.7025 25.2201 18.9925 25.5901 18.9925C25.6026 18.9925 25.6176 18.9925 25.6301 18.9925C26.0176 18.97 26.3126 18.64 26.2901 18.2525L26.0676 14.3175C26.0451 13.93 25.7126 13.6375 25.3276 13.6575V13.655Z" fill="#A68FF1"/>
<path d="M21.685 25.9375C21.2975 25.9375 20.985 26.2525 20.985 26.6375V41.78C20.985 42.1675 21.3 42.48 21.685 42.48C22.07 42.48 22.385 42.165 22.385 41.78V26.6375C22.385 26.25 22.07 25.9375 21.685 25.9375Z" fill="#A68FF1"/>
<path d="M14.7149 18.6925C14.7574 18.7 14.7974 18.7025 14.8374 18.7025C15.1699 18.7025 15.4674 18.4625 15.5274 18.125L16.4349 13.01C16.4349 13.01 16.4349 13 16.4374 12.995C16.6299 11.76 17.5349 10.7575 18.7449 10.445L19.8674 10.1525C20.2424 10.055 20.4674 9.67246 20.3699 9.29746C20.2724 8.92246 19.8899 8.69746 19.5149 8.79496L18.3924 9.08746C16.6424 9.54246 15.3324 10.9875 15.0549 12.7725L14.1474 17.8825C14.0799 18.265 14.3349 18.6275 14.7149 18.695V18.6925Z" fill="#A68FF1"/>
<path d="M23.5576 8.79496C23.1826 8.69746 22.8001 8.92246 22.7026 9.29746C22.6051 9.67246 22.8301 10.055 23.2051 10.1525L24.3276 10.445C25.5376 10.76 26.4426 11.76 26.6351 12.995C26.6351 13 26.6351 13.005 26.6351 13.01L27.5426 18.125C27.6026 18.465 27.8976 18.7025 28.2326 18.7025C28.2726 18.7025 28.3151 18.7 28.3551 18.6925C28.7351 18.625 28.9901 18.26 28.9226 17.88L28.0151 12.77C27.7351 10.985 26.4251 9.53996 24.6776 9.08496L23.5551 8.79246L23.5576 8.79496Z" fill="#A68FF1"/>
<path d="M30.225 14.2C29.8425 14.145 29.4875 14.4125 29.4325 14.795C29.3775 15.1775 29.645 15.5325 30.0275 15.5875C34.88 16.2775 36.0074 17.2875 36.0449 17.515C36.0449 17.5225 35.7524 18.345 32.0374 19.1025C29.2674 19.6675 25.6049 19.98 21.73 19.98C17.855 19.98 14.1925 19.6675 11.4225 19.1025C7.70995 18.345 7.41745 17.5225 7.41495 17.52C7.44995 17.2925 8.55745 16.2975 13.3075 15.605C13.69 15.55 13.955 15.1925 13.9 14.81C13.845 14.4275 13.49 14.1625 13.105 14.2175C11.0925 14.51 9.40745 14.91 8.23245 15.37C7.68245 15.585 6.01245 16.2425 6.01245 17.5175C6.01245 18.7925 7.63245 19.7375 10.9675 20.44C11.78 20.61 12.6675 20.76 13.6125 20.885L12.955 24.5875C12.9525 24.605 12.95 24.62 12.9475 24.6375C12.83 25.7625 13.615 26.7775 14.7325 26.945C14.84 26.96 14.945 26.97 15.05 26.97C15.7 26.97 16.3025 26.6675 16.6975 26.1775L18.1275 41.79C18.16 42.155 18.4675 42.4275 18.825 42.4275C18.8475 42.4275 18.8675 42.4275 18.89 42.425C19.275 42.39 19.56 42.0475 19.525 41.6625L17.8575 23.4675L18.01 21.7975C18.0175 21.7525 18.0225 21.7075 18.0225 21.6625L18.0575 21.2875C19.245 21.35 20.475 21.3825 21.73 21.3825C22.8625 21.3825 23.9775 21.355 25.0575 21.305L25.1775 23.4225L23.75 41.6775C23.7199 42.0625 24.0075 42.4 24.395 42.43C24.4125 42.43 24.4325 42.43 24.45 42.43C24.8125 42.43 25.1199 42.15 25.1474 41.7825L26.3675 26.17C26.7625 26.6625 27.365 26.9675 28.0175 26.9675C28.1225 26.9675 28.2274 26.96 28.3349 26.9425C29.4524 26.7725 30.2375 25.76 30.12 24.635C30.12 24.6175 30.115 24.6025 30.1124 24.585L29.465 20.9325C30.5525 20.7975 31.57 20.63 32.49 20.4375C35.8225 19.735 37.445 18.7775 37.445 17.515C37.445 15.995 35.0149 14.88 30.2225 14.1975L30.225 14.2ZM15.75 25.005C15.6725 25.3725 15.32 25.6175 14.9475 25.56C14.5775 25.505 14.3175 25.175 14.345 24.8025L15.01 21.05C15.5475 21.105 16.0975 21.155 16.66 21.1975L16.625 21.585L15.7575 24.9725C15.7575 24.9725 15.7525 24.9925 15.75 25V25.005ZM28.7325 24.805C28.76 25.175 28.5 25.505 28.13 25.5625C27.7575 25.6175 27.4049 25.375 27.3274 25.0075C27.3274 25.0025 27.3275 24.9975 27.325 24.99L26.5175 21.595C26.5075 21.5525 26.4925 21.5125 26.475 21.475L26.4599 21.225C27.0099 21.1875 27.5475 21.1425 28.0725 21.0925L28.7325 24.805Z" fill="#A68FF1"/>
<path d="M1.075 1.40246H7.0575C7.445 1.40246 7.7575 1.08746 7.7575 0.702456C7.7575 0.317456 7.4425 0.00245619 7.0575 0.00245619H1.075C0.6875 -4.38148e-05 0.375 0.314956 0.375 0.699956C0.375 1.08496 0.69 1.39996 1.075 1.39996V1.40246Z" fill="#A68FF1"/>
<path d="M1.075 4.30002H4.065C4.4525 4.30002 4.765 3.98502 4.765 3.60002C4.765 3.21502 4.45 2.90002 4.065 2.90002H1.075C0.6875 2.90002 0.375 3.21502 0.375 3.60002C0.375 3.98502 0.69 4.30002 1.075 4.30002Z" fill="#A68FF1"/>
<path d="M42.7625 0H36.78C36.3925 0 36.08 0.315 36.08 0.7C36.08 1.085 36.395 1.4 36.78 1.4H42.7625C43.15 1.4 43.4625 1.085 43.4625 0.7C43.4625 0.315 43.1475 0 42.7625 0Z" fill="#A68FF1"/>
<path d="M39.7725 2.89746H36.7825C36.395 2.89746 36.0825 3.21246 36.0825 3.59746C36.0825 3.98246 36.3975 4.29746 36.7825 4.29746H39.7725C40.16 4.29746 40.4725 3.98246 40.4725 3.59746C40.4725 3.21246 40.1575 2.89746 39.7725 2.89746Z" fill="#A68FF1"/>
<path d="M6.6825 33.5549H0.7C0.3125 33.5549 0 33.8699 0 34.2549C0 34.6399 0.315 34.9549 0.7 34.9549H6.6825C7.07 34.9549 7.3825 34.6399 7.3825 34.2549C7.3825 33.8699 7.0675 33.5549 6.6825 33.5549Z" fill="#A68FF1"/>
<path d="M3.6925 36.4523H0.7C0.3125 36.4523 0 36.7673 0 37.1523C0 37.5373 0.315 37.8523 0.7 37.8523H3.6925C4.08 37.8523 4.3925 37.5373 4.3925 37.1523C4.3925 36.7673 4.0775 36.4523 3.6925 36.4523Z" fill="#A68FF1"/>
<path d="M2.52251 5.84253C2.13501 5.84253 1.82251 6.15753 1.82251 6.54253V8.78503C1.82251 8.97003 1.89751 9.15003 2.02751 9.28003L6.65251 13.905C6.79001 14.0425 6.97001 14.11 7.14751 14.11C7.32501 14.11 7.50751 14.0425 7.64251 13.905C7.91751 13.63 7.91751 13.1875 7.64251 12.9125L3.22501 8.49503V6.54253C3.22501 6.15503 2.91001 5.84253 2.52501 5.84253H2.52251Z" fill="#A68FF1"/>
<path d="M37.1075 5.84253C36.72 5.84253 36.4075 6.15753 36.4075 6.54253V8.49503L33.15 11.7525C32.875 12.0275 32.875 12.47 33.15 12.745C33.2875 12.8825 33.4675 12.95 33.645 12.95C33.8225 12.95 34.005 12.8825 34.14 12.745L37.6025 9.28253C37.735 9.15003 37.8075 8.97253 37.8075 8.78753V6.54503C37.8075 6.15753 37.4925 5.84503 37.1075 5.84503V5.84253Z" fill="#A68FF1"/>
<path d="M7.41507 21.7849L1.65507 27.5449C1.52257 27.6774 1.45007 27.8549 1.45007 28.0399V31.3124C1.45007 31.6999 1.76507 32.0124 2.15007 32.0124C2.53507 32.0124 2.85007 31.6974 2.85007 31.3124V28.3324L8.40507 22.7774C8.68007 22.5024 8.68007 22.0599 8.40507 21.7849C8.13007 21.5124 7.68757 21.5124 7.41257 21.7849H7.41507Z" fill="#A68FF1"/>
</g>
<defs>
<clipPath id="clip0_1746_12834">
<rect width="43.465" height="42.4825" fill="white"/>
</clipPath>
</defs>
</svg>
