<svg width="45" height="47" viewBox="0 0 45 47" fill="none" xmlns="http://www.w3.org/2000/svg">
<g clip-path="url(#clip0_1746_12774)">
<path d="M11.39 25.7925C11.025 26.3025 10.635 26.79 10.23 27.2425C9.95004 27.555 9.97504 28.035 10.2875 28.3175C10.4325 28.4475 10.615 28.5125 10.795 28.5125C11.0025 28.5125 11.21 28.4275 11.36 28.26C11.805 27.765 12.23 27.2325 12.6275 26.675C12.8725 26.3325 12.7925 25.8575 12.45 25.615C12.1075 25.3725 11.6325 25.45 11.39 25.7925Z" fill="#A68FF1"/>
<path d="M16.1726 5.3925C16.3026 5.485 16.4576 5.535 16.6151 5.535C16.6976 5.535 16.7801 5.5225 16.8601 5.495L24.5851 2.87C24.9826 2.735 25.1951 2.3025 25.0601 1.905C24.9251 1.5075 24.4926 1.295 24.0951 1.43L17.3751 3.715V1.73C17.3751 1.31 17.0351 0.970001 16.6151 0.970001C16.1951 0.970001 15.8551 1.31 15.8551 1.73V4.7725C15.8551 5.0175 15.9726 5.2475 16.1726 5.39V5.3925Z" fill="#A68FF1"/>
<path d="M12.8276 25.1274C12.9376 25.1824 13.0526 25.2074 13.1676 25.2074C13.4476 25.2074 13.7151 25.0524 13.8476 24.7874L13.9501 24.5849C14.1376 24.2099 13.9851 23.7524 13.6101 23.5649C13.2351 23.3775 12.7776 23.53 12.5901 23.9049L12.4876 24.1075C12.3001 24.4825 12.4526 24.9399 12.8276 25.1274Z" fill="#A68FF1"/>
<path d="M44.6822 20.0749C44.6822 13.015 38.9372 7.26996 31.8772 7.26996C28.8822 7.26996 26.1247 8.30746 23.9422 10.0375C23.1522 9.55246 22.3147 9.12996 21.4547 8.77996C20.8972 8.55496 20.3272 8.37246 19.7497 8.22996L24.8847 6.50996C25.2822 6.37746 25.4972 5.94496 25.3647 5.54746C25.2322 5.14997 24.7997 4.93497 24.4022 5.06747L16.3747 7.75496C16.2947 7.78246 16.2222 7.82496 16.1597 7.87246C14.5847 7.93996 13.0197 8.29496 11.5622 8.94496L11.4947 8.97496V1.72997C11.4947 1.30997 11.1547 0.969971 10.7347 0.969971C10.3147 0.969971 9.97475 1.30997 9.97475 1.72997V9.63996C9.97475 9.63996 9.97475 9.64496 9.97475 9.64746L9.47975 9.86746C9.09475 10.0375 8.92225 10.4875 9.09475 10.8725C9.26475 11.255 9.71475 11.43 10.0997 11.2575L11.1522 10.79C12.3897 11.66 14.6947 13.775 14.6947 17.4349C14.6947 18.8074 14.3022 20.4724 13.5897 22.1174C13.4222 22.5024 13.5997 22.9499 13.9847 23.1174C14.0822 23.1599 14.1847 23.1799 14.2872 23.1799C14.5822 23.1799 14.8622 23.0074 14.9847 22.7199C15.7897 20.8624 16.2147 19.0349 16.2147 17.4349C16.2147 13.735 14.2447 11.37 12.7422 10.1025C15.3522 9.10996 18.2872 9.13496 20.8822 10.19C21.5247 10.45 22.1497 10.7575 22.7522 11.1025C20.4772 13.415 19.0722 16.5825 19.0722 20.0749C19.0722 27.1349 24.8172 32.8799 31.8772 32.8799C32.8497 32.8799 33.7972 32.7674 34.7072 32.5599L35.4197 34.4274C36.3172 36.7749 35.7172 39.4049 33.8897 41.1299C32.3872 42.5499 30.2872 43.1224 28.2697 42.6624L16.8672 40.0624C16.8147 40.0424 16.7572 40.0299 16.6997 40.0249L12.2147 39.0024C9.39975 38.3599 6.94225 36.7024 5.29475 34.3324L3.81475 32.2049C3.77725 32.1524 3.74475 32.0974 3.70975 32.0424C4.49725 32.0024 5.28725 31.8674 6.06725 31.6224C6.46725 31.4974 6.68975 31.0699 6.56475 30.6699C6.43975 30.2699 6.01225 30.0449 5.61225 30.1724C4.79475 30.4299 3.96475 30.5524 3.14225 30.5374C3.04975 30.5349 2.95975 30.5524 2.87725 30.5799C1.80725 28.3299 1.47475 25.7574 1.97725 23.2949L2.67475 19.8724C3.23725 17.1025 3.52225 15.71 6.68225 13.7675C7.03975 13.5475 7.15225 13.08 6.93225 12.72C6.71225 12.3625 6.24475 12.25 5.88475 12.47C5.79225 12.5275 5.69975 12.585 5.61225 12.6425V1.72997C5.61225 1.30997 5.27225 0.969971 4.85225 0.969971C4.43225 0.969971 4.09225 1.30997 4.09225 1.72997V13.7475C2.12475 15.4175 1.69975 17.0424 1.18475 19.5674L0.487255 22.9899C-0.222744 26.4749 0.537255 30.1499 2.56725 33.0699L3.88725 34.9649V46.1474C3.88725 46.5674 4.22725 46.9074 4.64725 46.9074C5.06725 46.9074 5.40725 46.5674 5.40725 46.1474V36.8424C6.69725 38.1699 8.24975 39.2074 9.96975 39.8874V46.1474C9.96975 46.5674 10.3097 46.9074 10.7297 46.9074C11.1497 46.9074 11.4897 46.5674 11.4897 46.1474V40.3824C11.6172 40.4149 11.7472 40.4499 11.8772 40.4799L15.8522 41.3874V46.1474C15.8522 46.5674 16.1922 46.9074 16.6122 46.9074C17.0322 46.9074 17.3722 46.5674 17.3722 46.1474V41.7349L27.9322 44.1424C28.5022 44.2724 29.0797 44.3374 29.6497 44.3374C31.5947 44.3374 33.4847 43.5999 34.9322 42.2349C37.2097 40.0849 37.9572 36.8074 36.8397 33.8824L36.1722 32.1349C41.1247 30.3649 44.6797 25.6274 44.6797 20.0749H44.6822ZM31.8772 31.3599C25.6547 31.3599 20.5922 26.2974 20.5922 20.0749C20.5922 13.8525 25.6547 8.78996 31.8772 8.78996C38.0997 8.78996 43.1622 13.8525 43.1622 20.0749C43.1622 26.2974 38.0997 31.3599 31.8772 31.3599Z" fill="#A68FF1"/>
<path d="M39.6875 19.68H36.6925C36.36 19.68 36.065 19.895 35.9675 20.215L34.915 23.5875L33.41 11.7225C33.3625 11.3475 33.045 11.0625 32.665 11.0575C32.29 11.055 31.96 11.3275 31.9025 11.7025L30.3975 21.405L28.5251 16.5175C28.4101 16.215 28.1151 16.0175 27.7901 16.03C27.4676 16.04 27.1851 16.255 27.0876 16.5625L26.0451 19.8875H23.2576C22.8376 19.8875 22.4976 20.2275 22.4976 20.6475C22.4976 21.0675 22.8376 21.4075 23.2576 21.4075H26.6051C26.9376 21.4075 27.2326 21.1925 27.3301 20.875L27.8851 19.1025L29.9976 24.6199C30.1201 24.9424 30.445 25.1399 30.7875 25.1049C31.13 25.0674 31.405 24.805 31.4575 24.465L32.575 17.265L33.84 27.2424C33.885 27.5974 34.17 27.8724 34.5275 27.9049C34.55 27.9049 34.5725 27.9074 34.595 27.9074C34.925 27.9074 35.22 27.6924 35.32 27.3724L37.2475 21.2025H39.6825C40.1025 21.2025 40.4425 20.8625 40.4425 20.4425C40.4425 20.0225 40.1025 19.6825 39.6825 19.6825L39.6875 19.68Z" fill="#A68FF1"/>
</g>
<defs>
<clipPath id="clip0_1746_12774">
<rect width="44.455" height="45.9399" fill="white" transform="translate(0.227539 0.969971)"/>
</clipPath>
</defs>
</svg>
