<svg width="52" height="41" viewBox="0 0 52 41" fill="none" xmlns="http://www.w3.org/2000/svg">
<g clip-path="url(#clip0_1746_12787)">
<path d="M50.9963 38.9351H50.7838V34.1651C50.7838 33.9301 50.6788 33.7076 50.4988 33.5551C50.3188 33.4051 50.0813 33.3401 49.8488 33.3801L46.4913 33.9726L43.8663 32.2701C43.7463 32.1926 43.6063 32.1476 43.4613 32.1426L16.2513 31.1476C16.0488 31.1401 15.8563 31.2076 15.7038 31.3401L12.9188 33.7301L11.2263 33.6651L10.6288 31.6501C10.5288 31.3126 10.2188 31.0801 9.8663 31.0801H6.1563C5.0088 31.0801 3.9738 31.6076 3.2413 32.5651C2.6413 33.3501 2.2813 34.3901 2.2813 35.3526C2.2813 36.6351 3.0963 38.1026 4.2663 38.9351H1.0013C0.561299 38.9351 0.206299 39.2926 0.206299 39.7301C0.206299 40.1676 0.563799 40.5251 1.0013 40.5251H50.9963C51.4363 40.5251 51.7913 40.1676 51.7913 39.7301C51.7913 39.2926 51.4338 38.9351 50.9963 38.9351ZM45.8888 35.4801C46.0588 35.5901 46.2613 35.6301 46.4613 35.5951L49.1938 35.1126V38.9351H16.0163L16.9113 32.7651L19.8963 32.8751V36.5476C19.8963 36.9876 20.2538 37.3426 20.6913 37.3426H30.0313C30.4713 37.3426 30.8263 36.9851 30.8263 36.5476V33.2751L43.1838 33.7276L45.8863 35.4801H45.8888ZM21.4888 32.9326L29.2363 33.2151V35.7501H21.4888V32.9326ZM6.1588 32.6726H9.2738L9.8638 34.6651C9.9613 34.9926 10.2563 35.2226 10.5963 35.2351L13.1713 35.3326C13.3713 35.3401 13.5688 35.2726 13.7213 35.1401L15.1313 33.9276L14.4063 38.9276C14.4063 38.9276 14.4063 38.9301 14.4063 38.9326H12.2363L9.5763 37.1251C9.2913 36.9301 8.9088 36.9451 8.6363 37.1576C8.6263 37.1651 7.5313 38.0076 6.2038 38.0076C5.0488 38.0076 3.8763 36.4626 3.8763 35.3501C3.8763 34.2376 4.6688 32.6701 6.1588 32.6701V32.6726ZM9.1238 38.7451L9.4038 38.9351H8.7763C8.9038 38.8701 9.0213 38.8051 9.1238 38.7451Z" fill="#A68FF1"/>
<path d="M17.7139 29.5324C17.7139 29.5324 17.7214 29.5324 17.7264 29.5324C18.1614 29.5324 18.5164 29.1824 18.5214 28.7474L18.6189 21.7924C18.6189 21.7924 18.6189 21.7849 18.6189 21.7799C18.6189 21.1949 18.9939 20.6849 19.5539 20.5074L23.9964 19.0799C24.3014 18.9824 24.5189 18.7099 24.5464 18.3899L24.7039 16.5574C24.7039 16.5349 24.7039 16.5124 24.7039 16.4899C24.7539 16.2599 24.7039 16.0124 24.5414 15.8174C24.2789 15.4999 24.0464 15.0724 24.0264 14.9299L23.9764 14.5424C23.9364 14.2199 23.8414 13.9099 23.6964 13.6174L23.6489 13.5224C23.5589 13.3449 23.5139 13.1449 23.5139 12.9449V11.3374C23.5139 10.1874 24.4489 9.25241 25.5989 9.25241C26.7489 9.25241 27.6839 10.1874 27.6839 11.3374V12.8724C27.6839 13.0999 27.6239 13.3249 27.5089 13.5224C27.3139 13.8574 27.1889 14.2249 27.1389 14.6099L27.0989 14.9274C27.0789 15.0874 26.8264 15.5424 26.5589 15.8449C26.5364 15.8699 26.5214 15.8974 26.5014 15.9249C26.3389 16.0849 26.2439 16.3124 26.2664 16.5574L26.4239 18.3899C26.4514 18.7099 26.6689 18.9824 26.9739 19.0799L31.4189 20.5074C31.9764 20.6849 32.3514 21.1949 32.3514 21.7799V21.7924L32.4514 28.7474C32.4564 29.1824 32.8139 29.5324 33.2464 29.5324C33.2514 29.5324 33.2539 29.5324 33.2589 29.5324C33.6989 29.5274 34.0489 29.1649 34.0439 28.7249L33.9464 21.7749C33.9439 20.4949 33.1239 19.3774 31.9064 18.9924L27.9689 17.7274L27.8839 16.7449C28.1164 16.4499 28.5989 15.7699 28.6814 15.1324L28.7214 14.8124C28.7439 14.6399 28.7989 14.4749 28.8864 14.3249C29.1439 13.8849 29.2789 13.3824 29.2789 12.8724V11.3374C29.2789 9.30991 27.6289 7.65991 25.6014 7.65991C23.5739 7.65991 21.9239 9.30991 21.9239 11.3374V12.9449C21.9239 13.3899 22.0289 13.8349 22.2289 14.2349L22.2764 14.3299C22.3414 14.4599 22.3839 14.5999 22.4014 14.7449L22.4514 15.1324C22.5189 15.6549 22.8739 16.2274 23.1089 16.5599L23.0089 17.7274L19.0739 18.9924C17.8539 19.3799 17.0339 20.4974 17.0314 21.7774L16.9339 28.7274C16.9289 29.1674 17.2789 29.5274 17.7189 29.5349L17.7139 29.5324Z" fill="#A68FF1"/>
<path d="M35.7137 6.69774C36.8012 7.94274 38.4112 9.35274 40.2412 10.6677C42.0737 11.9827 43.9237 13.0552 45.4512 13.6877C46.4262 14.0902 47.2187 14.2927 47.8362 14.2927C48.3962 14.2927 48.8087 14.1252 49.0862 13.7927C52.0962 10.5677 50.0187 5.05774 49.9287 4.82274C49.7712 4.41274 49.3112 4.21024 48.9012 4.36774C48.4912 4.52524 48.2862 4.98524 48.4437 5.39524C48.4587 5.43524 49.6987 8.74274 48.7737 11.2902C48.5537 10.9577 48.2787 10.5977 47.9437 10.2152C46.8562 8.97024 45.2462 7.56024 43.4162 6.24524C41.5837 4.93024 39.7337 3.85774 38.2062 3.22524C37.7937 3.05524 37.4162 2.92274 37.0712 2.82274C38.2162 1.97774 40.1962 1.14024 43.1862 1.86524C43.6137 1.97024 44.0437 1.70774 44.1487 1.28024C44.2537 0.85274 43.9912 0.42274 43.5637 0.31774C40.3012 -0.47726 38.0162 0.34274 36.6737 1.16774C35.1962 2.07524 34.5037 3.19774 34.4762 3.24524C34.4737 3.25024 34.4712 3.25524 34.4687 3.25774C33.9737 4.03774 34.3812 5.16024 35.7187 6.69024L35.7137 6.69774ZM42.4862 7.54024C45.8237 9.93524 47.4562 11.9427 47.7537 12.7102C46.9337 12.6752 44.5087 11.7702 41.1712 9.37524C37.8337 6.98024 36.1987 4.97274 35.9037 4.20524C36.7237 4.24024 39.1487 5.14524 42.4887 7.54024H42.4862Z" fill="#A68FF1"/>
<path d="M1.90623 13.7925C2.18373 14.125 2.59873 14.2925 3.15623 14.2925C3.77373 14.2925 4.56373 14.09 5.54123 13.6875C7.06873 13.055 8.91873 11.9825 10.7512 10.6675C12.5837 9.35252 14.1912 7.94252 15.2787 6.69752C16.6162 5.16752 17.0237 4.04252 16.5287 3.26502C16.5262 3.26002 16.5237 3.25502 16.5212 3.25252C16.4937 3.20502 15.7987 2.08252 14.3237 1.17502C12.9812 0.347518 10.6962 -0.469982 7.43373 0.325018C7.00623 0.430018 6.74373 0.860018 6.84873 1.28752C6.95373 1.71502 7.38373 1.97752 7.81123 1.87252C10.8187 1.14002 12.7962 1.98002 13.9362 2.82752C13.5862 2.92502 13.2062 3.06002 12.7912 3.23252C11.2637 3.86502 9.41373 4.93752 7.58123 6.25252C5.74873 7.56752 4.14123 8.97752 3.05373 10.2225C2.71873 10.605 2.44123 10.965 2.22373 11.2975C1.29873 8.75002 2.53873 5.44252 2.55373 5.40252C2.71123 4.99252 2.50623 4.53252 2.09623 4.37502C1.68623 4.21752 1.22623 4.42002 1.06623 4.83002C0.976232 5.06252 -1.10127 10.5725 1.90873 13.8L1.90623 13.7925ZM8.50873 7.54002C11.8462 5.14502 14.2712 4.24002 15.0937 4.20502C14.7962 4.97002 13.1637 6.97752 9.82623 9.37502C6.48873 11.77 4.06373 12.675 3.24373 12.71C3.54123 11.945 5.17373 9.93752 8.51123 7.54002H8.50873Z" fill="#A68FF1"/>
</g>
<defs>
<clipPath id="clip0_1746_12787">
<rect width="51.5875" height="40.5275" fill="white" transform="translate(0.206299)"/>
</clipPath>
</defs>
</svg>
