<svg width="40" height="40" viewBox="0 0 40 40" fill="none" xmlns="http://www.w3.org/2000/svg">
<path d="M35 14.5833C34.31 14.5833 33.75 14.0233 33.75 13.3333V7.5C33.75 6.51833 33.4817 6.25 32.5 6.25H26.6667C25.9767 6.25 25.4167 5.69 25.4167 5C25.4167 4.31 25.9767 3.75 26.6667 3.75H32.5C34.8483 3.75 36.25 5.15167 36.25 7.5V13.3333C36.25 14.0233 35.69 14.5833 35 14.5833ZM6.25 13.3333V7.5C6.25 6.51833 6.51833 6.25 7.5 6.25H13.3333C14.0233 6.25 14.5833 5.69 14.5833 5C14.5833 4.31 14.0233 3.75 13.3333 3.75H7.5C5.15167 3.75 3.75 5.15167 3.75 7.5V13.3333C3.75 14.0233 4.31 14.5833 5 14.5833C5.69 14.5833 6.25 14.0233 6.25 13.3333ZM14.5833 35C14.5833 34.31 14.0233 33.75 13.3333 33.75H7.5C6.51833 33.75 6.25 33.4817 6.25 32.5V26.6667C6.25 25.9767 5.69 25.4167 5 25.4167C4.31 25.4167 3.75 25.9767 3.75 26.6667V32.5C3.75 34.8483 5.15167 36.25 7.5 36.25H13.3333C14.0233 36.25 14.5833 35.69 14.5833 35ZM36.25 32.5V26.6667C36.25 25.9767 35.69 25.4167 35 25.4167C34.31 25.4167 33.75 25.9767 33.75 26.6667V32.5C33.75 33.4817 33.4817 33.75 32.5 33.75H26.6667C25.9767 33.75 25.4167 34.31 25.4167 35C25.4167 35.69 25.9767 36.25 26.6667 36.25H32.5C34.8483 36.25 36.25 34.8483 36.25 32.5Z" fill="#B8E1EE"/>
<path d="M20.01 18.6116C22.6133 18.6116 24.7333 16.4933 24.7333 13.89C24.7333 11.2866 22.615 9.16827 20.01 9.16827C17.405 9.16827 15.2883 11.2866 15.2883 13.89C15.2883 16.4933 17.405 18.6116 20.01 18.6116Z" fill="#A68FF1"/>
<path d="M22.2217 21.1116C20.9733 21.1116 20.0434 21.1116 17.7767 21.1116C13.3317 21.1116 12.2217 24.4449 12.2217 26.6866C12.2217 28.8883 13.3333 30 15.5583 30H24.4417C26.6667 30 27.7783 28.8883 27.7783 26.6866C27.7783 24.4766 26.6667 21.1116 22.2217 21.1116Z" fill="#B8E1EE"/>
</svg>
