<svg width="40" height="40" viewBox="0 0 40 40" fill="none" xmlns="http://www.w3.org/2000/svg">
<path d="M16.6818 17.5C20.3637 17.5 23.3485 14.5153 23.3485 10.8334C23.3485 7.15146 20.3637 4.16669 16.6818 4.16669C12.9999 4.16669 10.0151 7.15146 10.0151 10.8334C10.0151 14.5153 12.9999 17.5 16.6818 17.5Z" fill="#A68FF1"/>
<path d="M24.3167 21.9999C24.3167 22.1332 24.2667 22.2667 24.1667 22.35C24.1051 22.4 24.0634 22.4183 23.9834 22.4666C23.3501 22.7999 22.8001 23.2667 22.3335 23.8167C21.0168 25.4334 20.5334 27.7167 21 30.0834C21.3834 32.0334 22.4168 33.6833 23.6168 34.9833C23.7002 35.0666 23.7668 35.1999 23.7668 35.3332C23.7668 35.6166 23.5333 35.8333 23.2667 35.8333H10.0001C6.18341 35.8333 4.16675 33.8333 4.16675 30.0333C4.16675 25.7833 6.56675 20.8333 13.3334 20.8333H20.0001C21.5334 20.8333 22.8334 21.0834 23.9334 21.5167C23.9334 21.5167 24.3167 21.6399 24.3167 21.9999Z" fill="#B8E1EE"/>
<path d="M36.5481 29.6033C35.6798 34.01 30.0066 36.5467 30.0066 36.5467C30.0066 36.5467 24.3348 34.0083 23.4648 29.6033C22.9315 26.9 24.0965 24.1801 27.0598 24.1667C29.2665 24.1567 30.0066 26.3434 30.0066 26.3434C30.0066 26.3434 30.7465 24.1567 32.9532 24.1667C35.9215 24.1817 37.0815 26.9 36.5481 29.6033Z" fill="#A68FF1"/>
</svg>
