<svg width="40" height="40" viewBox="0 0 40 40" fill="none" xmlns="http://www.w3.org/2000/svg">
<path d="M27.5 12.5H24.1666C20.4766 12.5 19.1666 15.2017 19.1666 17.5151C19.1666 19.6234 20.3816 20.8333 22.5016 20.8333H29.165C31.2833 20.8333 32.5 19.6234 32.5 17.5151C32.5 15.2017 31.19 12.5 27.5 12.5Z" fill="#B8E1EE"/>
<path d="M25.8417 10C27.9127 10 29.5917 8.32107 29.5917 6.25C29.5917 4.17893 27.9127 2.5 25.8417 2.5C23.7706 2.5 22.0917 4.17893 22.0917 6.25C22.0917 8.32107 23.7706 10 25.8417 10Z" fill="#A68FF1"/>
<path d="M14.1667 29.1667H10.8334C7.14337 29.1667 5.83337 31.8684 5.83337 34.1817C5.83337 36.2901 7.04833 37.5 9.16833 37.5H15.8317C17.9501 37.5 19.1667 36.2901 19.1667 34.1817C19.1667 31.8684 17.8567 29.1667 14.1667 29.1667Z" fill="#B8E1EE"/>
<path d="M12.5083 26.6667C14.5794 26.6667 16.2583 24.9878 16.2583 22.9167C16.2583 20.8456 14.5794 19.1667 12.5083 19.1667C10.4372 19.1667 8.7583 20.8456 8.7583 22.9167C8.7583 24.9878 10.4372 26.6667 12.5083 26.6667Z" fill="#A68FF1"/>
<path d="M5.00171 19.7582C4.95671 19.7582 4.90999 19.7565 4.86499 19.7515C4.17832 19.6765 3.68175 19.0583 3.75842 18.3733C4.36175 12.8433 7.69839 8.08319 12.6834 5.63652C13.0717 5.44652 13.5285 5.46983 13.8951 5.69816C14.2618 5.9265 14.4851 6.32831 14.4851 6.75997V11.8432C14.4851 12.5332 13.9251 13.0932 13.2351 13.0932C12.5451 13.0932 11.9851 12.5332 11.9851 11.8432V8.94157C8.77848 11.1716 6.6767 14.6749 6.24336 18.6466C6.1717 19.2849 5.63171 19.7582 5.00171 19.7582Z" fill="#A68FF1"/>
<path d="M26.7667 34.6767C26.5367 34.6767 26.3082 34.6133 26.1065 34.4883C25.7399 34.2599 25.5167 33.8583 25.5167 33.4267V28.3432C25.5167 27.6532 26.0767 27.0932 26.7667 27.0932C27.4567 27.0932 28.0167 27.6532 28.0167 28.3432V31.2449C31.2234 29.0149 33.325 25.5115 33.7583 21.5399C33.8333 20.8532 34.4467 20.3633 35.135 20.4333C35.8217 20.5083 36.3183 21.1267 36.2416 21.8117C35.6383 27.34 32.3016 32.1016 27.3167 34.5483C27.1417 34.6333 26.9551 34.6767 26.7667 34.6767Z" fill="#A68FF1"/>
</svg>
